<svg id="Capa_1" data-name="Capa 1" xmlns="http://www.w3.org/2000/svg" viewBox="0 0 1080 1080"><defs><style>.cls-1{fill:#fff;}.cls-2{fill:#522f61;}.cls-3{fill:#c40050;}</style></defs><rect class="cls-1" width="1080" height="1080"/><path class="cls-2" d="M281.23,543.22a10.57,10.57,0,0,1-1.93,7.94,10.07,10.07,0,0,1-7.08,4.29,9.71,9.71,0,0,1-7.94-1.82,10.27,10.27,0,0,1-4.29-7l-1.72-11.37a67.45,67.45,0,0,1-5.69,5.47,64.7,64.7,0,0,1-6.11,4.61,60.68,60.68,0,0,1-19.53,8.8,53.48,53.48,0,0,1-12.88,1.72,40.72,40.72,0,0,1-7.51-.65q-17.6-3-27.89-17-10.74-14.6-10.73-37.77,0-20.81,7.51-36.26Q182.73,449,195,442.57A35.3,35.3,0,0,1,213.42,438a33.53,33.53,0,0,1,17.6,5.69q10.72,6.87,16.31,20.6,5.35,14,4.07,32a11,11,0,0,1-3.75,7.3,9.81,9.81,0,0,1-7.83,2.57,11,11,0,0,1-7.3-3.75,9.83,9.83,0,0,1-2.58-7.84Q230.8,482.71,228,474t-8.58-12.34q-6.66-4.29-14.16-.43-6.22,3.66-10.52,12.23-5.37,11.16-5.36,27,0,14.38,5.36,23.07A21.53,21.53,0,0,0,210,534a26.69,26.69,0,0,0,12-.64,41,41,0,0,0,12.45-5.8,44.41,44.41,0,0,0,11.8-11.37,57.44,57.44,0,0,0,7.73-15,10.17,10.17,0,0,1,10.94-7.3,11.62,11.62,0,0,1,6.44,2.9,10.32,10.32,0,0,1,3.43,6.11Z"/><path class="cls-2" d="M327.37,550.51a10.25,10.25,0,0,1-2.79,7.62,10.41,10.41,0,0,1-7.51,3.54h-.43a10.11,10.11,0,0,1-7.4-3.11,10.9,10.9,0,0,1-3.33-7.4L301,404.59a10,10,0,0,1,2.9-7.72,10.74,10.74,0,0,1,7.4-3.44,10,10,0,0,1,7.73,2.9,10.69,10.69,0,0,1,3.43,7.4Z"/><path class="cls-2" d="M461.49,543.22a10.58,10.58,0,0,1-1.94,7.94,10,10,0,0,1-7.08,4.29,9.71,9.71,0,0,1-7.94-1.82,10.31,10.31,0,0,1-4.29-7l-1.72-11.37a67.36,67.36,0,0,1-5.68,5.47,63.57,63.57,0,0,1-6.12,4.61,60.68,60.68,0,0,1-19.53,8.8,53.47,53.47,0,0,1-12.87,1.72,40.64,40.64,0,0,1-7.51-.65,42.18,42.18,0,0,1-27.9-17q-10.73-14.6-10.73-37.77,0-20.81,7.51-36.26Q363,449,375.22,442.57A35.34,35.34,0,0,1,393.67,438a33.5,33.5,0,0,1,17.6,5.69q10.73,6.87,16.31,20.6,5.35,14,4.08,32a11,11,0,0,1-3.76,7.3,9.81,9.81,0,0,1-7.83,2.57,11,11,0,0,1-7.3-3.75,9.82,9.82,0,0,1-2.57-7.84q.85-11.79-1.93-20.49t-8.59-12.34q-6.65-4.29-14.16-.43Q379.3,464.9,375,473.47q-5.37,11.16-5.37,27,0,14.38,5.37,23.07A21.49,21.49,0,0,0,390.24,534a26.73,26.73,0,0,0,12-.64,41.06,41.06,0,0,0,12.45-5.8,44.56,44.56,0,0,0,11.8-11.37,57.41,57.41,0,0,0,7.72-15,10.19,10.19,0,0,1,10.95-7.3,11.66,11.66,0,0,1,6.44,2.9,10.38,10.38,0,0,1,3.43,6.11Z"/><path class="cls-2" d="M581.19,464.62a10.57,10.57,0,0,1-1.93,7.94,9.94,9.94,0,0,1-6.87,4.29l-61.15,10.08q0,12.88.42,26.18t.86,26q.43,12.66,1,23.82t1,19.63q.43,8.47.76,13.42c.21,3.29.32,5,.32,5.15a10.18,10.18,0,0,1-2.79,7.72,11.25,11.25,0,0,1-7.3,3.65h-.64a10.51,10.51,0,0,1-7.41-2.9,10.16,10.16,0,0,1-3.32-7.19q0-.86-.32-6T493,583q-.44-8.26-1-19t-1-22.85q-.42-12.12-.75-25.11t-.53-25.64l-9.66,1.71a3.62,3.62,0,0,0-.86.11,3.17,3.17,0,0,1-.86.11,10.23,10.23,0,0,1-6.86-2.58,10.47,10.47,0,0,1-3.65-6.43,9.71,9.71,0,0,1,1.82-8.05,11.25,11.25,0,0,1,7-4.4l13.09-2.15q0-11.37.32-21t1.18-17A71.31,71.31,0,0,1,495,414.62,44.53,44.53,0,0,1,502,402a33.3,33.3,0,0,1,10.41-8.7A26.54,26.54,0,0,1,525,390.15h.21a28.33,28.33,0,0,1,13.52,3.44,38.67,38.67,0,0,1,11.59,9.65,57.6,57.6,0,0,1,8.26,14.6,75.77,75.77,0,0,1,4.62,18.45,11.15,11.15,0,0,1-2.26,8,9.65,9.65,0,0,1-7,4,10.18,10.18,0,0,1-8.05-2.15,10,10,0,0,1-4-7.08q-1.71-13.51-6.76-20.49t-10-7q-3.64,0-7.51,5.26t-5.15,16.2q-.64,6.23-1,14.38t-.32,17.81l57.51-9.44a9.76,9.76,0,0,1,8,1.82A11.28,11.28,0,0,1,581.19,464.62Z"/><path class="cls-2" d="M734.67,508.68a9.75,9.75,0,0,1,5.58,5.9,11,11,0,0,1-.22,8.26,31.9,31.9,0,0,1-8.58,11.27,62.53,62.53,0,0,1-26.29,13A58.64,58.64,0,0,1,693,548.38a49.63,49.63,0,0,1-9.66-.86,38.53,38.53,0,0,1-24.89-16.74q-9.45-13.93-9.44-37.12,0-20.61,7.29-36.27,7.29-15,19.74-21.67a34.6,34.6,0,0,1,18.35-4.62,33.85,33.85,0,0,1,17.71,5.69q10.93,6.87,16.09,20.6,5.58,14,4.08,32a11,11,0,0,1-3.76,7.29,9.5,9.5,0,0,1-7.62,2.58,10.83,10.83,0,0,1-7.4-3.76,10,10,0,0,1-2.47-7.83q.86-11.81-1.93-20.49t-8.8-12.34q-6.65-4.29-14-.43-6.43,3.64-10.51,12.23a44,44,0,0,0-4.08,12.23,80.31,80.31,0,0,0-1.29,14.81q0,29.4,17.39,32.83,9.43,1.93,20.6-3a32.22,32.22,0,0,0,8.37-5,14.49,14.49,0,0,0,3.64-4.18,9.72,9.72,0,0,1,5.8-5.8A11.39,11.39,0,0,1,734.67,508.68Z"/><path class="cls-2" d="M870.5,630.37a10.43,10.43,0,0,1-10.3,10.93h-.43a10.3,10.3,0,0,1-7.4-3A10.57,10.57,0,0,1,849,631l-3.21-124.25q-3.23,6.44-6.66,11.91a84,84,0,0,1-7.08,9.76q-14.8,18.47-33.69,19.74a17.11,17.11,0,0,1-3.22.22q-15.66,0-25.32-11.26-8.37-10-10.73-28.23a112,112,0,0,1-.86-14.27c0-5.07.22-10.55.65-16.41q.63-7.29,1.6-13.74t1.94-11.37c.64-3.29,1.21-5.93,1.71-7.94s.75-3.07.75-3.22a10.58,10.58,0,0,1,12.88-7.72,10.6,10.6,0,0,1,6.65,4.82,10,10,0,0,1,1.29,8q-1.29,5.58-2.15,10.09t-1.71,10.51q-.87,6-1.5,12.66a130.23,130.23,0,0,0,0,26q1.49,11.58,6,16.95a13.41,13.41,0,0,0,3.54,2.79c1.51.86,3.76,1.14,6.76.86q9.45-.64,18.35-11.16t16.63-29.83q3.23-8.15,5.58-15.88t4-13.84q1.62-6.12,3.11-13.62a10.31,10.31,0,0,1,3.87-6.66,10,10,0,0,1,7.51-2.14,10.83,10.83,0,0,1,6.86,3.32,10.58,10.58,0,0,1,3,7Z"/><path class="cls-2" d="M912.06,542.76a10.25,10.25,0,0,1-2.79,7.62,10.39,10.39,0,0,1-7.51,3.54h-.43a10.11,10.11,0,0,1-7.4-3.11,10.88,10.88,0,0,1-3.33-7.4l-4.94-146.57a10,10,0,0,1,2.9-7.72,10.74,10.74,0,0,1,7.4-3.44,10,10,0,0,1,7.73,2.9,10.71,10.71,0,0,1,3.43,7.4Z"/><path class="cls-2" d="M607,422.52a11,11,0,0,1-10.94-10.94,10.78,10.78,0,0,1,3.22-7.94,10.51,10.51,0,0,1,7.72-3.22,11,11,0,0,1,11.16,11.16,10.55,10.55,0,0,1-3.22,7.73A10.79,10.79,0,0,1,607,422.52Z"/><path class="cls-2" d="M621.42,455.14c-1.5-16.32-23-15.57-22.57,2,.44,19.22.89,34.42,1.34,69.07.4,31.31-13.86,43.14-29.06,44.48-46.06,4.06-84,7.45-123.69,9.54-45.3,2.38-40.53,20.86-33.38,37.55s72.13,138.29,219.36,129.35S825.36,607.07,829.53,586.81s1.09-26.74-42.32-23.85c-40,2.67-73.4,3.85-122.42,5.07-27,.67-35.76-12.33-38-42.92C624.11,488.45,623,472.13,621.42,455.14Z"/><path class="cls-3" d="M535.07,708.41c45.37-7.87,66.09-84.8,119.74-44.86,32.78-31.6,82.26-14.91,75.7,31.59C666.14,734.48,590.5,732.85,535.07,708.41Z"/><path class="cls-1" d="M525,710.75c53.17,29,163.91,30,210.57-15.94-8.51-9.65-50.73.19-106.27,1.68S527.32,700.66,525,710.75Z"/><path class="cls-1" d="M480,592.67a9.22,9.22,0,0,0-7.12,15.09c22.42,26.9,62.85,27.55,146.55,23.3,26.76-1.35,50.18-2.83,70.26-5.19a21.69,21.69,0,0,0,16.7-13.13c2.45,6.48,10,9.08,14.27,8.13,25.66-5.66,43-14.55,52.11-29.61a9.23,9.23,0,0,0-9-14c-41.27,5-97.86,9.94-121.11,7.26s-28.39-29.73-28.39-29.73-5.81,27.94-25.48,31.07S513.84,592.71,480,592.67Z"/><path class="cls-2" d="M679.39,783.33c5.23,9.28-24.91,31-48.11,31S585.87,793,586.92,786.54s20.09-.54,43.29-1.61S675.17,775.85,679.39,783.33Z"/></svg>