<svg id="Capa_1" data-name="Capa 1" xmlns="http://www.w3.org/2000/svg" viewBox="0 0 1080 1080"><defs><style>.cls-1{fill:#fff;}.cls-2{fill:#222221;}.cls-3{fill:#e5aa31;}</style></defs><rect class="cls-1" width="1080" height="1080"/><circle class="cls-2" cx="229.16" cy="504.69" r="60.26"/><circle class="cls-1" cx="213.32" cy="491.55" r="20.86"/><polygon class="cls-2" points="229.16 583.58 205.74 624.13 229.16 632.47 252.57 624.13 229.16 583.58"/><circle class="cls-2" cx="229.16" cy="581.18" r="10.73"/><path class="cls-3" d="M283.55,581.18c0-.32,0-.63-.05-.94-9.89-3.14-22.81-4.86-27-2.19-5.87,3.74-23.69,41.4-27.34,49.22-3.66-7.82-21.48-45.48-27.35-49.22-4.19-2.67-17.11-.95-27,2.19,0,.31-.05.62-.05.94a54.4,54.4,0,0,0,108.79,0Z"/><polygon class="cls-2" points="599.63 630.38 684.74 447.8 617.27 447.8 532.15 630.38 599.63 630.38"/><path class="cls-2" d="M668.45,521.66c-32.77,69.78,28.89,113.1,87.62,113.1s93.46-23.2,112.45-47.7l-22.39-20c-17.36,24-51.76,36.34-74.16,36.34s-50.3-17.52-27.58-66.2,52.09-59.71,73-59.71,34.07,18.5,17,51.75L870,528.16l75.45-80.81h-76.1l-9.09,18.82c-5.19-10.71-22.06-21.74-57.11-21.74S701.23,451.89,668.45,521.66Z"/><path class="cls-2" d="M530.13,447.8H371.93L286.82,630.38H467.58c34.39,0,56.46-24.66,65.87-44.46s-2.27-38.29-21.09-47.06c25.8-3.16,48.43-10.79,61.09-37.72S561.52,447.8,530.13,447.8ZM421.82,600.2H368.36L392.72,548h54.17C479.75,548,470.25,600.2,421.82,600.2ZM462,516.47H407.39l18-38.62h54.83C513.33,477.85,510.17,516.47,462,516.47Z"/></svg>