<svg xmlns="http://www.w3.org/2000/svg" xmlns:xlink="http://www.w3.org/1999/xlink" viewBox="0 0 1080 1080"><defs><style>.cls-1{isolation:isolate;}.cls-2{fill:#eec73c;}.cls-3{fill:#3c4439;}.cls-4{fill:#292f26;}.cls-5{mix-blend-mode:multiply;fill:url(#radial-gradient);}.cls-6{fill:url(#linear-gradient);}.cls-7{fill:url(#linear-gradient-2);}.cls-12,.cls-32,.cls-8{fill:#3f3543;}.cls-8{opacity:0.1;}.cls-9{fill:url(#linear-gradient-3);}.cls-10{fill:#b4b3b6;}.cls-11{fill:url(#linear-gradient-4);}.cls-13{fill:#e9e9eb;opacity:0.6;}.cls-14{fill:url(#radial-gradient-2);}.cls-15{fill:url(#linear-gradient-5);}.cls-16,.cls-19{opacity:0.5;}.cls-16{fill:url(#linear-gradient-6);}.cls-17{fill:url(#radial-gradient-3);}.cls-18{fill:#948f9f;}.cls-19{fill:url(#linear-gradient-7);}.cls-20{fill:url(#radial-gradient-4);}.cls-21{fill:url(#linear-gradient-8);}.cls-22{fill:#395168;}.cls-23{fill:url(#linear-gradient-9);}.cls-24{fill:url(#linear-gradient-10);}.cls-25{fill:url(#linear-gradient-11);}.cls-26{fill:url(#linear-gradient-12);}.cls-27{fill:url(#linear-gradient-13);}.cls-28{fill:url(#linear-gradient-14);}.cls-29{fill:url(#linear-gradient-15);}.cls-30{fill:url(#linear-gradient-16);}.cls-31{fill:url(#linear-gradient-17);}.cls-32{opacity:0.2;}.cls-33{fill:url(#linear-gradient-18);}</style><radialGradient id="radial-gradient" cx="336.07" cy="999.92" r="178.99" gradientTransform="translate(0 505.75) scale(1 0.24)" gradientUnits="userSpaceOnUse"><stop offset="0" stop-color="#856e8f"/><stop offset="0.09" stop-color="#947f9c"/><stop offset="0.4" stop-color="#c2b6c7"/><stop offset="0.66" stop-color="#e3dee5"/><stop offset="0.87" stop-color="#f7f6f8"/><stop offset="1" stop-color="#fff"/></radialGradient><linearGradient id="linear-gradient" x1="418.8" y1="601.89" x2="393.04" y2="601.89" gradientUnits="userSpaceOnUse"><stop offset="0" stop-color="#b4b3b6"/><stop offset="1" stop-color="#948f9f"/></linearGradient><linearGradient id="linear-gradient-2" x1="196.96" y1="619.43" x2="402.18" y2="619.43" gradientUnits="userSpaceOnUse"><stop offset="0" stop-color="#e9e9eb"/><stop offset="1" stop-color="#b4b3b6"/></linearGradient><linearGradient id="linear-gradient-3" x1="246.55" y1="612.96" x2="416.28" y2="612.96" xlink:href="#linear-gradient-2"/><linearGradient id="linear-gradient-4" x1="239.42" y1="470.95" x2="428.72" y2="470.95" xlink:href="#linear-gradient-2"/><radialGradient id="radial-gradient-2" cx="365.88" cy="569.72" r="138.45" gradientUnits="userSpaceOnUse"><stop offset="0" stop-color="#856e8f"/><stop offset="1" stop-color="#3f3543"/></radialGradient><linearGradient id="linear-gradient-5" x1="291.12" y1="507.92" x2="409.63" y2="507.92" gradientUnits="userSpaceOnUse"><stop offset="0" stop-color="#cc5260"/><stop offset="1" stop-color="#591e23"/></linearGradient><linearGradient id="linear-gradient-6" x1="372.23" y1="445.9" x2="372.23" y2="391.74" xlink:href="#linear-gradient-2"/><radialGradient id="radial-gradient-3" cx="266.49" cy="430.87" r="16.92" gradientTransform="translate(75.67 5.97) rotate(-3.47)" xlink:href="#radial-gradient-2"/><linearGradient id="linear-gradient-7" x1="323.51" y1="449.57" x2="323.51" y2="404.96" xlink:href="#linear-gradient-2"/><radialGradient id="radial-gradient-4" cx="253.27" cy="429.16" r="20.09" gradientTransform="translate(38.63 5.97) rotate(-3.47)" xlink:href="#radial-gradient-2"/><linearGradient id="linear-gradient-8" x1="340.26" y1="731.35" x2="420.7" y2="731.35" xlink:href="#linear-gradient-2"/><linearGradient id="linear-gradient-9" x1="320.96" y1="645.53" x2="446.02" y2="645.53" gradientUnits="userSpaceOnUse"><stop offset="0" stop-color="#afcfea"/><stop offset="1" stop-color="#395168"/></linearGradient><linearGradient id="linear-gradient-10" x1="320.97" y1="684.89" x2="446.02" y2="684.89" xlink:href="#linear-gradient-2"/><linearGradient id="linear-gradient-11" x1="320.97" y1="701.3" x2="446.02" y2="701.3" xlink:href="#linear-gradient-9"/><linearGradient id="linear-gradient-12" x1="320.96" y1="719.21" x2="446.02" y2="719.21" xlink:href="#linear-gradient-9"/><linearGradient id="linear-gradient-13" x1="242.51" y1="740.11" x2="327.46" y2="740.11" xlink:href="#linear-gradient-2"/><linearGradient id="linear-gradient-14" x1="292.44" y1="649.56" x2="376.49" y2="649.56" xlink:href="#linear-gradient-9"/><linearGradient id="linear-gradient-15" x1="292.44" y1="691.13" x2="376.49" y2="691.13" xlink:href="#linear-gradient-2"/><linearGradient id="linear-gradient-16" x1="292.44" y1="708.34" x2="376.49" y2="708.34" xlink:href="#linear-gradient-9"/><linearGradient id="linear-gradient-17" x1="292.44" y1="727.15" x2="376.49" y2="727.15" xlink:href="#linear-gradient-9"/><linearGradient id="linear-gradient-18" x1="231.29" y1="588.44" x2="324.39" y2="681.54" xlink:href="#linear-gradient-2"/></defs><g class="cls-1"><g id="Capa_1" data-name="Capa 1"><rect class="cls-2" width="1080" height="1080"/><path class="cls-3" d="M889.29,429.15c90,81.39,43,299.16-280.81,284.4S238.41,458.8,286,416s186.73,68.28,285.71,60.19S817.69,364.41,889.29,429.15Z"/><path class="cls-2" d="M510,564.31v15h-1.88a45.23,45.23,0,0,0-19.73-4.82c-6.93-.11-13,2.12-17.73,7.63-4.34,5.41-6.11,13.39-6.11,20.32s1.77,15.14,6.34,20.55a22.8,22.8,0,0,0,17.74,7.39,45.21,45.21,0,0,0,19.6-4.81h2.12v14.91c-7.4,2.7-13.74,4.23-21.61,4.35-10.33,0-20.31-2.82-27.71-10.1-9.16-8.69-12.8-20.43-12.8-32.76,0-10.33,3.29-21.25,10.57-29.59,7.63-8.57,18-12.33,29.59-12.33A63.6,63.6,0,0,1,510,564.31Z"/><path class="cls-2" d="M552.46,594.84h-2c-5.17-2.12-12.92.11-17.61,3v45.67H517.94V582h14.45v4a44.06,44.06,0,0,1,20.07-5.28Z"/><path class="cls-2" d="M585.69,632.17c5.29-.11,11.27-.94,16.21-3.87h1.88v14a62.92,62.92,0,0,1-19.26,2.59c-8.69,0-17.85-2.24-24.43-8.22s-9.39-14.45-9.39-23.49c.24-7.63,2.23-15.5,6.81-21.84a27,27,0,0,1,22-10.56c11.15,0,20.08,5.16,24.42,15.49,3.06,7.52,3.29,14.92,3.06,22.43H566.67C568.2,628.42,577.12,632.41,585.69,632.17Zm-18.9-25.83h25c-.71-7.75-4.58-12.56-12.1-12.68C572,593.66,567.49,599.3,566.79,606.34Z"/><path class="cls-2" d="M651.21,637.93a23.13,23.13,0,0,1-16.56,7c-12.21,0-21.25-8.22-21.61-20.19-.23-11.27,8.22-18.67,17.74-20L651,601.88c-.47-6-9.86-8.1-14-8.1a40.41,40.41,0,0,0-16.32,3.64H619V583.8c5.88-1.65,11.75-3,18.2-3,14.09,0,27.83,5.28,28.3,20.78v42H651.21Zm-13.86-6.11c4.7,0,9.4-1.88,13.27-4.23V613.74c-5,.94-10.22,1.41-15.38,2.47-4.11.82-7.17,3-7.17,7.75C628.07,629.71,632.42,631.82,637.35,631.82Z"/><path class="cls-2" d="M691.83,624c0,5.28,3.64,7.63,8.1,7.63,3.17.11,6.11-1.29,8.92-2.47h2.35v13c-4.46,1.53-8.22,2.71-13,2.71-14.56,0-21.25-8.22-21.25-22.78V595h-6.7V582h6.7V567.6h14.91V582h15.73V595H691.83Z"/><path class="cls-2" d="M730.34,576.05h-15V561.37h15Zm-.12,67.51H715.31V582h14.91Z"/><path class="cls-2" d="M779.89,582H794l-20.2,56a10.12,10.12,0,0,1-9.39,6.69c-4.58,0-8.34-2.35-9.87-6.46L734.44,582h16L765,625.6Z"/><path class="cls-2" d="M831.66,637.93a23.09,23.09,0,0,1-16.55,7c-12.21,0-21.25-8.22-21.61-20.19-.23-11.27,8.22-18.67,17.73-20l20.2-2.94c-.47-6-9.86-8.1-14-8.1a40.38,40.38,0,0,0-16.32,3.64h-1.65V583.8c5.87-1.65,11.74-3,18.2-3,14.09,0,27.83,5.28,28.3,20.78v42H831.66Zm-13.85-6.11c4.7,0,9.39-1.88,13.27-4.23V613.74c-5.05.94-10.22,1.41-15.38,2.47-4.11.82-7.17,3-7.17,7.75C808.53,629.71,812.88,631.82,817.81,631.82Z"/><path class="cls-2" d="M528.2,512.63a13.93,13.93,0,0,1,7.64,2.18,3.6,3.6,0,0,1-.41,6.41,3.36,3.36,0,0,1-3.54-.41,7.6,7.6,0,0,0-3.69-.82,6.7,6.7,0,0,0-3.4,1c-2,1.36-3,4-3,7.77v.14q0,6.14,2.86,8a6.42,6.42,0,0,0,3.54,1,6.73,6.73,0,0,0,3.69-1,3,3,0,0,1,3.54-.41,3.83,3.83,0,0,1,2.18,3.14,3.28,3.28,0,0,1-1.77,3.13,13.26,13.26,0,0,1-7.64,2.32,12.61,12.61,0,0,1-7.36-2.18q-6.27-4-6.26-14.18,0-8.72,5.31-13.08A12.13,12.13,0,0,1,528.2,512.63Z"/><path class="cls-2" d="M561.74,514.94q6.13,4.65,6.13,13.91,0,9.95-6.13,14a14.46,14.46,0,0,1-16.09-.55q-5.17-4.35-5-13.49,0-9.68,6.13-13.77a12.48,12.48,0,0,1,7.36-2.32A13.51,13.51,0,0,1,561.74,514.94Zm-7.64,23q6.67,0,6.68-9.13,0-8.86-6.68-8.86a6,6,0,0,0-3.41,1.09q-3,1.9-3,7.77v.54Q547.69,538,554.1,538Z"/><path class="cls-2" d="M583.27,512.63a12.37,12.37,0,0,1,11.45,6.68,3.84,3.84,0,0,1,0,4,3.59,3.59,0,0,1-3.54,1.64,4,4,0,0,1-3-2.32,3.66,3.66,0,0,0-2.46-2.32,8.3,8.3,0,0,0-2.45-.27c-2.27,0-3.82.63-4.63,1.91-.09.18-.23.4-.41.68a9.24,9.24,0,0,0-.82,3.13v15.68a3.53,3.53,0,0,1-1.64,3.13,3.36,3.36,0,0,1-3.68,0,3.46,3.46,0,0,1-1.77-3.13V525.71q.69-9.4,8.32-12.13A11.52,11.52,0,0,1,583.27,512.63Z"/><path class="cls-2" d="M608.08,512.63a12.39,12.39,0,0,1,11.45,6.68,3.88,3.88,0,0,1,0,4A3.6,3.6,0,0,1,616,524.9a4,4,0,0,1-3-2.32,3.66,3.66,0,0,0-2.46-2.32,8.3,8.3,0,0,0-2.45-.27c-2.28,0-3.82.63-4.64,1.91-.09.18-.23.4-.41.68a9.46,9.46,0,0,0-.81,3.13v15.68a3.53,3.53,0,0,1-1.64,3.13,3.36,3.36,0,0,1-3.68,0,3.46,3.46,0,0,1-1.77-3.13V525.71q.68-9.4,8.31-12.13A11.57,11.57,0,0,1,608.08,512.63Z"/><path class="cls-2" d="M626.89,500.36a3.91,3.91,0,0,1,1.22,2.86v.55a3.46,3.46,0,0,1-1.77,3.13,3.36,3.36,0,0,1-3.68,0,3.46,3.46,0,0,1-1.77-3.13v-.55a2.7,2.7,0,0,1,.27-1.22,3.3,3.3,0,0,1,3-2.46A3.13,3.13,0,0,1,626.89,500.36Zm.13,13.36a3.53,3.53,0,0,1,1.09,2.59v25.08a3.46,3.46,0,0,1-1.77,3.13,3.36,3.36,0,0,1-3.68,0,3.46,3.46,0,0,1-1.77-3.13V516.31a2.86,2.86,0,0,1,.41-1.5,3.09,3.09,0,0,1,3.13-2.18A3.25,3.25,0,0,1,627,513.72Z"/><path class="cls-2" d="M651.28,536.75a3.63,3.63,0,0,1,3.68-.68,3.52,3.52,0,0,1,2.19,3,3.29,3.29,0,0,1-1.37,3.27,13.51,13.51,0,0,1-4.9,2.32,33.84,33.84,0,0,1-6.82.27,12,12,0,0,1-6.81-2.32q-5.87-4.35-6.27-13.22v-1.5q.54-9.25,6.27-13.22a13.69,13.69,0,0,1,7.63-2.31,12.57,12.57,0,0,1,5.72,1.36q6.54,4.08,6.55,13.63v1.36a3.64,3.64,0,0,1-.28,1.36,3.41,3.41,0,0,1-3.4,2.19H638.61a6.11,6.11,0,0,0,5.45,5.31h1.23Q650.06,537.57,651.28,536.75Zm-6.67-17h-.55a5.25,5.25,0,0,0-2.72.81,6.59,6.59,0,0,0-2.73,4.5h11.18v-.27q-.56-3.4-2.73-4.5a4.35,4.35,0,0,0-2.18-.54Z"/><path class="cls-2" d="M660.41,526a12.84,12.84,0,0,1,2.87-8.32q3.4-4.36,10-4.36,9.81,1,12.13,8.86a25.43,25.43,0,0,1,.55,3.82v15.53a3.25,3.25,0,0,1-2,3.14,3.47,3.47,0,0,1-1.5.41,3.08,3.08,0,0,1-3.13-2.18,3.53,3.53,0,0,1-.28-1.37V526q-.27-5.06-5.72-5.59-4.63,0-5.59,4.36a6.35,6.35,0,0,0-.14,1.23v15.53a3.23,3.23,0,0,1-2.18,3.14,2.22,2.22,0,0,1-1.36.41,3.32,3.32,0,0,1-3.27-2.18,3.73,3.73,0,0,1-.28-1.37Z"/><path class="cls-2" d="M696.26,499.82a3.69,3.69,0,0,1,2.73,1.09,3.06,3.06,0,0,1,1,2.59v9.4h4.5a3.55,3.55,0,0,1,3.27,1.91,3.13,3.13,0,0,1,0,3.54,3.27,3.27,0,0,1-3.27,1.77h-4.5V534.3a3.94,3.94,0,0,0,.69,2.73,2,2,0,0,0,1.36.68,4.09,4.09,0,0,0,2.73-.14,3.56,3.56,0,0,1,3.81.95,3.51,3.51,0,0,1,.82,3.55,3.44,3.44,0,0,1-2.59,2.59l-2.59.41q-6,.4-9-3.27a11.16,11.16,0,0,1-2.45-7.5V520.12h-2.18a3,3,0,0,1-3.14-1.77,3.17,3.17,0,0,1,0-3.54,3.26,3.26,0,0,1,3.14-1.91h2.18v-9.4a3.85,3.85,0,0,1,1.91-3.41A5.16,5.16,0,0,1,696.26,499.82Z"/><path class="cls-2" d="M729.79,536.75a3.63,3.63,0,0,1,3.68-.68,3.51,3.51,0,0,1,2.18,3,3.27,3.27,0,0,1-1.36,3.27,13.48,13.48,0,0,1-4.91,2.32,33.68,33.68,0,0,1-6.81.27,12.06,12.06,0,0,1-6.82-2.32q-5.85-4.35-6.27-13.22v-1.5q.56-9.25,6.27-13.22a13.75,13.75,0,0,1,7.64-2.31,12.6,12.6,0,0,1,5.72,1.36q6.54,4.08,6.54,13.63v1.36a3.62,3.62,0,0,1-.27,1.36,3.43,3.43,0,0,1-3.41,2.19H717.12a6.11,6.11,0,0,0,5.45,5.31h1.22Q728.58,537.57,729.79,536.75Zm-6.68-17h-.54a5.31,5.31,0,0,0-2.73.81,6.62,6.62,0,0,0-2.72,4.5h11.17v-.27q-.54-3.4-2.72-4.5a4.38,4.38,0,0,0-2.18-.54Z"/><path class="cls-4" d="M431.41,604.53c-5.09-21.28-9.12-38.2-9.91-53.93.69-4.48,1.24-8.73,1.76-12.85.56-4.38,1.09-8.51,1.7-12l.24-1.31.2-1c.1-.51.21-1,.32-1.48l.11-.44c.12-.51.26-1,.41-1.49l.08-.29c.12-.37.25-.72.37-1l.05-.12c21.35-16.69,31-38.08,26.53-59a47.58,47.58,0,0,0-3.54-10.44C380.83,422.43,315.61,389.35,286,416c-35.72,32.14-18.5,175.49,129.44,251.14.81-.66,1.59-1.34,2.34-2C435.83,648.14,439.56,638.69,431.41,604.53Z"/><ellipse class="cls-5" cx="336.07" cy="742.2" rx="185.7" ry="45.31"/><path class="cls-6" d="M410.58,532.34c-2.38,23.6,2.16,43.12,9.73,74.84s3.5,36.6-10.37,49.61-38.09,14.64-38.09,14.64V556.76Z"/><polygon class="cls-7" points="388.93 580.56 388.93 656.46 353.92 658.3 336.75 593.06 388.93 580.56"/><polygon class="cls-8" points="388.93 636.4 376.44 640.19 376.44 602.59 388.93 591.91 388.93 636.4"/><polygon class="cls-9" points="274.13 655.75 315.47 654.95 334.76 593.06 274.13 570.18 274.13 655.75"/><polygon class="cls-10" points="315.47 654.95 334.29 594.56 334.57 592.99 333.47 592.58 315.47 601.81 303.69 655.18 315.47 654.95"/><path class="cls-11" d="M415,434.42c27.26,6.06,44.67,45.44,3,76.49-12.87,16.66,5.65,105.26-77.24,105.26-83.32,0-102.06-67.5-106-113.59-4.19-48.82-1.78-111.36,4-126.18,7.27-18.81,75.93-41.4,110.33-47.27,36.67-6.26,73.41-5.87,37.17,19C409,360.21,418,393.53,415,434.42Z"/><path class="cls-10" d="M415,434.42c2.45-33.1-3-61.24-17.29-77.19C415,385,411.2,428.16,396.44,444.06c18.93-.38,25,15.52,21.95,26.88-2.47,9.27-42.15,27.72-32.94,47.33,11.74,25,9.47,68.91-21.34,95C420,597.9,406.55,525.78,418,510.91,459.69,479.86,442.28,440.48,415,434.42Z"/><path class="cls-12" d="M360.82,382.51a15.76,15.76,0,0,1,7.85-3.41,18.73,18.73,0,0,1,8.75.88,20.85,20.85,0,0,1,7.46,4.52,17.4,17.4,0,0,1,4.71,7.1A66.57,66.57,0,0,0,383,387a37.75,37.75,0,0,0-6.85-3.23,29,29,0,0,0-7.31-1.53A42.56,42.56,0,0,0,360.82,382.51Z"/><path class="cls-13" d="M284.56,466.69c-19.29,19.92-6.28,69.84,66.23,62.64s80.18-63.35,69-72.71-41.14,18-63.45,17.27S299.89,450.86,284.56,466.69Z"/><path class="cls-14" d="M288.16,465.43c-18.37,18.37-6,64.43,63.1,57.79s76.39-58.45,65.76-67.09-39.19,16.61-60.44,15.94S302.77,450.82,288.16,465.43Z"/><path class="cls-15" d="M315.39,492a28.46,28.46,0,0,0-25.26,15.5c9.61,10.09,26.84,17.36,53.51,16.23a29.84,29.84,0,0,0,.32-3.17A28.57,28.57,0,0,0,315.39,492Z"/><path class="cls-16" d="M393.24,428.23A21,21,0,1,0,371,448,21.05,21.05,0,0,0,393.24,428.23Z"/><path class="cls-17" d="M357.07,426.46A16.92,16.92,0,1,1,375,442.32,16.92,16.92,0,0,1,357.07,426.46Z"/><path class="cls-18" d="M364.18,416.78a8.46,8.46,0,0,1,11.94-.73c3.5,3.11-7.72,15.77-11.21,12.68A8.47,8.47,0,0,1,364.18,416.78Z"/><path class="cls-19" d="M348,428a24.52,24.52,0,1,0-26,23A24.51,24.51,0,0,0,348,428Z"/><path class="cls-20" d="M305.52,425.9a20.1,20.1,0,1,1,21.28,18.85A20.08,20.08,0,0,1,305.52,425.9Z"/><path class="cls-18" d="M314.05,414.48a10,10,0,0,1,14.18-.87c4.16,3.67-9.17,18.72-13.32,15A10,10,0,0,1,314.05,414.48Z"/><path class="cls-8" d="M274.13,632.93v16l43.05.51L322,634.14C307.18,632.24,287.55,632.45,274.13,632.93Z"/><path class="cls-8" d="M346.43,629.85l4.14,15.72,38.36.46V629.72C373.58,628.83,356.48,629.37,346.43,629.85Z"/><path class="cls-3" d="M346.72,735a8.86,8.86,0,1,1,9.36,8.33A8.85,8.85,0,0,1,346.72,735Z"/><path class="cls-3" d="M371.92,737.07a8.87,8.87,0,1,1,9.37,8.32A8.88,8.88,0,0,1,371.92,737.07Z"/><path class="cls-3" d="M397.13,739.14a8.87,8.87,0,1,1,9.37,8.32A8.86,8.86,0,0,1,397.13,739.14Z"/><path class="cls-21" d="M340.26,730.93c0,5.32,75,14.69,79.88,6.85s-23.06-14.62-35.55-15.67S340.31,724.26,340.26,730.93Z"/><path class="cls-10" d="M420.6,735.26c-1.52-6.72-24.88-12.22-36-13.15-11.69-1-40.26,1.76-43.93,7.58Z"/><path class="cls-22" d="M347.72,644.08l45.21-2.3s2,28.75,3.36,42.42c8.91,4.46,27,18.57,29.86,22.4,3.09,4.14-1,21-1,21s-83-1.48-86-4.75S347.72,644.08,347.72,644.08Z"/><path class="cls-23" d="M345.22,636.9c-1.32,2.48-.85,18.14.14,19.09s49.2,2,50.7-.83,1.29-18.17-.69-20.1S346.72,634.11,345.22,636.9Z"/><path class="cls-24" d="M343.63,661s43.84,1.85,52.52-.36c2.78,5.51,2.17,21.6,2.17,21.6s-17-5.42-26.55,1.78-14.15,27.7-26.46,24.92-7.5-17.07-6.93-20.24,7.28-3,7.28-3l1.9-12.21-6.4-1.59Z"/><path class="cls-22" d="M346.72,691.84c-6.75-.66-9.65,10.32-1.45,12.18C349.78,705,352.09,692.37,346.72,691.84Z"/><path class="cls-25" d="M403.66,686.58s-20.38,5.61-23.07,9.89S395.06,716.4,399,716s23.11-13.89,22.41-16.5S407.23,686.67,403.66,686.58Z"/><path class="cls-26" d="M427.7,708.67s-12,4.77-14.51,15.26c-12.21-1.89-76.83-6.54-76.83-6.54l1.24,7.88,88.65,4.48S431.76,713.61,427.7,708.67Z"/><path class="cls-3" d="M320.63,744.13a9.36,9.36,0,1,0-9.93,8.76A9.36,9.36,0,0,0,320.63,744.13Z"/><path class="cls-3" d="M294,746.22a9.36,9.36,0,1,0-9.93,8.75A9.36,9.36,0,0,0,294,746.22Z"/><path class="cls-3" d="M267.39,748.31a9.36,9.36,0,1,0-9.93,8.75A9.36,9.36,0,0,0,267.39,748.31Z"/><path class="cls-27" d="M327.46,739.87c0,5.61-79.25,15.2-84.36,6.91s24.4-15.35,37.6-16.4S327.43,732.83,327.46,739.87Z"/><path class="cls-10" d="M242.89,743.34l82.32-6.5c-7.62-4.91-32.56-7.27-44-6.49l-4.88.51C264.27,732.53,245.69,737.38,242.89,743.34Z"/><path class="cls-22" d="M319.92,648.15l-47.71-2.62s-2.22,30.35-3.72,44.78c-9.43,4.67-28.59,19.5-31.62,23.52-3.28,4.37,1,22.22,1,22.22s87.64-1.23,90.82-4.66S319.92,648.15,319.92,648.15Z"/><path class="cls-28" d="M322.59,640.58c1.39,2.62.84,19.15-.21,20.15s-51.95,1.89-53.53-1.08-1.29-19.19.8-21.21S321,637.62,322.59,640.58Z"/><path class="cls-29" d="M324.18,666s-46.28,1.78-55.45-.59c-3,5.81-2.37,22.81-2.37,22.81s18-5.66,28,2,14.83,29.29,27.83,26.41,8-18,7.4-21.34-7.67-3.15-7.67-3.15L320,679.2l6.75-1.65Z"/><path class="cls-22" d="M320.79,698.58c7.13-.67,10.16,10.94,1.49,12.85C317.51,712.5,315.12,699.11,320.79,698.58Z"/><path class="cls-30" d="M260.7,692.8s21.49,6,24.31,10.52-15.35,21-19.54,20.55-24.34-14.76-23.59-17.51S256.93,692.87,260.7,692.8Z"/><path class="cls-31" d="M235.23,716s12.65,5.08,15.26,16.17c12.9-2,81.14-6.61,81.14-6.61l-1.34,8.33-93.61,4.37S230.93,721.22,235.23,716Z"/><path class="cls-32" d="M331.63,725.58l-2.45.17c-.08-3.19-.39-7.51-.87-12.52,4.9-5.52,1.76-15.34,1.3-18-.28-1.54-1.92-2.31-3.61-2.72-.6-4.82-1.23-9.69-1.85-14.35l2.59-.64L324.18,666l-1.69.07c-.25-1.82-.49-3.56-.72-5.17a1.76,1.76,0,0,0,.61-.16c1.05-1,1.6-17.53.21-20.15-.54-1-6.79-1.84-14.82-2.38l-1.91,24.86s12.59,52.86,9.23,70.47c5.87,5.88.45,13.53-4.39,19.36a9.37,9.37,0,0,0,9.93-8.76c0-.33,0-.64,0-1,4.26-1.15,6.87-2.29,6.87-3.3,0-2.17-3.19-4-8-5.46l10.8-.5Z"/><path class="cls-32" d="M420.14,737.78c2-3.17-1.44-6.17-7-8.69l13.13.66s5.51-16.14,1.45-21.08L427,709a5.68,5.68,0,0,0-.89-2.36,42.67,42.67,0,0,0-5.6-5.32c.63-.77,1-1.4.89-1.78-.71-2.6-14.21-12.83-17.78-12.92l-2.17.63c-1.91-1.21-3.69-2.26-5.2-3-.08-.81-.16-1.68-.25-2.59,1.41.34,2.28.6,2.28.6s.61-16.09-2.17-21.6c-.49.12-1.11.23-1.82.34-.13-1.73-.26-3.39-.37-5,1.17-.22,1.93-.48,2.1-.79,1.49-2.8,1.29-18.17-.69-20.1-.77-.75-8.49-1.06-17.65-1,.69,12.18,1.38,35.57-2.22,50,22.65,5.88,32.72,30.21,24.33,42.79,3.85,2.57,7.18,11,1,19a8.72,8.72,0,0,0,5.65,1.64,8.84,8.84,0,0,0,8.21-7.42C417.54,739.56,419.49,738.83,420.14,737.78Z"/><path class="cls-32" d="M251.42,534.57C285.5,572.8,289.66,609,290,625.66s-12.12,40.67-28.78,41.08S251.42,534.57,251.42,534.57Z"/><path class="cls-33" d="M233.43,473.83c-.16,57.72,3.06,100-.06,106.51s-21.3,15.45-24.33,25.22,8.28,32.53,12.85,48.79c-12.09,0-22.69,2.44-22.69,14.64s19.69,14.64,28.77,7.32c8.33,8.14,19.69,4.07,27.26-3.25,10.6,9.76,23.48-11.38,22.72-51.24s-12.87-69.94-28-93.53"/><path class="cls-3" d="M594.89,439.89a16.92,16.92,0,1,0-15.29,18.42A16.92,16.92,0,0,0,594.89,439.89Z"/><path class="cls-3" d="M645.74,431.46a20.1,20.1,0,1,0-18.14,21.88A20.08,20.08,0,0,0,645.74,431.46Z"/></g></g></svg>