<svg id="Capa_1" data-name="Capa 1" xmlns="http://www.w3.org/2000/svg" xmlns:xlink="http://www.w3.org/1999/xlink" viewBox="0 0 1080 1080"><defs><style>.cls-1{fill:#f8e6ad;}.cls-2,.cls-4{fill:#61454d;}.cls-2{opacity:0.2;}.cls-3{fill:url(#linear-gradient);}.cls-5{fill:url(#linear-gradient-2);}.cls-6{fill:#ebbd64;stroke:#61454d;stroke-linecap:round;stroke-linejoin:round;stroke-width:7px;}</style><linearGradient id="linear-gradient" x1="390.69" y1="273.6" x2="471.4" y2="293.59" gradientUnits="userSpaceOnUse"><stop offset="0" stop-color="#f5ddb0"/><stop offset="1" stop-color="#ebbd64"/></linearGradient><linearGradient id="linear-gradient-2" x1="245.99" y1="477.56" x2="500.38" y2="540.57" xlink:href="#linear-gradient"/></defs><rect class="cls-1" width="1080" height="1080"/><path class="cls-2" d="M496.91,554.8s50.44-129.21,46.7-132.7c-4-3.75-89.65,48.34-89.65,48.34s8-138.83,1.44-142.31c-5.07-2.71-87.14,107.13-87.14,107.13s-12.51-80.55-18.69-81S297,474.56,297,474.56c-8.53-1.54-17.14,3.67-20.12,12.75a20.08,20.08,0,0,0,5.33,21.06l-47,107.5s23.41,47.34,86.31,74.42c70.85,30.49,122.94,13.51,122.94,13.51L481,600.07c10.92,2.22,22.11-4.39,25.93-16.07C510.62,572.67,506.18,560.51,496.91,554.8Z"/><path class="cls-3" d="M413.42,278.91a19.84,19.84,0,1,1,14.11,24.25A19.84,19.84,0,0,1,413.42,278.91Z"/><path class="cls-4" d="M412.61,278.61c3.38-10.08,14.16-17.68,25.47-15.1a21.56,21.56,0,0,1,13.73,9.29,22.11,22.11,0,0,1,3,17.22,22.42,22.42,0,0,1-10.51,14.11,21.66,21.66,0,0,1-17.57,1.92C415,302.53,408.9,289,412.59,278.69Zm1.64.53A18.19,18.19,0,0,0,417.08,293a18,18,0,0,0,11.23,7.26,17.79,17.79,0,0,0,20.41-12.2c2.83-8-1.84-18.95-11.46-22a18.8,18.8,0,0,0-14.34,1.25A16.89,16.89,0,0,0,414.25,279.14Z"/><path class="cls-5" d="M486.49,544.48S531.13,408.3,526.72,405c-4.72-3.52-94.57,56.49-94.57,56.49s-2.92-142.72-10.39-145.76C416,313.38,334.89,432.2,334.89,432.2s-20.53-81.45-27.38-81.45S259.76,478,259.76,478a19.77,19.77,0,0,0-13.43,35.76l-42.67,113.7s29.74,46.62,101.22,69.41c80.52,25.67,136.42,4.21,136.42,4.21l31.46-109a25.1,25.1,0,0,0,13.73-47.59Z"/><path class="cls-4" d="M228.15,630.36s43.93-19.59,105.9-3.5C401.44,644.36,426,689,426,689s-38.22,13.71-108.53-4.38C246.63,666.41,228.15,630.36,228.15,630.36Z"/><path class="cls-4" d="M228.15,630.36s43.93-19.59,105.9-3.5C401.44,644.36,426,689,426,689s-38.22,13.71-108.53-4.38C246.63,666.41,228.15,630.36,228.15,630.36Z"/><path class="cls-4" d="M530.28,404.39a3.31,3.31,0,0,0-.49-1.09,4.26,4.26,0,0,0-.59-.74l-.34-.31c-1.39-.85-.41-.25-.74-.44l-.23-.1a5.45,5.45,0,0,0-1.19-.29,4.92,4.92,0,0,0-1.44,0,7.07,7.07,0,0,0-.81.15c-.51.11-.87.23-1.29.36a35.81,35.81,0,0,0-4.09,1.67c-2.54,1.18-4.94,2.46-7.32,3.75-9.48,5.21-18.59,10.8-27.69,16.44-16.37,10.21-32.51,20.71-48.59,31.34-.54-22.29-1.25-44.56-2.28-66.85-.58-12.19-1.23-24.38-2.14-36.58-.46-6.1-1-12.2-1.66-18.33-.36-3.07-.74-6.13-1.26-9.24-.28-1.55-.55-3.11-.95-4.72-.19-.81-.41-1.64-.71-2.52a9,9,0,0,0-1.82-3.31,5.13,5.13,0,0,0-.9-.71l-.53-.31a11.34,11.34,0,0,0-1.11-.3H422a3.74,3.74,0,0,0-.54,0,5.14,5.14,0,0,0-1.5.26,7.54,7.54,0,0,0-1.95,1.11,22.11,22.11,0,0,0-2.07,1.81c-1.2,1.17-2.27,2.33-3.32,3.51-2.07,2.36-4,4.74-6,7.14-3.86,4.8-7.56,9.67-11.24,14.56-7.33,9.78-14.48,19.67-21.58,29.6-12.74,17.84-25.22,35.84-37.64,53.9-4.33-15.56-8.83-31.06-13.93-46.44-3.16-8.86-5.67-17.63-10.84-26.32a9.9,9.9,0,0,0-1.47-1.71,4.55,4.55,0,0,0-1.5-.9,5,5,0,0,0-.67-.13l-.16,0c-.28,0,.37-.07-.66.05l-.11,0a3,3,0,0,0-.79.32,6.1,6.1,0,0,0-2,2c-.38.56-.71,1.11-1,1.64A70.85,70.85,0,0,0,300,359.1c-1.88,4.31-3.57,8.65-5.23,13-6.54,17.45-12.39,35.09-18.18,52.75-5.23,16.06-4.07,16.43,1.66.57,6.33-17.45,12.73-34.9,19.78-52,1.78-4.27,3.59-8.53,5.55-12.67,1-2.05,2-4.12,3.14-6,.28-.46.57-.9.86-1.3h0a4.64,4.64,0,0,1,.31.4c4.13,7.43,6.71,16.76,9.45,25.44C322.57,397,327.15,415,331.47,433l0,.06a3.51,3.51,0,0,0,6.29,1.12q20.61-30.12,41.8-59.88c7.07-9.89,14.2-19.75,21.49-29.46,3.63-4.85,7.31-9.67,11.09-14.37,1.88-2.35,3.8-4.67,5.75-6.89.81-.9,1.63-1.77,2.45-2.6a.32.32,0,0,0,0,.09c.33,1.34.59,2.79.83,4.23.48,2.91.86,5.88,1.21,8.87.67,6,1.18,12,1.64,18.07.9,12.09,1.55,24.23,2.13,36.38q1.68,36.45,2.45,73a3.43,3.43,0,0,0,.58,1.86,3.5,3.5,0,0,0,4.86,1c17.74-11.78,35.62-23.41,53.67-34.68,9-5.6,18.12-11.17,27.34-16.23,2.3-1.26,4.62-2.48,6.92-3.55.38-.18.73-.29,1.11-.46-.59,3.67-1.69,7.88-2.62,11.7-5.34,20.5-11.65,40.91-17.92,61.26s-12.82,40.67-19.43,60.93a3.5,3.5,0,0,0,1.81,4.25,21.72,21.72,0,0,1,10.4,10.65,21.5,21.5,0,0,1,1.06,14.82,21.24,21.24,0,0,1-8.75,12,21.8,21.8,0,0,1-14.48,3.49h0a3.62,3.62,0,0,0-3.77,2.51L436.46,696.28a157.68,157.68,0,0,1-28,6,217.65,217.65,0,0,1-32,1.67,253.57,253.57,0,0,1-63.62-9.65A221.47,221.47,0,0,1,254,668.48c-17.57-11.17-34.07-25.14-46.34-41.59L249.6,515v0l.15-.5a3.12,3.12,0,0,0-1.38-3.57,17.12,17.12,0,0,1-7-8.25,17.47,17.47,0,0,1-.49-11.31,18.54,18.54,0,0,1,10.87-11.84c1-.4.9-1.37-.1-1.12a20.82,20.82,0,0,0-14,11.74,21.81,21.81,0,0,0-1.25,14.07,23.1,23.1,0,0,0,5.85,10.44L200.39,626.24a3.51,3.51,0,0,0,.32,3.11l0,.07c13.11,18.79,30.08,33.58,48.72,46a230.37,230.37,0,0,0,60.69,28.05,263.35,263.35,0,0,0,66,11.31,228.73,228.73,0,0,0,33.7-1.1c9.12-1.06,18.35-1.78,27.46-5.87,8.76-3.94,11.21-10.42,11.21-10.42l26.91-101.78a28.75,28.75,0,0,0,16.11-4.68A28.42,28.42,0,0,0,503.17,575a28.38,28.38,0,0,0-12.51-32.14q9.49-29.13,18.61-58.36c6.29-20.42,12.6-40.8,18-61.61,1.25-5.38,2.74-10.09,3.22-16.51A6.85,6.85,0,0,0,530.28,404.39Z"/><path class="cls-2" d="M432.15,461.51s-2.64-128.8-9.31-144.22l-3,1.5-4.66,147s11.09,6.42,27.91-11.54C436.39,458.68,432.15,461.51,432.15,461.51Z"/><path class="cls-2" d="M525.42,406.9S469.3,543,475.24,546.34c13.43,7.59,9.93,30.93-8.89,31.95-3.6.19-22.07,53.07-34.28,91.16-21.58-21-46.09-40.84-100.94-52.51-69.88-14.87-112.91,11-112.91,11s22.12,43,101.43,62.08c49.91,12,41.83,13.88,41.83,19.13,35.58,4.67,79.82-8,79.82-8l31.46-109a25.1,25.1,0,0,0,13.73-47.59S516.57,452.7,524.9,418Z"/><path class="cls-6" d="M306.23,676.12A39.67,39.67,0,1,1,334.3,724.7,39.69,39.69,0,0,1,306.23,676.12Z"/><path class="cls-2" d="M382.88,696.63a39.65,39.65,0,0,0-72.67-30c38-17,62,19.38,61.88,22.29-.07,2.41-2.44,35.32-39.34,35.33C355.14,731.77,377.23,717.8,382.88,696.63Z"/><path class="cls-2" d="M451.81,272.8a21.14,21.14,0,0,0-6.21-6.18c4.43,19.52-8.15,34.16-30,30.73l-.15.12a20.88,20.88,0,0,0,11.33,8.58,21.66,21.66,0,0,0,17.57-1.92A22.42,22.42,0,0,0,454.85,290,22.11,22.11,0,0,0,451.81,272.8Z"/><path class="cls-4" d="M656.77,513.52q-11.06,7.54-28.21,7.54-16.65,0-28.29-9.69-12.56-10.56-12.57-28,0-18.37,12.57-29.58,12.06-10.69,31.23-10.7a46.75,46.75,0,0,1,15.73,2.37q4.59,1.65,4.59,4.1a2.3,2.3,0,0,1-.37,1.5l-5.09,9.55-5.25-2.94q-11-6-18.73-6-9,0-13.92,8.61a32.19,32.19,0,0,0-4.17,16.08,52,52,0,0,0,1.87,14.87A29.88,29.88,0,0,0,611.9,502q8.34,9.84,23.69,9.84a64.78,64.78,0,0,0,18.82-3.09Z"/><path class="cls-4" d="M746,482.22a40.44,40.44,0,0,1-3,15.94,36.2,36.2,0,0,1-8.43,12.28q-11.14,10.62-27.86,10.62-16.95,0-28.07-10.7-11.49-11.06-11.49-28.14,0-17.3,11.49-28.43,11.11-10.69,28.07-10.7,16.8,0,27.92,10.7Q746,464.85,746,482.22Zm-61.16-.14q0,22,11,28.72,4.17,2.58,10.74,2.58a20.36,20.36,0,0,0,10.78-2.58,19.07,19.07,0,0,0,6.63-6.9q4.25-7.75,4.24-21.82,0-22.05-10.85-28.72a23.81,23.81,0,0,0-21.56,0,19.37,19.37,0,0,0-6.72,6.89Q684.85,467.93,684.85,482.08Z"/><path class="cls-4" d="M875.53,444q4.31,0,4.3,7.32,0,10.2-9,33A244.64,244.64,0,0,1,854.34,519h-7.46q-5.67,0-8-5.46l-13.35-35.39q-2.16,6.67-4.31,12-8.32,21-12.92,28.86h-7.47c-3.79,0-6.48-1.82-8.11-5.46L770.14,457l-10.63,4.67L756.86,457l4.3-3.73q10.49-9.2,18.23-9.19c2.49,0,4.27,1.41,5.32,4.23,0,.1.39,1,1,2.66l16.88,46.38c2.33,6.17,3.73,9.38,4.15,9.62.1-.19.44-1.05,1-2.59l4.82-13.92q5.94-19,7.38-26.14l-5.88-14.57a21.08,21.08,0,0,1,7.07-4.52,17.09,17.09,0,0,1,5-1.15c2.53,0,4.35,1.31,5.46,4q17.08,49.53,18.95,54.13t2.23,4.81a137.86,137.86,0,0,0,11.05-33.24A56.76,56.76,0,0,0,865,463a28.3,28.3,0,0,0-3.23-13.14l7-3.51,1.52-.72A13,13,0,0,1,875.53,444Z"/><path class="cls-4" d="M776.71,547a13.61,13.61,0,0,0,1.88-7.06,11.83,11.83,0,0,0-.56-3.73l3.66-1.61a3.77,3.77,0,0,1,1.62-.38,1.66,1.66,0,0,1,1.41.86,3.8,3.8,0,0,1,.57,2.18,11,11,0,0,1-.39,2.78,16.65,16.65,0,0,1-1.19,3.09,27.44,27.44,0,0,1-4.6,6.65q4,4.54,5.1,5.45c-1.21,1.56-2.48,2.35-3.81,2.35a5.1,5.1,0,0,1-3.81-2.17l-1.67-2a17.86,17.86,0,0,1-11.1,4.14,16.19,16.19,0,0,1-10-2.91,10.43,10.43,0,0,1-4.22-8.79q0-5.45,5.89-9.23c1.16-.74,2.37-1.45,3.64-2.14l-2.7-3.22a11,11,0,0,1-2.81-7,9.22,9.22,0,0,1,3.69-7.33,12.64,12.64,0,0,1,8.35-3,10.94,10.94,0,0,1,7.74,2.64,9,9,0,0,1,2.84,7c0,3.4-2,6.36-5.92,8.85q-1.79,1.13-3.87,2.26Zm-3.84,4-11.28-13.51a23.42,23.42,0,0,0-4.34,3.46,7.31,7.31,0,0,0-2.08,4.56,7.6,7.6,0,0,0,2.87,6.2,10.25,10.25,0,0,0,6.73,2.11A13.73,13.73,0,0,0,772.87,550.94Zm-8.77-19c1.63-.91,2.79-1.6,3.48-2.06a10.94,10.94,0,0,0,2-1.72,6.94,6.94,0,0,0,2.14-4.89,5.55,5.55,0,0,0-1.88-4.19,6.4,6.4,0,0,0-4.54-1.76,7,7,0,0,0-4.63,1.67,5.49,5.49,0,0,0-2.14,4.4,5.25,5.25,0,0,0,1,3,28.9,28.9,0,0,0,2.07,2.72Z"/><path class="cls-4" d="M563.37,648.13q-8.32,0-8.33-6.89V545.11h-12.7v-5.46q6.88-2.94,23.11-2.94a13.68,13.68,0,0,1,4.46.43c1.15.52,1.72,1.65,1.72,3.37v84.72a86.89,86.89,0,0,0,2.08,20.6A20.69,20.69,0,0,1,563.37,648.13Zm49.18-77a4.31,4.31,0,0,1,3.59,1.55,6,6,0,0,1,1.22,3.8,10.17,10.17,0,0,1-1.4,4.85,29.25,29.25,0,0,1-3.73,5.28,65.61,65.61,0,0,1-5.32,5.42q-3,2.73-6.21,5.31l-11.84,9.12,22.76,29.07,10.62-6.89,2.87,4.38a31.23,31.23,0,0,1-9,10q-6.6,5.1-11.63,5.1a7.35,7.35,0,0,1-6.17-3.38L574.72,614.6a3.77,3.77,0,0,1-1-2.37,4.59,4.59,0,0,1,1.55-3.55c1-.94,2.33-2,3.91-3.34l5-4.24q14.79-13,14.78-20.6a9.08,9.08,0,0,0-.57-3.37q3.66-1.8,5.89-3l3.52-1.86A10.14,10.14,0,0,1,612.55,571.09Z"/><path class="cls-4" d="M662.73,639.66h12.5V645q-5.82,3.09-18.81,3.09-7.53,0-9.55-3.3a7.1,7.1,0,0,1-.79-3.59V580.36H633.44V575q6.9-2.94,23.13-2.94a13.57,13.57,0,0,1,4.44.43c1.15.53,1.72,1.65,1.72,3.37Zm-18.38-91.32a9.2,9.2,0,0,1,2.94-6.9,10.61,10.61,0,0,1,14.36,0,9.14,9.14,0,0,1,3,6.9,8.94,8.94,0,0,1-3,6.74,10.61,10.61,0,0,1-14.36,0A9,9,0,0,1,644.35,548.34Z"/><path class="cls-4" d="M705.88,648.13q-8.4,0-8.4-6.89V580.5H684.85v-5.38q6.89-3,23.12-3a13.78,13.78,0,0,1,4.44.43c1.15.53,1.73,1.65,1.73,3.38v3.51a41.94,41.94,0,0,0,4-1.72c1.93-.91,4.29-1.86,7.07-2.87q10.83-3.81,18.16-3.81t11.2,1.73a14.2,14.2,0,0,1,6,4.81q3.64,5.16,3.66,16.29v45.74h12.49V645c-3.87,2.06-10.15,3.09-18.8,3.09q-5,0-6.89-1a6.23,6.23,0,0,1-3.38-5.88V595.36c0-5.12-.51-8.42-1.51-9.91a7.65,7.65,0,0,0-3.48-3,12.69,12.69,0,0,0-4.53-.75,42,42,0,0,0-4.95.29c-1.6.19-3.26.44-5,.75s-3.35.64-5,1l-4.42.93q-3.45.87-4.74,1.3v39.27q0,11.13.86,15.36l1.15,5.24A20.52,20.52,0,0,1,705.88,648.13Z"/><path class="cls-4" d="M811.35,624.22q-5.88,3.09-5.89,6.14A5,5,0,0,0,808,635a21.21,21.21,0,0,0,6.75,2.4,81.14,81.14,0,0,0,9.58,1.29q5.38.44,11,1.08t10.94,1.72a37.64,37.64,0,0,1,9.62,3.23q9.25,4.89,9.26,14.79,0,10.92-11.77,17.09-10.64,5.6-26.14,5.6A78,78,0,0,1,798.5,677q-8.41-3.37-11.85-7.61a6.37,6.37,0,0,1-1.8-3.84,4,4,0,0,1,.77-2.62,8.39,8.39,0,0,1,2.32-1.87,59.65,59.65,0,0,1,10.34-4.52q11.13,16.8,31,16.8,13,0,18.38-5.53a7.22,7.22,0,0,0,2.16-5.31,5.47,5.47,0,0,0-2.4-4.81,21.07,21.07,0,0,0-6.32-2.73,64.82,64.82,0,0,0-9-1.72c-3.35-.43-6.76-.91-10.26-1.44s-6.91-1.17-10.26-1.94a37.06,37.06,0,0,1-8.9-3.16Q794,642.31,794,633.91q0-6.75,7.4-10.55l3.66-1.94q-13.57-7.68-13.58-22.83a24.12,24.12,0,0,1,9.77-20.1q9.56-7.4,24.2-7.4a43,43,0,0,1,16.51,3,29.67,29.67,0,0,1,11.92,8.59l4.23-5.32c3.12-3.78,5.48-6.15,7.11-7.1a15.56,15.56,0,0,1,7.9-2.16,7.15,7.15,0,0,1,6,2.59,3.22,3.22,0,0,1,.71,2.15v9.69q-11.19,0-14,.65a16.5,16.5,0,0,0-8.75,4.95,27.37,27.37,0,0,1,2.3,11.09,23.52,23.52,0,0,1-2.59,10.91,26,26,0,0,1-7.11,8.66q-9.39,7.39-24.26,7.39A47.18,47.18,0,0,1,811.35,624.22Zm31.15-25.63q0-20.25-17-20.24T808.4,598.59q0,9.61,4.17,15t12.85,5.42q8.69,0,12.88-5.42T842.5,598.59Z"/><path class="cls-4" d="M515.3,708.2,513.37,711a5.84,5.84,0,0,0-2.1-1.13,9,9,0,0,0-3-.53,6.23,6.23,0,0,0-5,2.22,9.18,9.18,0,0,0-1.87,6.11,8.2,8.2,0,0,0,1.91,5.87,6.9,6.9,0,0,0,5.29,2,8.7,8.7,0,0,0,5.29-2l1.54,3.28a14,14,0,0,1-7.78,2,9.91,9.91,0,0,1-7.42-3,11.18,11.18,0,0,1-2.93-8.16,11.66,11.66,0,0,1,3-8.43,11.66,11.66,0,0,1,12-2.47A10.43,10.43,0,0,1,515.3,708.2Z"/><path class="cls-4" d="M538,717.78H522.19a7.93,7.93,0,0,0,2.11,5.93,6.65,6.65,0,0,0,4.8,1.8,8.18,8.18,0,0,0,5.58-2l1.64,2.81a7.08,7.08,0,0,1-2.77,1.56,14.83,14.83,0,0,1-5.21.87,9.68,9.68,0,0,1-7-2.82,11,11,0,0,1-3.22-8.32,11.75,11.75,0,0,1,3.3-8.72,9.57,9.57,0,0,1,7-2.93,10,10,0,0,1,7.37,2.64,9.07,9.07,0,0,1,2.58,6.75A8.52,8.52,0,0,1,538,717.78Zm-9.45-8.49a6.16,6.16,0,0,0-6.28,5.66h12.16A5.56,5.56,0,0,0,533,711,5.75,5.75,0,0,0,528.57,709.29Z"/><path class="cls-4" d="M556,728.38V715.61q0-3.51-1.05-4.92a4.15,4.15,0,0,0-3.54-1.4,5.72,5.72,0,0,0-2.79.8,6.2,6.2,0,0,0-2.24,2v16.32h-3.9v-22h2.67l1.23,2.83q1.93-3.24,6.3-3.24,7.22,0,7.22,8.78v13.59Z"/><path class="cls-4" d="M566.78,709.49h-2.54v-3.07h2.54v-4.6l3.9-1.5v6.1h6v3.07h-6v10.92a6.33,6.33,0,0,0,.94,3.93,3.59,3.59,0,0,0,3,1.17,7.1,7.1,0,0,0,3.09-.76l.58,3.43a21.55,21.55,0,0,1-5.31.62,5.74,5.74,0,0,1-4.4-1.95,6.9,6.9,0,0,1-1.8-4.89Z"/><path class="cls-4" d="M594,710.17a4.45,4.45,0,0,0-2.56-.88,4.57,4.57,0,0,0-3.63,1.91,7.05,7.05,0,0,0-1.54,4.59v12.59h-3.9v-22h3.9v3.5a6.82,6.82,0,0,1,6.34-3.91,17.35,17.35,0,0,1,3,.37Z"/><path class="cls-4" d="M596.93,717.35a12,12,0,0,1,2.75-8.22,10.15,10.15,0,0,1,14.53-.12q2.6,3,2.6,8.34t-2.67,8.38a10.16,10.16,0,0,1-14.58,0A12.51,12.51,0,0,1,596.93,717.35Zm4.11,0q0,8.26,5.84,8.27a5,5,0,0,0,4.28-2.22,10.42,10.42,0,0,0,1.55-6q0-8.16-5.83-8.16a5,5,0,0,0-4.25,2.17A9.91,9.91,0,0,0,601,717.35Z"/><path class="cls-4" d="M647.5,728.36v-1.62a8,8,0,0,1-5.91,2,8.43,8.43,0,0,1-6.69-2.95,11.58,11.58,0,0,1-2.56-7.88,12.65,12.65,0,0,1,2.95-8.44,9,9,0,0,1,7-3.49,7.45,7.45,0,0,1,5.17,1.6v-10.2h3.89v31Zm0-16.86a4.63,4.63,0,0,0-4-2.21,6.28,6.28,0,0,0-5.08,2.34,9,9,0,0,0-1.94,5.94q0,7.95,7.22,7.94a5.71,5.71,0,0,0,2.22-.58,3.22,3.22,0,0,0,1.62-1.24Z"/><path class="cls-4" d="M675.48,717.78H659.64a8,8,0,0,0,2.11,5.93,6.65,6.65,0,0,0,4.8,1.8,8.18,8.18,0,0,0,5.58-2l1.64,2.81a7.08,7.08,0,0,1-2.77,1.56,14.79,14.79,0,0,1-5.21.87,9.7,9.7,0,0,1-7-2.82,11,11,0,0,1-3.22-8.32,11.75,11.75,0,0,1,3.3-8.72,9.58,9.58,0,0,1,7-2.93,10,10,0,0,1,7.36,2.64,9.07,9.07,0,0,1,2.58,6.75A8.91,8.91,0,0,1,675.48,717.78ZM666,709.29a6.16,6.16,0,0,0-6.28,5.66h12.17a5.57,5.57,0,0,0-1.48-3.94A5.75,5.75,0,0,0,666,709.29Z"/><path class="cls-4" d="M709.12,708.2,707.19,711a5.84,5.84,0,0,0-2.1-1.13,9,9,0,0,0-3-.53,6.23,6.23,0,0,0-5,2.22,9.18,9.18,0,0,0-1.87,6.11,8.2,8.2,0,0,0,1.91,5.87,6.9,6.9,0,0,0,5.29,2,8.7,8.7,0,0,0,5.29-2l1.54,3.28a14,14,0,0,1-7.77,2,9.93,9.93,0,0,1-7.43-3,11.18,11.18,0,0,1-2.93-8.16,11.7,11.7,0,0,1,3-8.43,11.66,11.66,0,0,1,12-2.47A10.43,10.43,0,0,1,709.12,708.2Z"/><path class="cls-4" d="M711.91,717.35a12,12,0,0,1,2.74-8.22,10.15,10.15,0,0,1,14.53-.12q2.6,3,2.6,8.34t-2.66,8.38a10.17,10.17,0,0,1-14.59,0A12.5,12.5,0,0,1,711.91,717.35Zm4.1,0q0,8.26,5.84,8.27a4.93,4.93,0,0,0,4.28-2.22,10.42,10.42,0,0,0,1.55-6q0-8.16-5.83-8.16a5,5,0,0,0-4.25,2.17A9.91,9.91,0,0,0,716,717.35Z"/><path class="cls-4" d="M756.19,728.8h-1l-6.44-15-6.42,15h-1l-7.86-22.45h4.17l4.69,14.42,5.85-14.42h1l6,14.42,5-14.42h3.84Z"/><path class="cls-4" d="M765.71,717.35a12,12,0,0,1,2.74-8.22A10.15,10.15,0,0,1,783,709q2.61,3,2.61,8.34t-2.67,8.38a10.16,10.16,0,0,1-14.58,0A12.45,12.45,0,0,1,765.71,717.35Zm4.1,0q0,8.26,5.85,8.27a5,5,0,0,0,4.28-2.22,10.5,10.5,0,0,0,1.54-6q0-8.16-5.82-8.16a5,5,0,0,0-4.25,2.17A9.91,9.91,0,0,0,769.81,717.35Z"/><path class="cls-4" d="M801.63,710.17a4.48,4.48,0,0,0-2.57-.88,4.54,4.54,0,0,0-3.62,1.91,7.06,7.06,0,0,0-1.55,4.59v12.59H790v-22h3.89v3.5a6.84,6.84,0,0,1,6.34-3.91,17.44,17.44,0,0,1,3,.37Z"/><path class="cls-4" d="M820.21,728.38l-6.89-11-3.41,3.51v7.48H806v-31h3.89v19.22l8.41-10.21h4.56l-7,8.34,8.6,13.62Z"/><path class="cls-4" d="M829.09,728.38V709.7h-3v-3.28H833v22Zm2.14-30.27a2.41,2.41,0,1,1,0,4.82,2.42,2.42,0,0,1-2.4-2.42,2.37,2.37,0,0,1,2.4-2.4Z"/><path class="cls-4" d="M852.7,728.38V715.61q0-3.51-1.05-4.92a4.15,4.15,0,0,0-3.54-1.4,5.72,5.72,0,0,0-2.79.8,6.2,6.2,0,0,0-2.24,2v16.32h-3.9v-22h2.67l1.23,2.83Q845,706,849.38,706q7.22,0,7.22,8.78v13.59Z"/><path class="cls-4" d="M861.34,734.39l2.11-3.11a11.57,11.57,0,0,0,6.28,2.27,8.18,8.18,0,0,0,4.18-.91,2.65,2.65,0,0,0,1.52-2.27q0-2.65-3.86-2.66a15.32,15.32,0,0,0-2.38.33,16,16,0,0,1-2.68.32q-4.68,0-4.68-3.52a2.51,2.51,0,0,1,1.09-2,6.9,6.9,0,0,1,2.73-1.27,8.31,8.31,0,0,1-2.24-13.3,8.25,8.25,0,0,1,5.93-2.29,8.41,8.41,0,0,1,5.06,1.33l2-2.34,2.55,2.4-2.34,1.76a8.13,8.13,0,0,1,1.5,5.09,7.94,7.94,0,0,1-2.08,5.58,8.14,8.14,0,0,1-5.43,2.59l-3.22.32a6.32,6.32,0,0,0-1.54.44c-.64.25-1,.59-1,1q0,.84,2,.84a18.58,18.58,0,0,0,2.74-.32,18.74,18.74,0,0,1,2.77-.32,7.58,7.58,0,0,1,5.06,1.55,5.35,5.35,0,0,1,1.81,4.3,5.68,5.68,0,0,1-2.72,4.9,11.83,11.83,0,0,1-6.88,1.87,14.58,14.58,0,0,1-4.49-.76A12.51,12.51,0,0,1,861.34,734.39Zm8.26-25.25a4.22,4.22,0,0,0-3.31,1.44,5,5,0,0,0-1.28,3.49,5.77,5.77,0,0,0,1.24,3.8,4.13,4.13,0,0,0,3.35,1.51,3.92,3.92,0,0,0,3.25-1.47,6,6,0,0,0,1.16-3.84,5.15,5.15,0,0,0-1.25-3.49A4,4,0,0,0,869.6,709.14Z"/></svg>