<svg id="Capa_1" data-name="Capa 1" xmlns="http://www.w3.org/2000/svg" xmlns:xlink="http://www.w3.org/1999/xlink" viewBox="0 0 1080 1080"><defs><style>.cls-1{fill:#86c9ef;}.cls-2{fill:#626164;}.cls-3{fill:url(#linear-gradient);}.cls-4{fill:url(#linear-gradient-2);}.cls-5{fill:url(#linear-gradient-3);}.cls-6{fill:url(#linear-gradient-4);}.cls-7{fill:url(#linear-gradient-5);}.cls-8{fill:url(#linear-gradient-6);}.cls-9{fill:url(#linear-gradient-7);}</style><linearGradient id="linear-gradient" x1="795.63" y1="272.46" x2="795.63" y2="587.96" gradientUnits="userSpaceOnUse"><stop offset="0" stop-color="#fff"/><stop offset="1" stop-color="#86c9ef"/></linearGradient><linearGradient id="linear-gradient-2" x1="817.87" y1="272.46" x2="817.87" y2="587.95" xlink:href="#linear-gradient"/><linearGradient id="linear-gradient-3" x1="417.26" y1="272.46" x2="417.26" y2="587.96" xlink:href="#linear-gradient"/><linearGradient id="linear-gradient-4" x1="621.01" y1="272.46" x2="621.01" y2="587.96" xlink:href="#linear-gradient"/><linearGradient id="linear-gradient-5" x1="503.6" y1="272.46" x2="503.6" y2="587.96" xlink:href="#linear-gradient"/><linearGradient id="linear-gradient-6" x1="740.76" y1="272.46" x2="740.76" y2="587.96" xlink:href="#linear-gradient"/><linearGradient id="linear-gradient-7" x1="298.17" y1="272.46" x2="298.17" y2="587.95" xlink:href="#linear-gradient"/></defs><rect class="cls-1" width="1080" height="1080"/><path class="cls-2" d="M331.16,665.4a9.07,9.07,0,0,1-7.5-3.52q-2.79-3.52-2.78-9.51a12.87,12.87,0,0,1,2.69-8.52,8.7,8.7,0,0,1,7-3.25,7.89,7.89,0,0,1,6.84,3.66l.3.44V632.54h3.95v32.22H338v-3.2l-.5.72A7.72,7.72,0,0,1,331.16,665.4Zm.22-21.25a5.59,5.59,0,0,0-4.85,2.12Q325,648.39,325,653a11.5,11.5,0,0,0,1.65,6.68,5.44,5.44,0,0,0,4.73,2.35,5.66,5.66,0,0,0,4.62-2.16,8.77,8.77,0,0,0,1.75-5.71q0-4.8-1.65-7.4A5.29,5.29,0,0,0,331.38,644.15Z"/><path class="cls-2" d="M358.49,632.54h4V637h-4Zm.05,8.76h3.94v23.46h-3.94Z"/><path class="cls-2" d="M393,648.1a4,4,0,0,0-1.59-3,6.17,6.17,0,0,0-3.8-1.07,6.76,6.76,0,0,0-3.74.86,2.79,2.79,0,0,0-1.28,2.49,2.15,2.15,0,0,0,.9,1.89,11.6,11.6,0,0,0,3.57,1.27l4.08,1a10.32,10.32,0,0,1,4.89,2.3,5.44,5.44,0,0,1,1.45,4.05,6.73,6.73,0,0,1-2.51,5.53,10.42,10.42,0,0,1-6.78,2q-5,0-7.39-2c-1.63-1.3-2.52-3.36-2.7-6.17h3.79a5,5,0,0,0,1.77,3.62,7.48,7.48,0,0,0,4.53,1.12,6.73,6.73,0,0,0,4-1,3.4,3.4,0,0,0,1.37-2.94,2.12,2.12,0,0,0-.9-1.86,11.53,11.53,0,0,0-3.61-1.27L385,654a9.66,9.66,0,0,1-4.71-2.21,5.33,5.33,0,0,1-1.41-4,6.41,6.41,0,0,1,2.36-5.25,9.76,9.76,0,0,1,6.38-1.94,9.92,9.92,0,0,1,6.52,2,7.15,7.15,0,0,1,2.58,5.5Z"/><path class="cls-2" d="M422.83,665.4a10,10,0,0,1-7.82-3.16c-1.91-2.11-2.85-5-2.85-8.73q0-5.91,3-9.41a10.16,10.16,0,0,1,8.1-3.5A9.16,9.16,0,0,1,430.7,644a13.63,13.63,0,0,1,2.83,9l0,1.4H416.35a10.1,10.1,0,0,0,1.6,5.35q1.67,2.24,5.26,2.24a6.41,6.41,0,0,0,3.94-1.27,5.19,5.19,0,0,0,2.06-3.25h3.9a9.89,9.89,0,0,1-3.5,5.89A10.83,10.83,0,0,1,422.83,665.4Zm6.59-14.17a8.74,8.74,0,0,0-1.63-5.08,5.63,5.63,0,0,0-4.69-2,6,6,0,0,0-5,2.33,8.74,8.74,0,0,0-1.78,4.77Z"/><path class="cls-2" d="M449.47,641.3h3.74v3.47l.88-1.16a8,8,0,0,1,14.51,5.08v16.07h-3.94V650a6.7,6.7,0,0,0-1.2-4.46,4.85,4.85,0,0,0-3.87-1.37,5.39,5.39,0,0,0-4.51,2.16,9.32,9.32,0,0,0-1.67,5.84v12.56h-3.94Zm1.93-3.7a7.56,7.56,0,0,1,1.55-3.75,4,4,0,0,1,3-1.12,7.4,7.4,0,0,1,1.73.29,10.58,10.58,0,0,1,1.93.68,6.81,6.81,0,0,0,1.41.48,6.33,6.33,0,0,0,1.42.2,1.75,1.75,0,0,0,1.28-.52,3,3,0,0,0,.73-1.48h2.17a7.74,7.74,0,0,1-1.6,3.75,3.87,3.87,0,0,1-3,1.12,7.49,7.49,0,0,1-1.59-.29,14.77,14.77,0,0,1-2.07-.68,11.26,11.26,0,0,0-1.55-.48,5.91,5.91,0,0,0-1.28-.2,1.79,1.79,0,0,0-1.29.52,2.79,2.79,0,0,0-.72,1.48Z"/><path class="cls-2" d="M487.33,662a14.9,14.9,0,0,1,0-18,10.83,10.83,0,0,1,15.8,0,14.94,14.94,0,0,1,0,18,10.83,10.83,0,0,1-15.8,0Zm12.84-2.42a12.6,12.6,0,0,0,0-13.11,6.23,6.23,0,0,0-9.9,0,12.65,12.65,0,0,0,0,13.11,6.24,6.24,0,0,0,9.9,0Z"/><path class="cls-2" d="M545.55,641.3h3.74v3.49l.82-1a8,8,0,0,1,6.33-3.14,6.76,6.76,0,0,1,5,1.87,5.82,5.82,0,0,1,1.29,1.9l.64-.81a7.77,7.77,0,0,1,6.07-3,7,7,0,0,1,7.7,7.7v16.46h-3.95V649.63a6.41,6.41,0,0,0-1.09-4,3.86,3.86,0,0,0-3.2-1.38,4.85,4.85,0,0,0-4.08,2,8.72,8.72,0,0,0-1.52,5.4v13.17h-3.94V648.69a4.92,4.92,0,0,0-1-3.34,3.61,3.61,0,0,0-2.9-1.15,5.15,5.15,0,0,0-4.31,2.23,9.36,9.36,0,0,0-1.68,5.77v12.56h-3.94Z"/><path class="cls-2" d="M598.25,656.43a6.47,6.47,0,0,0,1.14,4.27,4.71,4.71,0,0,0,3.7,1.3,5.35,5.35,0,0,0,4.52-2.21,9.64,9.64,0,0,0,1.66-6V641.3h4v23.46h-3.75v-3.57a10.26,10.26,0,0,1-.88,1.2,7.91,7.91,0,0,1-6.31,3q-4,0-6-2c-1.32-1.33-2-3.32-2-6V641.3h4Z"/><path class="cls-2" d="M643.79,648.1a4,4,0,0,0-1.59-3,6.17,6.17,0,0,0-3.8-1.07,6.74,6.74,0,0,0-3.74.86,2.79,2.79,0,0,0-1.28,2.49,2.17,2.17,0,0,0,.89,1.89,11.79,11.79,0,0,0,3.58,1.27l4.08,1a10.32,10.32,0,0,1,4.89,2.3,5.44,5.44,0,0,1,1.45,4.05,6.75,6.75,0,0,1-2.51,5.53,10.42,10.42,0,0,1-6.78,2q-5,0-7.39-2c-1.63-1.3-2.52-3.36-2.7-6.17h3.79a5,5,0,0,0,1.77,3.62A7.48,7.48,0,0,0,639,662a6.73,6.73,0,0,0,4-1,3.4,3.4,0,0,0,1.37-2.94,2.12,2.12,0,0,0-.9-1.86,11.63,11.63,0,0,0-3.61-1.27l-4.08-1a9.66,9.66,0,0,1-4.71-2.21,5.33,5.33,0,0,1-1.41-4,6.41,6.41,0,0,1,2.36-5.25,9.74,9.74,0,0,1,6.38-1.94,9.92,9.92,0,0,1,6.52,2,7.15,7.15,0,0,1,2.58,5.5Z"/><path class="cls-2" d="M664.12,632.54h4V637h-4Zm0,8.76h4v23.46h-4Z"/><path class="cls-2" d="M703.73,656.32a10.87,10.87,0,0,1-3.13,6.75,9.51,9.51,0,0,1-6.71,2.33,9.21,9.21,0,0,1-7.46-3.36q-2.77-3.35-2.78-9t2.89-9A10.77,10.77,0,0,1,701,642.91a8.76,8.76,0,0,1,2.7,6.37h-3.79a5.8,5.8,0,0,0-1.76-3.9,5.73,5.73,0,0,0-4-1.38,5.44,5.44,0,0,0-4.68,2.4,11.29,11.29,0,0,0-1.69,6.61q0,4.47,1.57,6.73a5.89,5.89,0,0,0,8.54.78,7.58,7.58,0,0,0,2.05-4.2Z"/><path class="cls-2" d="M725.09,665.4a7.81,7.81,0,0,1-5.47-1.85,6.39,6.39,0,0,1-2-5,6.72,6.72,0,0,1,1.89-5,9.33,9.33,0,0,1,5.54-2.33l5.37-.68a8,8,0,0,0,1.25-.21,2.09,2.09,0,0,0,1.19-.79,2.61,2.61,0,0,0,.41-1.49v-.2a3.47,3.47,0,0,0-1.42-3,6.53,6.53,0,0,0-4-1.06,5.85,5.85,0,0,0-3.81,1.12,5,5,0,0,0-1.65,3.37h-3.64a7.76,7.76,0,0,1,2.72-5.8c1.62-1.29,4-1.94,7-1.94q4.27,0,6.51,1.86a6.6,6.6,0,0,1,2.23,5.4v12.89a1.3,1.3,0,0,0,.37,1,1.33,1.33,0,0,0,1,.36,4.12,4.12,0,0,0,.51,0c.22,0,.47-.07.73-.13v2.85a7.58,7.58,0,0,1-1.2.35,5.31,5.31,0,0,1-1.08.13,4,4,0,0,1-3.24-1.23,5.15,5.15,0,0,1-.94-2.3,8.3,8.3,0,0,1-1,1A10.43,10.43,0,0,1,725.09,665.4Zm8.17-9.93v-2.55a8.72,8.72,0,0,1-2.43.73l-3.62.52A9.83,9.83,0,0,0,723,655.5a3,3,0,0,0-1.31,2.53,3.74,3.74,0,0,0,4.12,4.1,8.21,8.21,0,0,0,5.26-1.69,5.71,5.71,0,0,0,1.95-2.67,4.24,4.24,0,0,0,.14-.9C733.24,656.45,733.26,656,733.26,655.47Z"/><path class="cls-2" d="M755.18,632.54h4v32.22h-4Z"/><path class="cls-2" d="M816.13,494.92c-12.7,0-22.84-6.59-27.12-17.62a25.4,25.4,0,0,1,2.78-24.13c6-8.7,17.05-14.32,28.28-14.32a33.63,33.63,0,0,1,7.77.91c9.7,2.32,16.6,8.3,19.42,16.86,3,9.07.79,19.53-5.75,27.29-5.71,6.79-15.44,11-25.38,11Z"/><path class="cls-2" d="M793.52,596.41a33.85,33.85,0,0,1-28.33-14.36c-6.77-9.24-8.54-22.93-5.25-40.67,3.92-21.17,15.76-47.75,21.41-51.39,3.78-2.44,11.77-3.3,17.46-3.3,16.09,0,28,6,32.53,16.36,5.23,11.9-3.23,31.22-14,53.4-1,2.13-2.18,4.5-3.15,6.58.8,0,1.6,0,2.37,0,2.95,0,6.35.25,9.15,2.11a11.6,11.6,0,0,1,5.38,9.5c.06,4.49-2.48,8.78-7.14,12.07s-17.28,9.74-30.47,9.74Z"/><path class="cls-2" d="M373.21,603.94c-12.73,0-22.57-5.49-27-15.06-8.86-19.15-22.85-86.61-12.77-113.55,9.05-24.17,29.74-36.64,63.24-38.12,1.91-.09,3.81-.13,5.69-.13,21.74,0,38.81,5.73,48.09,16.13,6.53,7.34,9.2,16.59,7.94,27.51-2.95,25.42-20.31,38.19-31.8,46.63-2.85,2.09-6.7,4.92-7.67,6.31.33,6.28,16.72,28.35,25,29.51h0c3.83,0,11.43-8.35,16-13.34,6.59-7.24,11.8-13,17.83-13.68a16.34,16.34,0,0,1,1.71-.1c5.76,0,11.7,3.34,16.73,9.4s9.92,16.26,8.07,26.11c-2.4,12.73-27.45,31.63-57.14,31.63h0a70,70,0,0,1-12.7-1.16c-13.64-2-24-10.15-32.38-20.4.59,6.7-.72,10-2.34,12.26C394.91,600.49,382.76,603.94,373.21,603.94Zm19.42-122.79c-4.74,0-9.2,1.9-10.48,3.22-1.91,3.21-.57,18.48,2,23.28,3-.82,9.7-5.64,14.26-13.08,2.78-4.53,3.34-8,2.69-9.25C399.69,482.55,396.84,481.15,392.63,481.15Z"/><path class="cls-2" d="M626.37,603.94a81.4,81.4,0,0,1-50.93-18.47c-44-35.63-39.63-96.62-22.51-128.56,5.91-11,16.48-17.6,28.3-17.6a29.17,29.17,0,0,1,26.88,16.91c3.33,7.25,1.92,18.78.13,33.37-3.84,31.34-5.13,55.66,15.73,59.91a26.55,26.55,0,0,0,5.31.57h0c6.78,0,12.17-3.16,16-9.39,8.69-14,7.84-39.5-2-59.31-4.86-9.8-4.86-19.91,0-27.72a21.73,21.73,0,0,1,18.54-10.4c5.33,0,15.57,2,24.18,15.31,11.63,18,28,79.34-2.44,117.57-14.28,17.93-34.61,27.81-57.25,27.81Z"/><path class="cls-2" d="M317.48,591.31c-16.87,0-41.32-4.29-62.08-24.76-18.9-18.62-27.22-44.48-22.82-70.95,4-24,17.75-43.8,36.81-53a73.26,73.26,0,0,1,32-7.26c25,0,48.08,12.83,53.1,24.34,3,6.85,2.13,14.63-2.5,22.49-5.25,8.91-14.86,16.66-21.43,17.29-.34,0-.7.05-1.07.05-3.67,0-7.92-1.74-13.29-3.94-6.84-2.79-15.34-6.27-23.24-6.27a19.25,19.25,0,0,0-13.19,4.73c-8.62,7.52-9.32,19.78-7.11,28.75,2.13,8.66,8.21,18.81,18.85,21.34a41.8,41.8,0,0,0,9.54,1.17c9.57,0,16.75-3.71,23.69-7.3,6-3.08,11.59-6,18-6a20.22,20.22,0,0,1,2.68.18c8.23,1.12,14.95,8.68,18,20.23,2.7,10.29,2.13,23.16-5.24,28.73-6.45,4.88-21.93,10.14-40.68,10.14Z"/><path class="cls-2" d="M565.76,457.39C552.5,435.06,529.9,421.47,505.3,421h-1.53c-24.66,0-46.47,10.71-59.84,29.38-14.46,20.21-17.39,47.56-8,75,10.36,30.42,37.22,50.08,68.44,50.08h0c26.41,0,49.77-14.53,62.48-38.86C580.51,510.48,580.12,481.58,565.76,457.39ZM504,509.32c-20.51-.26-18.92-33.61-.63-34.71C522.29,473.47,526.12,509.61,504,509.32Z"/><path class="cls-2" d="M728.42,586a40.89,40.89,0,0,1-19.58-5.21c-30.12-16.33-41.45-74.76-29.59-111.14,9.15-28.09,39.68-46.24,77.77-46.24,2.2,0,4.41.07,6.6.19,17,1,30.9,8.81,38.17,21.49,6.36,11.09,6.85,24.79,1.26,35.73-7.35,14.4-27.49,21.18-40.82,25.66-2.48.84-5.38,1.81-7.37,2.6.64,1.51,1.6,3.48,2.43,5.19,3.72,7.64,8.82,18.1,9.74,31,.69,9.74-3.29,20.29-10.66,28.19a38,38,0,0,1-28,12.52ZM736,461.83c-1.1,3.06,1.14,12.8,3.52,15.66,4.75-.41,15.85-4,20.69-9.7,2.28-2.69,2.25-4.81,2-6.17-.46-2.76-3.46-4.17-8.94-4.17C745.81,457.45,738,460.36,736,461.83Z"/><path class="cls-2" d="M793.52,590a33.88,33.88,0,0,1-28.33-14.36c-6.77-9.25-8.54-22.93-5.25-40.68,3.92-21.17,15.76-47.74,21.41-51.39,3.78-2.43,11.77-3.3,17.46-3.3,16.09,0,28,6,32.53,16.37,5.23,11.89-3.23,31.22-14,53.39-1,2.13-2.18,4.5-3.15,6.59.8,0,1.6,0,2.37,0,2.95,0,6.35.26,9.15,2.12a11.6,11.6,0,0,1,5.38,9.49c.06,4.5-2.48,8.78-7.14,12.08S806.71,590,793.52,590Z"/><path class="cls-2" d="M816.13,488.51c-12.7,0-22.84-6.59-27.12-17.63a25.38,25.38,0,0,1,2.78-24.12c6-8.7,17.05-14.32,28.28-14.32a33.09,33.09,0,0,1,7.77.91c9.7,2.31,16.6,8.3,19.42,16.86,3,9.07.79,19.52-5.75,27.29-5.71,6.79-15.44,11-25.38,11Z"/><path class="cls-2" d="M373.21,597.53c-12.73,0-22.57-5.49-27-15.06-8.86-19.16-22.85-86.61-12.77-113.56,9.05-24.16,29.74-36.63,63.24-38.12,1.91-.08,3.81-.12,5.69-.12,21.74,0,38.81,5.73,48.09,16.13,6.53,7.33,9.2,16.59,7.94,27.51-2.95,25.42-20.31,38.18-31.8,46.63-2.85,2.09-6.7,4.92-7.67,6.31.33,6.28,16.72,28.35,25,29.51h0c3.83,0,11.43-8.35,16-13.34,6.59-7.24,11.8-13,17.83-13.68a14,14,0,0,1,1.71-.1c5.76,0,11.7,3.34,16.73,9.4s9.92,16.26,8.07,26.1c-2.4,12.74-27.45,31.64-57.14,31.64h0a70,70,0,0,1-12.7-1.16c-13.64-2-24-10.15-32.38-20.41.59,6.71-.72,10-2.34,12.27C394.91,594.08,382.76,597.53,373.21,597.53Zm19.42-122.79c-4.74,0-9.2,1.9-10.48,3.21-1.91,3.22-.57,18.49,2,23.29,3-.83,9.7-5.64,14.26-13.09,2.78-4.52,3.34-8,2.69-9.25C399.69,476.14,396.84,474.74,392.63,474.74Z"/><path class="cls-2" d="M626.37,597.53a81.41,81.41,0,0,1-50.93-18.48c-44-35.62-39.63-96.62-22.51-128.55,5.91-11,16.48-17.61,28.3-17.61a29.16,29.16,0,0,1,26.88,16.92c3.33,7.25,1.92,18.77.13,33.37-3.84,31.34-5.13,55.66,15.73,59.91a27.26,27.26,0,0,0,5.31.56h0c6.78,0,12.17-3.16,16-9.38,8.69-14,7.84-39.51-2-59.31-4.86-9.81-4.86-19.91,0-27.73a21.72,21.72,0,0,1,18.54-10.39c5.33,0,15.57,2,24.18,15.31,11.63,18,28,79.34-2.44,117.56-14.28,17.94-34.61,27.82-57.25,27.82Z"/><path class="cls-2" d="M317.48,584.9c-16.87,0-41.32-4.3-62.08-24.76a79.94,79.94,0,0,1-22.82-70.95c4-24,17.75-43.8,36.81-53a73.4,73.4,0,0,1,32-7.26c25,0,48.08,12.83,53.1,24.35,3,6.85,2.13,14.63-2.5,22.49-5.25,8.91-14.86,16.66-21.43,17.29-.34,0-.7,0-1.07,0-3.67,0-7.92-1.73-13.29-3.93-6.84-2.8-15.34-6.28-23.24-6.28a19.21,19.21,0,0,0-13.19,4.74c-8.62,7.52-9.32,19.78-7.11,28.75,2.13,8.65,8.21,18.81,18.85,21.33a41.25,41.25,0,0,0,9.54,1.17c9.57,0,16.75-3.71,23.69-7.29,6-3.08,11.59-6,18-6a20.22,20.22,0,0,1,2.68.18c8.23,1.11,14.95,8.67,18,20.23,2.7,10.28,2.13,23.16-5.24,28.73-6.45,4.88-21.93,10.14-40.68,10.14Z"/><path class="cls-2" d="M565.76,451c-13.26-22.33-35.86-35.92-60.46-36.36l-1.53,0c-24.66,0-46.47,10.71-59.84,29.39-14.46,20.2-17.39,47.55-8,75,10.36,30.42,37.22,50.07,68.44,50.08h0c26.41,0,49.77-14.53,62.48-38.87C580.51,504.06,580.12,475.17,565.76,451ZM504,502.91c-20.51-.26-18.92-33.62-.63-34.71C522.29,467.06,526.12,503.19,504,502.91Z"/><path class="cls-2" d="M728.42,579.58a40.89,40.89,0,0,1-19.58-5.21c-30.12-16.33-41.45-74.76-29.59-111.14C688.4,435.14,718.93,417,757,417c2.2,0,4.41.06,6.6.19,17,1,30.9,8.8,38.17,21.48,6.36,11.1,6.85,24.79,1.26,35.74-7.35,14.4-27.49,21.17-40.82,25.66-2.48.84-5.38,1.81-7.37,2.6.64,1.5,1.6,3.48,2.43,5.18,3.72,7.64,8.82,18.1,9.74,31,.69,9.75-3.29,20.29-10.66,28.2a38,38,0,0,1-28,12.52ZM736,455.41c-1.1,3.07,1.14,12.81,3.52,15.67,4.75-.41,15.85-4,20.69-9.71,2.28-2.69,2.25-4.8,2-6.16-.46-2.77-3.46-4.17-8.94-4.17C745.81,451,738,454,736,455.41Z"/><path class="cls-2" d="M793.52,590a33.88,33.88,0,0,1-28.33-14.36c-6.77-9.25-8.54-22.93-5.25-40.68,3.92-21.17,15.76-47.74,21.41-51.39,3.78-2.43,11.77-3.3,17.46-3.3,16.09,0,28,6,32.53,16.37,5.23,11.89-3.23,31.22-14,53.39-1,2.13-2.18,4.5-3.15,6.59.8,0,1.6,0,2.37,0,2.95,0,6.35.26,9.15,2.12a11.6,11.6,0,0,1,5.38,9.49c.06,4.5-2.48,8.78-7.14,12.08S806.71,590,793.52,590Z"/><path class="cls-2" d="M816.13,488.51c-12.7,0-22.84-6.59-27.12-17.63a25.38,25.38,0,0,1,2.78-24.12c6-8.7,17.05-14.32,28.28-14.32a33.09,33.09,0,0,1,7.77.91c9.7,2.31,16.6,8.3,19.42,16.86,3,9.07.79,19.52-5.75,27.29-5.71,6.79-15.44,11-25.38,11Z"/><path class="cls-2" d="M373.21,597.53c-12.73,0-22.57-5.49-27-15.06-8.86-19.16-22.85-86.61-12.77-113.56,9.05-24.16,29.74-36.63,63.24-38.12,1.91-.08,3.81-.12,5.69-.12,21.74,0,38.81,5.73,48.09,16.13,6.53,7.33,9.2,16.59,7.94,27.51-2.95,25.42-20.31,38.18-31.8,46.63-2.85,2.09-6.7,4.92-7.67,6.31.33,6.28,16.72,28.35,25,29.51h0c3.83,0,11.43-8.35,16-13.34,6.59-7.24,11.8-13,17.83-13.68a14,14,0,0,1,1.71-.1c5.76,0,11.7,3.34,16.73,9.4s9.92,16.26,8.07,26.1c-2.4,12.74-27.45,31.64-57.14,31.64h0a70,70,0,0,1-12.7-1.16c-13.64-2-24-10.15-32.38-20.41.59,6.71-.72,10-2.34,12.27C394.91,594.08,382.76,597.53,373.21,597.53Zm19.42-122.79c-4.74,0-9.2,1.9-10.48,3.21-1.91,3.22-.57,18.49,2,23.29,3-.83,9.7-5.64,14.26-13.09,2.78-4.52,3.34-8,2.69-9.25C399.69,476.14,396.84,474.74,392.63,474.74Z"/><path class="cls-2" d="M626.37,597.53a81.41,81.41,0,0,1-50.93-18.48c-44-35.62-39.63-96.62-22.51-128.55,5.91-11,16.48-17.61,28.3-17.61a29.16,29.16,0,0,1,26.88,16.92c3.33,7.25,1.92,18.77.13,33.37-3.84,31.34-5.13,55.66,15.73,59.91a27.26,27.26,0,0,0,5.31.56h0c6.78,0,12.17-3.16,16-9.38,8.69-14,7.84-39.51-2-59.31-4.86-9.81-4.86-19.91,0-27.73a21.72,21.72,0,0,1,18.54-10.39c5.33,0,15.57,2,24.18,15.31,11.63,18,28,79.34-2.44,117.56-14.28,17.94-34.61,27.82-57.25,27.82Z"/><path class="cls-3" d="M770.37,571.85c16.09,22,44.43,7,49.91,3.17,5.29-3.74,5.74-8.43,1.91-11-3.63-2.43-13.61.52-16.34-2.11s26.43-47.23,19.62-62.7c-7.2-16.33-36.39-13-40.65-10.25S753.17,548.36,770.37,571.85Z"/><path class="cls-4" d="M826.36,439.59c-18.06-4.31-38.33,11-31.37,29s31.84,16.41,41.61,4.8C845.87,462.36,844.21,443.84,826.36,439.59Z"/><path class="cls-5" d="M478.48,536.11c-8.53,1-23.62,28.67-35.47,27-12-1.7-31.69-28.58-30.42-37.06,1.37-9.22,35.47-18.24,39.44-52.48,3.25-28.12-24.85-37.71-55.06-36.37-28,1.24-48.66,10.29-57.52,34-9.22,24.63,4.12,90.32,12.58,108.61,8,17.37,37,11.52,42.42,4,3.17-4.39-.06-17.56-4.25-30.05-1.31-3.9,1.74-6.08,3.65-2.63,8.8,15.92,21.15,35.18,41.69,38.26,32.52,6,60.45-15.12,62.37-25.35C500.22,551.72,488.06,535,478.48,536.11Zm-96.92-28.6c-6-1.79-9.22-28.65-4-34s23.25-9.31,29.26,2.5C412.47,487.12,391.07,510.35,381.56,507.51Z"/><path class="cls-6" d="M680.69,455.63c-16.38-25.32-43.59-7.75-31.58,16.48,17.1,34.52,8.86,84.45-26.42,77.26-42-8.55-12.5-79.7-20.41-96.88-7.8-16.93-33.19-18.58-43.7,1-14.6,27.24-21.43,86.23,20.9,120.54,30.15,24.44,73.87,23.4,99.13-8.35C706.63,530.49,691.74,472.73,680.69,455.63Z"/><path class="cls-7" d="M505.19,421c-48.58-.86-81.44,42.42-63.22,95.93,18.73,55,91.79,62.72,119.17,10.31C588,476,552.1,421.87,505.19,421Zm-1.26,88c-27.7-.35-25.55-45.4-.85-46.89C528.66,460.58,533.84,509.38,503.93,509Z"/><path class="cls-8" d="M763.25,423.58c-32.41-1.86-67.84,10.76-77.9,41.63-11.3,34.66,0,89.13,26.55,103.52s50.18-9.05,48.73-29.41-14.92-35.08-12.58-39.88,40-9.67,49.29-28S795.65,425.44,763.25,423.58Zm-25.16,53.93c-6.25-.57-11.6-21.05-7.06-26.25s34.88-13.12,37.52,2.9S744.35,478.08,738.09,477.51Z"/><path class="cls-9" d="M330,486.69c-8.13.78-35.46-20.38-54.39-3.88-19.23,16.77-10.22,55.3,14.47,61.16,28,6.66,40.7-13.68,54.51-11.82,13.24,1.79,18.2,31.09,9.73,37.49-11,8.3-59.88,20-94.39-14.07-37-36.5-23.58-96.32,12.27-113.58,34.81-16.74,71.34,2.13,76.46,13.87C354.6,469.53,336.55,486.06,330,486.69Z"/><path class="cls-2" d="M444.33,455.68c11-21.55,33.44-35.14,60.86-34.65,22.17.4,41.87,12.7,53.65,31,2.62,4.07,6.5,1,2.89-5.18-10.31-17.57-31.83-31.77-56.43-32.21l-1.53,0c-22.52,0-42.67,8.94-56.18,24.72-1.28,1.49-5.18,8.45-5.18,11.79C442.41,454.85,443.59,457.12,444.33,455.68Z"/><path class="cls-2" d="M558,532.69a66.51,66.51,0,0,1-14.89,16.63C527,562,534.63,565.09,546.5,556c6.73-5.16,15.35-14.47,17.64-23.79C566.14,524.06,562.6,525.47,558,532.69Z"/><path class="cls-2" d="M442,517a97.54,97.54,0,0,1-3.66-14c-1.91-10.5-4.05-10.56-5.25-4.95-1.16,5.41,1.24,16.32,2.83,21,5.41,15.87,15.26,31.22,24.69,35.77,11.36,5.47,14.63,1.82,6.45-3.91A67.25,67.25,0,0,1,442,517Z"/><path class="cls-2" d="M711.9,568.73c-8.88-4.82-16-14.13-21.24-25.68-2.85-6.33-6.8-4.29-2.53,7.74,4.56,12.82,10.71,18.15,20.71,23.58a40.89,40.89,0,0,0,19.58,5.21,38,38,0,0,0,28-12.52,41.34,41.34,0,0,0,7-10.25c-2.16-.15-4.48-.37-6.88-.63C748.67,569.81,731.05,579.1,711.9,568.73Z"/><path class="cls-2" d="M804,449.91c.79-3.61-.69-8.64-2.19-11.25-7.27-12.68-21.18-20.5-38.17-21.48-2.19-.13-4.4-.19-6.6-.19-38.09,0-66.81,21.68-74,40.53-4.41,11.63-1.48,18.71,2.29,7.69,10.5-30.72,45.49-43.49,77.9-41.63,20.84,1.2,32.81,13.11,36.22,26.32C801.07,456.11,803,454.18,804,449.91Z"/><path class="cls-2" d="M344.17,475.92c-4.6,6.05-10.86,10.45-14.2,10.77-5.16.49-18.05-7.83-31.61-9.78a8.34,8.34,0,0,0-.51,2,12.15,12.15,0,0,0,.39,4.49c6.28,1,12.64,3.61,18,5.8s9.62,3.93,13.29,3.93c.37,0,.73,0,1.07,0,5.31-.51,15.09-10.71,16.43-16.85C347.55,473.75,346.53,472.81,344.17,475.92Z"/><path class="cls-2" d="M357.69,549.84c1.65,8.15.72,16.69-3.4,19.8-7.91,6-35.67,13.73-63.48,4.73a23.63,23.63,0,0,0,5.92,8.27,95.93,95.93,0,0,0,20.75,2.26h0c18.75,0,33-3.29,40.68-10.14,7.42-6.6,4.75-20.63,2.61-24.38S357.19,547.36,357.69,549.84Z"/></svg>