<svg id="Capa_1" data-name="Capa 1" xmlns="http://www.w3.org/2000/svg" xmlns:xlink="http://www.w3.org/1999/xlink" viewBox="0 0 1080 1080"><defs><style>.cls-1{fill:#fff;}.cls-2{fill:#26a3a7;}.cls-3{fill:url(#Degradado_sin_nombre_4);}.cls-4{fill:#354961;}.cls-5{fill:#253242;}.cls-6{fill:#1f7e82;}.cls-7{fill:url(#Degradado_sin_nombre_9);}</style><linearGradient id="Degradado_sin_nombre_4" x1="505.89" y1="443.29" x2="505.89" y2="553.41" gradientUnits="userSpaceOnUse"><stop offset="0" stop-color="#fc9900"/><stop offset="1" stop-color="#eb691b"/></linearGradient><linearGradient id="Degradado_sin_nombre_9" x1="474.47" y1="306.94" x2="474.47" y2="417.3" gradientUnits="userSpaceOnUse"><stop offset="0" stop-color="#e21c40"/><stop offset="1" stop-color="#9c182d"/></linearGradient></defs><rect class="cls-1" width="1080" height="1080"/><path class="cls-2" d="M499.62,417.3l-65.24-20.24a111,111,0,0,0,.79,68l64.75-21.76A42.41,42.41,0,0,1,499.62,417.3Z"/><path class="cls-3" d="M556.74,468.65a42.28,42.28,0,0,1-56.82-25.36l-77.09,25.9a123.67,123.67,0,0,0,166.11,74.15Z"/><path class="cls-4" d="M580.22,442.83a42.22,42.22,0,0,1-23.48,25.82l27,62.74a110.64,110.64,0,0,0,66-88.56Z"/><path class="cls-5" d="M562.73,465.47a42.5,42.5,0,0,1-6,3.18l27,62.74c2.06-.89,4.09-1.87,6.11-2.89Z"/><path class="cls-6" d="M499.62,417.3l-65.24-20.24c-.7,2.24-1.3,4.51-1.85,6.78l65.57,20.35A43,43,0,0,1,499.62,417.3Z"/><path class="cls-7" d="M510.1,399.93A42.19,42.19,0,0,1,527,389.6V306.94A123.61,123.61,0,0,0,422,393.2l77.67,24.1A42.09,42.09,0,0,1,510.1,399.93Z"/><path class="cls-2" d="M540,389.73h0a8.54,8.54,0,0,0,6.85,8.3A32.55,32.55,0,0,1,571.8,423a8.53,8.53,0,0,0,8.29,6.85h0a8.43,8.43,0,0,0,8.31-10.06,49.44,49.44,0,0,0-38.33-38.34A8.43,8.43,0,0,0,540,389.73Z"/><path class="cls-2" d="M540,315v1.62a8.47,8.47,0,0,0,7.88,8.43,105,105,0,0,1,96.87,96.87,8.47,8.47,0,0,0,8.43,7.88h1.63a8.45,8.45,0,0,0,8.45-9A123.6,123.6,0,0,0,549,306.57,8.45,8.45,0,0,0,540,315Z"/><path class="cls-2" d="M540,352.24v1.63a8.52,8.52,0,0,0,7.65,8.41,68,68,0,0,1,59.89,59.89,8.52,8.52,0,0,0,8.42,7.65h1.63a8.46,8.46,0,0,0,8.41-9.39,86.53,86.53,0,0,0-76.6-76.61A8.48,8.48,0,0,0,540,352.24Z"/><circle class="cls-2" cx="540" cy="429.82" r="16.26"/><path class="cls-4" d="M169.39,715.06,161,728.31v44.1h-8v-122h8v64.5l39.74-64.5h8.37l-34.86,56.83,37.13,65.2H203Z"/><path class="cls-4" d="M251.34,680.19c0-17.78,8.2-30.85,26.67-30.85,18.83,0,27,13.07,27,30.85V742.6c0,17.78-8.19,30.85-27,30.85-18.47,0-26.67-13.07-26.67-30.85Zm8,62.93c0,13.25,5.23,23,18.65,23,13.6,0,19-9.76,19-23V679.67c0-13.25-5.41-23-19-23-13.42,0-18.65,9.76-18.65,23Z"/><path class="cls-4" d="M394.11,772.23h-8l-25.8-107.9V772.41h-7.14v-122h11.5l25.63,107.91,25.45-107.91h11.5v122h-7.67V664Z"/><path class="cls-4" d="M527.46,679.84v2.62h-7.67v-3.14c0-12.9-4.88-22.66-18.13-22.66s-18.13,9.59-18.13,22.49c0,29.63,44.11,30.15,44.11,63.8,0,17.6-7.67,30.5-26.32,30.5S475,760.55,475,743v-6.28h7.67v6.8c0,13.08,5.06,22.49,18.48,22.49s18.48-9.41,18.48-22.49c0-29.28-44.1-29.81-44.1-63.8,0-18.3,8-30.16,26-30.33C520,649.34,527.46,662.24,527.46,679.84Z"/><path class="cls-4" d="M616.71,706.86v7.33H583.42v50.9h40.09v7.32H575.4v-122h48.11v7.32H583.42v49.16Z"/><path class="cls-4" d="M678.77,772.41h-7.32v-122h10.46l36.61,103v-103h7.32v122H717L678.77,663.63Z"/><path class="cls-4" d="M825.9,679.84v2.62h-7.67v-3.14c0-12.9-4.89-22.66-18.13-22.66S782,666.25,782,679.15c0,29.63,44.1,30.15,44.1,63.8,0,17.6-7.67,30.5-26.32,30.5s-26.33-12.9-26.33-30.5v-6.28h7.67v6.8c0,13.08,5.06,22.49,18.48,22.49s18.48-9.41,18.48-22.49c0-29.28-44.1-29.81-44.1-63.8,0-18.3,8-30.16,26-30.33C818.4,649.34,825.9,662.24,825.9,679.84Z"/><path class="cls-4" d="M873.31,680.19c0-17.78,8.19-30.85,26.67-30.85,18.83,0,27,13.07,27,30.85V742.6c0,17.78-8.19,30.85-27,30.85-18.48,0-26.67-13.07-26.67-30.85Zm8,62.93c0,13.25,5.23,23,18.65,23,13.6,0,19-9.76,19-23V679.67c0-13.25-5.4-23-19-23-13.42,0-18.65,9.76-18.65,23Z"/></svg>