<svg id="Capa_1" data-name="Capa 1" xmlns="http://www.w3.org/2000/svg" viewBox="0 0 1080 1080"><defs><style>.cls-1{fill:#fff;}.cls-2{fill:#82bfca;}.cls-3,.cls-4{fill:#585857;}.cls-3,.cls-6{fill-rule:evenodd;}.cls-5,.cls-6{fill:#9c9b9b;}</style></defs><rect class="cls-1" width="1080" height="1080"/><path class="cls-2" d="M679.23,540.71a59,59,0,0,0,1.4-6.41l23.37.52c-.42,1.53-1.83,5.81-2.43,7.43l-22.34-1.54Zm24.7-115.53a27.92,27.92,0,0,0,.24-8.74l29.66-2.84a84.54,84.54,0,0,1,1.45,10.79l-31.35.79ZM667.28,481c-6.3-1.41-12.12-3.33-17.56-4.93s-10.83-3-15.93-3.13c-6.55-.18-12.33,2.76-17.66,8.76a13.46,13.46,0,0,1,3.08,8.63,15.94,15.94,0,0,1-.76,5,18.92,18.92,0,0,0,11.43,2.8A62,62,0,0,0,643,495.67c4.53-1.22,9.4-2.67,14.6-3.77,17.86-3.75,48.39,4.55,48.12,31.61l-27.09,1.7c-4.63-9.29-16.34-15.1-26-13.07-21.93,4.62-34.23,3.15-42.18-6.81a16.29,16.29,0,0,1-5.93,2.09,12.81,12.81,0,0,1-15-12.93A17.59,17.59,0,0,1,603.1,477.6c13.51-27,31.15-36.12,64.47-28.66,11.81,2.65,25.81-3.37,32.65-14.33l34.48,3.85c-6,37.3-46.8,47.16-67.42,42.53Z"/><path class="cls-2" d="M406.54,381.79a36.36,36.36,0,0,1,8.23-19c12.27-14.11,27.34-26.49,46.54-31.8,10.07-2.78,16.73,1.87,20.3,8.55,9.43-13.33,29.47-18.3,41.64-17.18,16.9,1.28,35.27,6.08,49.39,15.57,14.46,9.73,15.23,20.6,9.66,31,14-4.59,27.17-3.22,38.69,13.39,17.62,25.42,30.44,85.57-3.29,97.56,10,7.42,14.66,18.69,8.09,36-6.88,18.11-18.74,36.38-37.17,47.9-16.49,10.31-29.65,6.31-40.09-1.08.4,10.07-4.55,19.4-19.83,22.54-16.4,3.36-35.18,1.38-51.33-3-11.12-2.87-28.87-13.34-33.52-28.17-5.71,4.67-13.63,6.29-21.7,1-15.57-10.12-34.79-33.19-36.07-53.06a27.61,27.61,0,0,1,.42-7.34,14.31,14.31,0,0,1-6.83-10.26c-2.23-12.75-4.37-35.5,6.13-45.73a20.47,20.47,0,0,1-2.22-12.19,124.35,124.35,0,0,1,12.68-36.73c2.16-4.07,5.95-7.27,10.28-8Z"/><path class="cls-1" d="M412.2,393.14c3.71,4.14,45.18,56.94,45.18,56.94l-54-8.56c-7.07-1.12-10.76-9-10.12-13.1a115,115,0,0,1,11.11-34.09c1.9-3.73,4.63-4.78,7.86-1.19Zm179.15,85.68c25.47,3.61,32.35,14.71,25.79,32.93-6.11,16.93-16.6,33.41-32.6,43.81-18.19,11.82-30.26,1-42.85-11.48l-74.1-84.86S550,473,591.35,478.82ZM532.21,544c10.44,13.18,11.2,27.84-4.88,31.43-11.62,2.6-24.15,2.06-36.7.07-3.49-.55-6.91-1.26-10.27-2.1-13.44-3.16-30.32-16-28.11-29.08l9.88-84.93S509,514.56,532.21,544Zm-88.33-6.61c-1.36,8.56-9.18,13.52-15.93,9.31-14.46-9-24-22.4-30.84-37.16-.79-1.7-4.29-14,1-17.75l55.81-38.44s-8.27,72.69-10.06,84Zm-47.33-51.05c-4.14,2.1-6.44.41-7.15-3.3a92.59,92.59,0,0,1-.63-32.1c.57-3.61,6.42-9.25,13.48-8.13l54,8.56s-55,32.55-59.73,35Zm197.23-14.72C552.71,464.29,470,452,470,452l98.05-66.41c16-9.16,31-16.81,44.39,1.78,11.77,16.35,16.31,37.4,16.55,57.49.26,21.62-9.91,31.23-35.24,26.74Zm-32.52-91.45c-31.69,23.78-94.18,67.46-94.18,67.46l18.47-94c2.19-14.71,22.4-22.89,36.18-21.86q5.19.3,10.42,1.12c12.55,2,24.6,5.52,34.77,12.1,14.07,9.11,8.54,24.52-5.66,35.18ZM475.07,354.4c-2,12.71-18,93.1-18,93.1l-40.32-59.36c-3.82-5.7,3.54-17.74,4.85-19.3,11.35-13.52,24.74-24.68,41.42-29.6,7.77-2.3,13.56,5.57,12,15.16Z"/><path class="cls-2" d="M382.75,456.46l227.3,21.46c15.1,11.92,15.9,23.84,8,38.94L387.52,490.64l-4.77-34.18Z"/><path class="cls-2" d="M521.76,484c-4.51,44.19-47.67,39.93-46.49-2.83q-16.31-1.32-31.73-3.07c-9.67,30.38-41.41,33.27-42.47-5.91-12.33,1.77-24-11.33-18.59-26.65,4.14-11.67,15.73-16.46,25.71-17.84,25.23-83.53,145.77-68.17,150,9.93,16.06,11.22,20.61,33.28,3.27,47.31,0,0-31.22-.58-39.69-.94Z"/><path class="cls-1" d="M512.69,484c-1.23,10.83-4.92,22.25-14.39,21.77-12.14-.62-14.21-12.57-14-23.32,9.56.72,19.06,1.25,28.43,1.55Zm41.74-8q-21.18-.4-41.2-1.4L484.85,473l-3.89-.37-42.55-4.25-29-4c-5-.6-10-.86-14.6-2.34-2.52-.81-6.06-5.71-4.3-12.38,2.85-10.8,15.31-13.84,24.73-13.24,6-27.85,27.26-53.46,62.28-55.49,46-2.67,72.58,29.12,71.75,61.91,24.88,12.79,10.42,32.19,5.17,33.16Zm-144.81-.61.06-2q12.31,2,24.69,3.7c-2.81,8.1-7.59,16.82-14.75,15.64-6.49-1.08-9.08-9.47-10-17.36Z"/><path class="cls-2" d="M424,440a8.93,8.93,0,1,1,8.12,9.68A8.94,8.94,0,0,1,424,440Z"/><path class="cls-1" d="M432.82,435.66a3.57,3.57,0,1,1,4.6,5.47c-1.51,1.27-6.11-4.21-4.6-5.47Z"/><path class="cls-2" d="M490.48,443.33a12.77,12.77,0,1,1,11.61,13.82,12.77,12.77,0,0,1-11.61-13.82Z"/><path class="cls-1" d="M502.79,437.66a5.1,5.1,0,0,1,6.56,7.82c-2.16,1.81-8.72-6-6.56-7.82Z"/><path class="cls-3" d="M246.74,757.36v-1.64a8.16,8.16,0,0,1-6,2,8.51,8.51,0,0,1-6.75-3,11.67,11.67,0,0,1-2.59-8,12.74,12.74,0,0,1,3-8.52,9,9,0,0,1,7.11-3.53,7.57,7.57,0,0,1,5.22,1.61V726.1h3.94v31.26Zm0-17.06a4.66,4.66,0,0,0-4.08-2.23,6.34,6.34,0,0,0-5.12,2.35,9.14,9.14,0,0,0-1.95,6q0,8,7.28,8a5.61,5.61,0,0,0,2.23-.59,3.26,3.26,0,0,0,1.64-1.26V740.3Z"/><path class="cls-3" d="M260.34,726.78a2.36,2.36,0,0,1,1.73.72,2.41,2.41,0,0,1,0,3.44,2.36,2.36,0,0,1-1.73.72,2.3,2.3,0,0,1-1.71-.72,2.45,2.45,0,0,1,0-3.45,2.38,2.38,0,0,1,1.73-.71Zm-2.18,30.58V738.49h-3.05v-3.31h7v22.18Z"/><path class="cls-4" d="M267,756l1.38-3.73q3.29,2.18,5.28,2.17,3.64,0,3.64-3.07,0-2.2-3.52-3.78a31.2,31.2,0,0,1-3.65-1.88,8,8,0,0,1-1.63-1.47,5.7,5.7,0,0,1-1-1.74,5.57,5.57,0,0,1-.34-2,5.09,5.09,0,0,1,2-4.27,8.31,8.31,0,0,1,5.21-1.53,16.81,16.81,0,0,1,6.12,1.53l-1.12,3.64a7.55,7.55,0,0,0-4.71-1.86,4.08,4.08,0,0,0-2.37.66,2,2,0,0,0-1,1.68,3.49,3.49,0,0,0,2.43,3.24l2.81,1.28a10,10,0,0,1,3.76,2.69,6,6,0,0,1,1.19,3.8,5.68,5.68,0,0,1-2.1,4.68,9,9,0,0,1-5.79,1.69A13,13,0,0,1,267,756Z"/><path class="cls-3" d="M304.28,746.68h-16a8,8,0,0,0,2.13,6,6.7,6.7,0,0,0,4.84,1.82,8.18,8.18,0,0,0,5.63-2l1.65,2.84a7.24,7.24,0,0,1-2.79,1.58,15.15,15.15,0,0,1-5.26.88,9.8,9.8,0,0,1-7.1-2.84,11.15,11.15,0,0,1-3.25-8.42,11.88,11.88,0,0,1,3.33-8.81,9.71,9.71,0,0,1,7.07-3,10,10,0,0,1,7.43,2.68,9.15,9.15,0,0,1,2.61,6.83,8.79,8.79,0,0,1-.31,2.41Zm-9.54-8.61a6.14,6.14,0,0,0-4.42,1.71,6.24,6.24,0,0,0-1.93,4.05h12.3a5.69,5.69,0,0,0-1.49-4,5.81,5.81,0,0,0-4.46-1.75Z"/><path class="cls-3" d="M322.4,757.36V744.45q0-3.56-1.06-5a4.17,4.17,0,0,0-3.57-1.42,5.94,5.94,0,0,0-2.82.8,6.41,6.41,0,0,0-2.26,2v16.5h-3.94V735.18h2.7l1.24,2.86q1.95-3.28,6.36-3.28,7.31,0,7.3,8.86v13.74Zm1.19-30.87q-1.09,4.28-4,4.28a6.42,6.42,0,0,1-2.87-.8,6,6,0,0,0-2.2-.81,2.43,2.43,0,0,0-2.24,1.61h-1.87a6.32,6.32,0,0,1,1.34-3,3.11,3.11,0,0,1,2.47-1.27,6.26,6.26,0,0,1,3.13.8,5.05,5.05,0,0,0,2.16.8,2.17,2.17,0,0,0,2.23-1.6Z"/><path class="cls-3" d="M330.46,746.22a12.17,12.17,0,0,1,2.77-8.3,10.23,10.23,0,0,1,14.66-.13c1.76,2,2.64,4.84,2.64,8.43s-.9,6.4-2.69,8.47a10.25,10.25,0,0,1-14.73,0,12.65,12.65,0,0,1-2.65-8.43Zm4.16,0q0,8.34,5.88,8.34a5,5,0,0,0,4.31-2.23,10.53,10.53,0,0,0,1.56-6.11q0-8.24-5.87-8.24a5.08,5.08,0,0,0-4.28,2.19,10.08,10.08,0,0,0-1.6,6.05Z"/><path class="cls-4" d="M372,740.78a3.09,3.09,0,0,1,3.09,3.1,3,3,0,0,1-.9,2.21,3,3,0,0,1-4.38,0,3.11,3.11,0,0,1,0-4.4,3,3,0,0,1,2.19-.91Z"/><path class="cls-4" d="M421.48,757.36V743.31c0-3.5-1.51-5.24-4.53-5.24a4.52,4.52,0,0,0-2.68.88,4.59,4.59,0,0,0-1.69,2v16.41h-3.95V741.59A3.08,3.08,0,0,0,407.4,739a5.22,5.22,0,0,0-3.26-.94,4.5,4.5,0,0,0-2.52.91,5.56,5.56,0,0,0-1.89,2v16.37h-4V735.18h2.57l1.31,2.54a6.94,6.94,0,0,1,5.7-3c3.18,0,5.4,1,6.68,3a5.09,5.09,0,0,1,2.46-2.11,8.56,8.56,0,0,1,3.71-.85,6.9,6.9,0,0,1,5.33,2,8.12,8.12,0,0,1,1.89,5.73v14.83Z"/><path class="cls-4" d="M434.69,735.18v14.16c0,3.43,1.49,5.14,4.45,5.14a6.09,6.09,0,0,0,3.56-1.12,5.44,5.44,0,0,0,2.13-2.59V735.18h3.95v22.18h-3.95V754.3a6.16,6.16,0,0,1-2.66,2.4,8.18,8.18,0,0,1-3.9,1.09,7.21,7.21,0,0,1-5.58-2.1,8.39,8.39,0,0,1-1.94-5.94V735.18Z"/><path class="cls-4" d="M454.42,751.1v-25h3.94v24.33a3.8,3.8,0,0,0,1,2.81,3.58,3.58,0,0,0,2.67,1v3.52q-7.64,0-7.63-6.69Z"/><path class="cls-4" d="M468,738.28h-2.58v-3.1H468v-4.64L472,729v6.15h6.11v3.1H472v11a6.5,6.5,0,0,0,.94,4,3.7,3.7,0,0,0,3.05,1.18,7.3,7.3,0,0,0,3.14-.76l.59,3.45a22.16,22.16,0,0,1-5.39.62,5.88,5.88,0,0,1-4.46-2,7,7,0,0,1-1.82-5v-12.6Z"/><path class="cls-3" d="M487.45,726.78a2.37,2.37,0,0,1,1.74.72,2.44,2.44,0,0,1,0,3.44,2.37,2.37,0,0,1-1.74.72,2.44,2.44,0,0,1,0-4.88Zm-2.17,30.58V738.49h-3.06v-3.31h7v22.18Z"/><path class="cls-4" d="M521.21,757.36V743.31c0-3.5-1.51-5.24-4.53-5.24A4.47,4.47,0,0,0,514,739a4.55,4.55,0,0,0-1.7,2v16.41h-3.95V741.59a3.08,3.08,0,0,0-1.23-2.58,5.22,5.22,0,0,0-3.26-.94,4.5,4.5,0,0,0-2.52.91,5.56,5.56,0,0,0-1.89,2v16.37h-3.95V735.18h2.57l1.31,2.54a6.94,6.94,0,0,1,5.7-3c3.18,0,5.4,1,6.68,3a5.09,5.09,0,0,1,2.46-2.11,8.59,8.59,0,0,1,3.71-.85,6.9,6.9,0,0,1,5.33,2,8.12,8.12,0,0,1,1.89,5.73v14.83Z"/><path class="cls-3" d="M549.38,746.68h-16a8,8,0,0,0,2.14,6,6.68,6.68,0,0,0,4.83,1.82,8.18,8.18,0,0,0,5.63-2l1.65,2.84a7.32,7.32,0,0,1-2.79,1.58,15.15,15.15,0,0,1-5.26.88,9.82,9.82,0,0,1-7.1-2.84,11.15,11.15,0,0,1-3.25-8.42,11.88,11.88,0,0,1,3.33-8.81,9.72,9.72,0,0,1,7.06-3,10.07,10.07,0,0,1,7.44,2.68,9.15,9.15,0,0,1,2.61,6.83,8.79,8.79,0,0,1-.31,2.41Zm-9.54-8.61a6.14,6.14,0,0,0-4.42,1.71,6.24,6.24,0,0,0-1.93,4.05h12.3a5.69,5.69,0,0,0-1.49-4,5.81,5.81,0,0,0-4.46-1.75Z"/><path class="cls-3" d="M567.93,757.36v-1.64a8.16,8.16,0,0,1-6,2,8.5,8.5,0,0,1-6.75-3,11.67,11.67,0,0,1-2.59-8,12.74,12.74,0,0,1,3-8.52,9,9,0,0,1,7.11-3.53,7.57,7.57,0,0,1,5.22,1.61V726.1h4v31.26Zm0-17.06a4.67,4.67,0,0,0-4.08-2.23,6.32,6.32,0,0,0-5.12,2.35,9.14,9.14,0,0,0-2,6q0,8,7.28,8a5.66,5.66,0,0,0,2.23-.59,3.26,3.26,0,0,0,1.64-1.26V740.3Z"/><path class="cls-3" d="M581.52,726.78a2.34,2.34,0,0,1,1.74.72,2.41,2.41,0,0,1,0,3.44,2.34,2.34,0,0,1-1.74.72,2.3,2.3,0,0,1-1.7-.72,2.43,2.43,0,0,1,1.7-4.16Zm-2.17,30.58V738.49H576.3v-3.31h7v22.18Z"/><path class="cls-3" d="M602.09,754.82q-2.36,3-7.22,3a6.25,6.25,0,0,1-4.52-1.9,6.37,6.37,0,0,1-1.91-4.72,7,7,0,0,1,2.94-5.72,11.73,11.73,0,0,1,7.52-2.34,8.58,8.58,0,0,1,2.82.55c0-3.59-1.61-5.38-4.81-5.38a7.65,7.65,0,0,0-5.67,2L589.58,737a9.62,9.62,0,0,1,3.1-1.55,11.93,11.93,0,0,1,3.78-.65q4.83,0,7,2.19t2.19,7v8c0,2,.58,3.24,1.74,3.89v2a7.51,7.51,0,0,1-3.6-.68,3.88,3.88,0,0,1-1.71-2.25Zm-.37-8.36a14.11,14.11,0,0,0-2.61-.42,7.38,7.38,0,0,0-4.85,1.54,4.59,4.59,0,0,0-1.88,3.64q0,3.46,4.07,3.47a6.69,6.69,0,0,0,5.27-2.84v-5.39Z"/><path class="cls-4" d="M629.19,740.78a3,3,0,0,1,2.18.91,3.11,3.11,0,0,1,0,4.4,3,3,0,0,1-4.37,0,3.11,3.11,0,0,1,0-4.4,3,3,0,0,1,2.19-.91Z"/><path class="cls-3" d="M657,726.78a2.44,2.44,0,0,1,0,4.88,2.46,2.46,0,0,1-2.43-2.45,2.41,2.41,0,0,1,2.43-2.43Zm-2.17,30.58V738.49h-3.06v-3.31h7v22.18Z"/><path class="cls-4" d="M665.37,751.1v-25h3.94v24.33a3.81,3.81,0,0,0,1,2.81,3.58,3.58,0,0,0,2.67,1v3.52q-7.63,0-7.64-6.69Z"/><path class="cls-4" d="M681.29,735.18v14.16c0,3.43,1.49,5.14,4.45,5.14a6.09,6.09,0,0,0,3.56-1.12,5.5,5.5,0,0,0,2.13-2.59V735.18h3.94v22.18h-3.94V754.3a6.16,6.16,0,0,1-2.66,2.4,8.22,8.22,0,0,1-3.91,1.09,7.19,7.19,0,0,1-5.57-2.1,8.39,8.39,0,0,1-1.94-5.94V735.18Z"/><path class="cls-4" d="M699.27,756l1.39-3.73q3.29,2.18,5.29,2.17c2.42,0,3.64-1,3.64-3.07,0-1.47-1.18-2.73-3.52-3.78a30.74,30.74,0,0,1-3.66-1.88,8.22,8.22,0,0,1-1.63-1.47,5.91,5.91,0,0,1-1-1.74,5.8,5.8,0,0,1-.34-2,5.1,5.1,0,0,1,2-4.27,8.3,8.3,0,0,1,5.21-1.53,16.77,16.77,0,0,1,6.11,1.53l-1.12,3.64a7.55,7.55,0,0,0-4.7-1.86,4,4,0,0,0-2.37.66,2,2,0,0,0-1,1.68,3.48,3.48,0,0,0,2.42,3.24l2.81,1.28a10,10,0,0,1,3.77,2.69,6,6,0,0,1,1.18,3.8,5.7,5.7,0,0,1-2.09,4.68,9,9,0,0,1-5.79,1.69,13.14,13.14,0,0,1-6.59-1.75Z"/><path class="cls-4" d="M719.32,738.28h-2.59v-3.1h2.59v-4.64l3.94-1.51v6.15h6.11v3.1h-6.11v11a6.5,6.5,0,0,0,.94,4,3.7,3.7,0,0,0,3,1.18,7.3,7.3,0,0,0,3.14-.76l.59,3.45a22.16,22.16,0,0,1-5.39.62,5.87,5.87,0,0,1-4.46-2,7,7,0,0,1-1.81-5v-12.6Z"/><path class="cls-4" d="M746.78,739a4.45,4.45,0,0,0-2.59-.89,4.63,4.63,0,0,0-3.66,1.92,7.13,7.13,0,0,0-1.56,4.64v12.73h-4V735.18h4v3.52a6.9,6.9,0,0,1,6.4-3.94,17.72,17.72,0,0,1,3,.37L746.78,739Z"/><path class="cls-3" d="M763.65,754.82c-1.57,2-4,3-7.22,3a6.21,6.21,0,0,1-4.51-1.9,6.38,6.38,0,0,1-1.92-4.72,7.06,7.06,0,0,1,3-5.72,11.71,11.71,0,0,1,7.52-2.34,8.48,8.48,0,0,1,2.8.55c0-3.59-1.59-5.38-4.79-5.38a7.64,7.64,0,0,0-5.67,2L751.15,737a9.42,9.42,0,0,1,3.1-1.55,11.83,11.83,0,0,1,3.78-.65q4.82,0,7,2.19c1.46,1.47,2.18,3.8,2.18,7v8c0,2,.58,3.24,1.74,3.89v2a7.46,7.46,0,0,1-3.59-.68,3.89,3.89,0,0,1-1.72-2.25Zm-.38-8.36a13.73,13.73,0,0,0-2.59-.42,7.43,7.43,0,0,0-4.86,1.54,4.61,4.61,0,0,0-1.87,3.64c0,2.31,1.35,3.47,4.07,3.47a6.64,6.64,0,0,0,5.25-2.84v-5.39Z"/><path class="cls-4" d="M790.32,737l-2,2.76a6,6,0,0,0-2.14-1.13,9.32,9.32,0,0,0-3-.52,6.44,6.44,0,0,0-5.15,2.24,9.35,9.35,0,0,0-1.89,6.18,8.35,8.35,0,0,0,1.92,5.94,7,7,0,0,0,5.34,2.05,8.87,8.87,0,0,0,5.35-2l1.55,3.31a14.24,14.24,0,0,1-7.85,2,10,10,0,0,1-7.5-3,11.31,11.31,0,0,1-3-8.25,11.73,11.73,0,0,1,3.1-8.52,11.91,11.91,0,0,1,12.23-2.49,10.57,10.57,0,0,1,3,1.48Z"/><path class="cls-3" d="M798.43,726.78a2.44,2.44,0,0,1,0,4.88,2.3,2.3,0,0,1-1.71-.72,2.45,2.45,0,0,1,0-3.45,2.38,2.38,0,0,1,1.73-.71Zm-2.18,30.58V738.49h-3v-3.31h7v22.18Z"/><path class="cls-3" d="M805,746.22a12.12,12.12,0,0,1,2.77-8.3,9.18,9.18,0,0,1,7.27-3.16,9.28,9.28,0,0,1,7.4,3c1.75,2,2.62,4.84,2.62,8.43s-.9,6.4-2.68,8.47a10.25,10.25,0,0,1-14.73,0c-1.77-2.08-2.65-4.9-2.65-8.43Zm4.16,0q0,8.34,5.88,8.34a5,5,0,0,0,4.31-2.23,10.53,10.53,0,0,0,1.56-6.11q0-8.24-5.87-8.24a5.06,5.06,0,0,0-4.28,2.19,10.08,10.08,0,0,0-1.6,6.05Zm10.6-22.36-4.7,6.91h-2.89l3.52-6.91Z"/><path class="cls-4" d="M842.92,757.36V744.45q0-3.56-1.07-5a4.17,4.17,0,0,0-3.57-1.42,5.94,5.94,0,0,0-2.82.8,6.41,6.41,0,0,0-2.26,2v16.5h-3.94V735.18H832l1.24,2.86c1.31-2.19,3.43-3.28,6.38-3.28q7.29,0,7.29,8.86v13.74Z"/><path class="cls-4" d="M233.14,617.11a4.08,4.08,0,1,1,8.15,0V693a4.08,4.08,0,1,1-8.15,0V617.11Z"/><path class="cls-3" d="M279.81,633.41a29,29,0,0,1,12,2.56,33.09,33.09,0,0,1,17,17,30.14,30.14,0,0,1,2.57,12.36V693.1a4.08,4.08,0,1,1-8.15,0v-8a41.51,41.51,0,0,1-10.46,8.35,26.25,26.25,0,0,1-13.21,3.48,31.77,31.77,0,0,1-12.29-2.37A31.4,31.4,0,0,1,257.2,688a30.84,30.84,0,0,1-6.84-10,31.59,31.59,0,0,1-2.5-12.62,32.07,32.07,0,0,1,2.43-12.43A31.66,31.66,0,0,1,257,642.75a31.19,31.19,0,0,1,10.12-6.84,31.93,31.93,0,0,1,12.69-2.5Zm-23.79,32a22.83,22.83,0,0,0,1.84,9.14,23.65,23.65,0,0,0,5.06,7.49,23.93,23.93,0,0,0,7.49,5.06,23.48,23.48,0,0,0,18.08.06,23.61,23.61,0,0,0,7.43-4.92,24.3,24.3,0,0,0,5.13-7.43,26.32,26.32,0,0,0,2.17-9.4,23.81,23.81,0,0,0-6.91-16.77,23.84,23.84,0,0,0-7.56-5.06,23.43,23.43,0,0,0-9.2-1.84,23,23,0,0,0-9.14,1.84,24.1,24.1,0,0,0-7.49,5.06,23.74,23.74,0,0,0-6.9,16.77Z"/><path class="cls-4" d="M317.9,637.22a4.08,4.08,0,1,1,8.15,0v1.45a23,23,0,0,1,5.85-4.08,16.14,16.14,0,0,1,7.43-1.84,20.47,20.47,0,0,1,10,2.44,21.33,21.33,0,0,1,7.36,6.5,22.65,22.65,0,0,1,7.5-6.5,20.47,20.47,0,0,1,10-2.44,20.91,20.91,0,0,1,8.41,1.71A21.45,21.45,0,0,1,394,645.9a20.94,20.94,0,0,1,1.71,8.41V693a4.08,4.08,0,1,1-8.15,0V654.31a13,13,0,0,0-1.05-5.19,13.63,13.63,0,0,0-2.9-4.27,13.49,13.49,0,0,0-4.27-2.89A13.24,13.24,0,0,0,369,642a12.7,12.7,0,0,0-4.21,2.89,14.14,14.14,0,0,0-2.83,4.27,13,13,0,0,0-1.05,5.19V693a4.08,4.08,0,1,1-8.15,0V654.31a13.86,13.86,0,0,0-4.14-9.59,13.24,13.24,0,0,0-18.54-.07,13.42,13.42,0,0,0-4,9.14V693a4.08,4.08,0,1,1-8.15,0V637.22Z"/><path class="cls-3" d="M433.81,633.41a29,29,0,0,1,12,2.56,33.09,33.09,0,0,1,17,17,30.92,30.92,0,0,1,.07,24.52,32.89,32.89,0,0,1-6.77,10.05,31.26,31.26,0,0,1-22.55,9.34,31.77,31.77,0,0,1-12.29-2.37A31.4,31.4,0,0,1,411.2,688a30.84,30.84,0,0,1-6.84-10,31.58,31.58,0,0,1-2.49-12.62,31.13,31.13,0,0,1,2.42-12.3,31.47,31.47,0,0,1,6.71-10,32.64,32.64,0,0,1,10.13-6.83,34.67,34.67,0,0,1,12.68-2.83Zm-23.8,32a23,23,0,0,0,1.84,9.14,23.84,23.84,0,0,0,12.56,12.55,22.83,22.83,0,0,0,9.14,1.84,23.26,23.26,0,0,0,9.2-1.84,23.59,23.59,0,0,0,12.62-12.55,22.83,22.83,0,0,0,1.85-9.14,23.81,23.81,0,0,0-6.91-16.77,23.73,23.73,0,0,0-7.56-5.06,23.43,23.43,0,0,0-9.2-1.84,23,23,0,0,0-9.14,1.84,24,24,0,0,0-7.49,5.06,23.63,23.63,0,0,0-5.07,7.57,23.4,23.4,0,0,0-1.84,9.2Z"/><path class="cls-4" d="M469.7,637.22a4.08,4.08,0,1,1,8.16,0v6.44A31.76,31.76,0,0,1,488,636.1a31.13,31.13,0,0,1,12.89-3,4.68,4.68,0,0,1,3.35,1.19,4,4,0,0,1,0,5.78,4.68,4.68,0,0,1-3.35,1.19,22.66,22.66,0,0,0-8.81,2,24.8,24.8,0,0,0-7.17,4.86,24.07,24.07,0,0,0-5,7.1,21.64,21.64,0,0,0-2,8.69V693a4.08,4.08,0,1,1-8.16,0V637.22Z"/><path class="cls-4" d="M541.65,646q-1-2.49-4.54-3.75a22.68,22.68,0,0,0-7.69-1.25,33.33,33.33,0,0,0-4.53.33,12.27,12.27,0,0,0-4.14,1.32,9.07,9.07,0,0,0-3.09,2.69,7.35,7.35,0,0,0-1.25,4.47,5,5,0,0,0,1.25,3.42,10.19,10.19,0,0,0,3.15,2.43,17.64,17.64,0,0,0,4.21,1.52c1.53.35,3,.65,4.4.92a51.78,51.78,0,0,1,9.14,2.3,28.53,28.53,0,0,1,7.5,3.88,18.35,18.35,0,0,1,5.12,5.65,14.92,14.92,0,0,1,1.91,7.62,17.24,17.24,0,0,1-1.84,8,18.62,18.62,0,0,1-5.06,6.18,23.42,23.42,0,0,1-7.56,3.94,30.19,30.19,0,0,1-9.21,1.38,27.3,27.3,0,0,1-14.52-3.81,18.48,18.48,0,0,1-8.35-10.52,4.25,4.25,0,0,1,.26-3.28,4,4,0,0,1,2.63-2.11,3.8,3.8,0,0,1,3.22.39,5.17,5.17,0,0,1,2.17,2.63,12.21,12.21,0,0,0,5.85,6.38,18.55,18.55,0,0,0,8.74,2.17,19.58,19.58,0,0,0,11-3,9.42,9.42,0,0,0,4.54-8.35q0-4.33-4.47-7.36a25.86,25.86,0,0,0-11.05-3.94q-9.46-1.32-15.31-5.2a12.64,12.64,0,0,1-5.86-11.24A14.51,14.51,0,0,1,515,637a20.76,20.76,0,0,1,6.84-2.83,34.76,34.76,0,0,1,7.62-.85,33.5,33.5,0,0,1,6.25.59,27.46,27.46,0,0,1,5.72,1.71,18.08,18.08,0,0,1,4.67,2.83,11.12,11.12,0,0,1,3.08,4.07,4.7,4.7,0,0,1,.4,3.62,3.66,3.66,0,0,1-2.76,2.56,3.19,3.19,0,0,1-3-.2,6.12,6.12,0,0,1-2.1-2.43Z"/><path class="cls-3" d="M590.37,633.41a29.08,29.08,0,0,1,12,2.56,33.09,33.09,0,0,1,17,17,30.14,30.14,0,0,1,2.57,12.36V693.1a4.08,4.08,0,1,1-8.16,0v-8a41.28,41.28,0,0,1-10.45,8.35,26.25,26.25,0,0,1-13.21,3.48,31.82,31.82,0,0,1-12.3-2.37,31.47,31.47,0,0,1-10-6.57,30.68,30.68,0,0,1-6.84-10,31.42,31.42,0,0,1-2.5-12.62,32.07,32.07,0,0,1,2.43-12.43,31.66,31.66,0,0,1,6.71-10.18,31.09,31.09,0,0,1,10.12-6.84,31.89,31.89,0,0,1,12.69-2.5Zm-23.8,32a23,23,0,0,0,1.84,9.14A23.75,23.75,0,0,0,581,687.05a23.48,23.48,0,0,0,18.08.06,23.72,23.72,0,0,0,7.43-4.92,24.3,24.3,0,0,0,5.13-7.43,26.32,26.32,0,0,0,2.16-9.4,23.22,23.22,0,0,0-1.84-9.2,23.59,23.59,0,0,0-21.82-14.47,23,23,0,0,0-9.14,1.84,24.14,24.14,0,0,0-7.5,5.06,23.77,23.77,0,0,0-5.06,7.57,23.4,23.4,0,0,0-1.84,9.2Z"/><path class="cls-5" d="M627.4,691.65a5.39,5.39,0,0,1,10.78,0,5.39,5.39,0,0,1-10.78,0Z"/><path class="cls-5" d="M691.69,648.26a27.46,27.46,0,0,0-7.49-4.66,23.81,23.81,0,0,0-18.21.06,23.54,23.54,0,0,0-12.56,12.63,23.22,23.22,0,0,0-1.84,9.2,22.83,22.83,0,0,0,1.84,9.14A23.75,23.75,0,0,0,666,687.18a22.79,22.79,0,0,0,9.14,1.84,23.17,23.17,0,0,0,9.07-1.77,24.67,24.67,0,0,0,7.49-4.93,4.12,4.12,0,0,1,5.79,0,3.79,3.79,0,0,1,1.12,2.95,4.75,4.75,0,0,1-1.52,3.23,28.63,28.63,0,0,1-3.22,2.69A28.19,28.19,0,0,1,689,694a35.08,35.08,0,0,1-6.31,2.17,31.65,31.65,0,0,1-7.56.85,32,32,0,0,1-12.3-2.36,31.66,31.66,0,0,1-10.05-6.58,30.58,30.58,0,0,1-6.84-10,31.59,31.59,0,0,1-2.5-12.62,31.09,31.09,0,0,1,2.43-12.29,31.41,31.41,0,0,1,6.71-10,33.08,33.08,0,0,1,10.12-6.84,34.92,34.92,0,0,1,12.69-2.82,25.72,25.72,0,0,1,7.3,1,35,35,0,0,1,6,2.36,34.2,34.2,0,0,1,4.8,3c1.4,1,2.53,2,3.42,2.76a5.4,5.4,0,0,1,1.37,2.43,3,3,0,0,1-.85,3.22,4.12,4.12,0,0,1-5.79,0Z"/><path class="cls-6" d="M733.27,633.41a29,29,0,0,1,12,2.56,33.09,33.09,0,0,1,17,17,31,31,0,0,1,.06,24.52,32.89,32.89,0,0,1-6.77,10.05,32,32,0,0,1-44.89.4,30.53,30.53,0,0,1-6.84-10,31.73,31.73,0,0,1,6.64-34.91,32.71,32.71,0,0,1,10.12-6.83,34.76,34.76,0,0,1,12.69-2.83Zm-23.8,32a23,23,0,0,0,1.84,9.14,23.84,23.84,0,0,0,12.56,12.55,22.79,22.79,0,0,0,9.14,1.84,23.29,23.29,0,0,0,9.2-1.84,23.56,23.56,0,0,0,7.56-5.06,23.81,23.81,0,0,0,5.06-7.49,22.83,22.83,0,0,0,1.84-9.14,23.22,23.22,0,0,0-1.84-9.2A23.59,23.59,0,0,0,733,641.69a23,23,0,0,0-9.14,1.84,23.63,23.63,0,0,0-12.56,12.63,23.4,23.4,0,0,0-1.84,9.2Z"/><path class="cls-5" d="M770.74,637.22a4.08,4.08,0,1,1,8.15,0v1.45a23,23,0,0,1,5.85-4.08,16.17,16.17,0,0,1,7.43-1.84,20.47,20.47,0,0,1,10,2.44,21.37,21.37,0,0,1,7.37,6.5,22.58,22.58,0,0,1,7.48-6.5,20.53,20.53,0,0,1,10-2.44,20.91,20.91,0,0,1,8.41,1.71,21.45,21.45,0,0,1,11.44,11.44,20.94,20.94,0,0,1,1.71,8.41V693a4.08,4.08,0,1,1-8.15,0V654.31a13,13,0,0,0-1-5.19A13.59,13.59,0,0,0,832.2,642a13.26,13.26,0,0,0-10.39,0,12.76,12.76,0,0,0-4.2,2.89,13.93,13.93,0,0,0-2.82,4.27,12.82,12.82,0,0,0-1.06,5.19V693a4.08,4.08,0,1,1-8.15,0V654.31a13.82,13.82,0,0,0-4.14-9.59,13.24,13.24,0,0,0-18.54-.07,13.46,13.46,0,0,0-4,9.14V693a4.08,4.08,0,1,1-8.15,0V637.22Z"/></svg>