<svg id="Capa_1" data-name="Capa 1" xmlns="http://www.w3.org/2000/svg" viewBox="0 0 1080 1080"><defs><style>.cls-1,.cls-6{fill:#fff;}.cls-2,.cls-3,.cls-4,.cls-5{fill:none;}.cls-2,.cls-3,.cls-4,.cls-6{stroke:#000;}.cls-2,.cls-3{stroke-linecap:round;}.cls-2{stroke-width:6.02px;}.cls-3{stroke-width:9.03px;}.cls-4{stroke-width:30.1px;}.cls-5{stroke:#fff;stroke-width:15.05px;}.cls-6{stroke-width:1.5px;}</style></defs><rect class="cls-1" width="1080" height="1080"/><line class="cls-2" x1="820.85" y1="630.07" x2="820.85" y2="685.08"/><line class="cls-3" x1="830.98" y1="630.07" x2="830.98" y2="704.99"/><line class="cls-2" x1="841.1" y1="630.07" x2="841.1" y2="670.23"/><circle cx="811.4" cy="660.11" r="3.04"/><circle cx="841.1" cy="679.01" r="3.71"/><circle class="cls-4" cx="827.75" cy="581.62" r="59.4"/><circle class="cls-5" cx="827.75" cy="581.62" r="59.4"/><circle cx="827.75" cy="581.62" r="59.4"/><path class="cls-6" d="M851.17,543.58a5.57,5.57,0,0,0-5.43,5.7v27h-2.53V540.72a5.44,5.44,0,1,0-10.86,0V576.3h-2.53V534.05a5.44,5.44,0,1,0-10.86,0V576.3h-2.54V540.72a5.43,5.43,0,1,0-10.85,0v51l-7.49-11.44a5.26,5.26,0,0,0-7.51-1.68,5.88,5.88,0,0,0-1.6,7.89l15.3,27.81c4.5,7.65,14.46,14.52,24.8,14.52,16.52,0,26.82-12.08,26.82-27l.71-25.57v-27A5.57,5.57,0,0,0,851.17,543.58Z"/><rect class="cls-1" x="815.15" y="618.51" width="29.25" height="25.61"/><path d="M230.48,497.29V459.66h-9.4l-28.22-28.21h37.62V393.82H258.7v75.25h56.44v28.22Z"/><path d="M324.54,497.29V459.66h-9.4l-28.22-28.21h37.62V393.82H409.2V422H352.76v9.41H409.2v28.21H352.76v9.41H409.2v28.22Z"/><path d="M475,506.69v-9.4H418.6V393.82h84.66V422H446.82v47H475v-9.41H456.23V431.45h47V534.91Z"/><path d="M512.66,497.29V459.66h-9.4L475,431.45h37.62V393.82h84.66V422H540.88v9.41h56.44v28.21H540.88v9.41h56.44v28.22Z"/><path d="M634.94,459.66v37.63H606.73V375l56.43,56.44V393.82h28.22V516.1Z"/><path d="M700.79,497.29V431.45H729v37.62h28.22V422H691.38l-28.22-28.22H785.44V497.29Z"/><path d="M794.85,497.29V469.07h56.43v-9.41H794.85V393.82H879.5V422H823.07v9.41H879.5v65.84Z"/><path d="M343.92,635.75V598.12H315.7v37.63H287.48V598.12h-9.4L249.86,569.9h37.62V532.28H315.7V569.9h28.22V532.28h28.22V664Z"/><path d="M381.54,635.75V598.12h-9.4L343.92,569.9h37.62V532.28H466.2V560.5H409.76v9.4H466.2v28.22H409.76v9.41H466.2v28.22Z"/><path d="M475,635.75V522.87l47.59,47,47-47V635.75H541.45V598.12l-18.82,18.81-18.81-18.81v37.63Z"/><path d="M579.07,635.75V598.12h-9.41L541.45,569.9h37.62V532.28h84.66V635.75H635.51V598.12H607.29v37.63Zm56.44-65.85v-9.4H607.29v9.4Z"/><path d="M701.35,635.75V560.5H673.13V532.28h84.66V560.5H729.57v75.25Z"/><path class="cls-4" d="M230.48,497.29V459.66h-9.4l-28.22-28.21h37.62V393.82H258.7v75.25h56.44v28.22Z"/><path class="cls-4" d="M324.54,497.29V459.66h-9.4l-28.22-28.21h37.62V393.82H409.2V422H352.76v9.41H409.2v28.21H352.76v9.41H409.2v28.22Z"/><path class="cls-4" d="M475,506.69v-9.4H418.6V393.82h84.66V422H446.82v47H475v-9.41H456.23V431.45h47V534.91Z"/><path class="cls-4" d="M512.66,497.29V459.66h-9.4L475,431.45h37.62V393.82h84.66V422H540.88v9.41h56.44v28.21H540.88v9.41h56.44v28.22Z"/><path class="cls-4" d="M634.94,459.66v37.63H606.73V375l56.43,56.44V393.82h28.22V516.1Z"/><path class="cls-4" d="M700.79,497.29V431.45H729v37.62h28.22V422H691.38l-28.22-28.22H785.44V497.29Z"/><path class="cls-4" d="M794.85,497.29V469.07h56.43v-9.41H794.85V393.82H879.5V422H823.07v9.41H879.5v65.84Z"/><path class="cls-4" d="M343.92,635.75V598.12H315.7v37.63H287.48V598.12h-9.4L249.86,569.9h37.62V532.28H315.7V569.9h28.22V532.28h28.22V664Z"/><path class="cls-4" d="M381.54,635.75V598.12h-9.4L343.92,569.9h37.62V532.28H466.2V560.5H409.76v9.4H466.2v28.22H409.76v9.41H466.2v28.22Z"/><path class="cls-4" d="M475,635.75V522.87l47.59,47,47-47V635.75H541.45V598.12l-18.82,18.81-18.81-18.81v37.63Z"/><path class="cls-4" d="M579.07,635.75V598.12h-9.41L541.45,569.9h37.62V532.28h84.66V635.75H635.51V598.12H607.29v37.63Zm56.44-65.85v-9.4H607.29v9.4Z"/><path class="cls-4" d="M701.35,635.75V560.5H673.13V532.28h84.66V560.5H729.57v75.25Z"/><path class="cls-5" d="M230.48,497.29V459.66h-9.4l-28.22-28.21h37.62V393.82H258.7v75.25h56.44v28.22Z"/><path class="cls-5" d="M324.54,497.29V459.66h-9.4l-28.22-28.21h37.62V393.82H409.2V422H352.76v9.41H409.2v28.21H352.76v9.41H409.2v28.22Z"/><path class="cls-5" d="M475,506.69v-9.4H418.6V393.82h84.66V422H446.82v47H475v-9.41H456.23V431.45h47V534.91Z"/><path class="cls-5" d="M512.66,497.29V459.66h-9.4L475,431.45h37.62V393.82h84.66V422H540.88v9.41h56.44v28.21H540.88v9.41h56.44v28.22Z"/><path class="cls-5" d="M634.94,459.66v37.63H606.73V375l56.43,56.44V393.82h28.22V516.1Z"/><path class="cls-5" d="M700.79,497.29V431.45H729v37.62h28.22V422H691.38l-28.22-28.22H785.44V497.29Z"/><path class="cls-5" d="M794.85,497.29V469.07h56.43v-9.41H794.85V393.82H879.5V422H823.07v9.41H879.5v65.84Z"/><path class="cls-5" d="M343.92,635.75V598.12H315.7v37.63H287.48V598.12h-9.4L249.86,569.9h37.62V532.28H315.7V569.9h28.22V532.28h28.22V664Z"/><path class="cls-5" d="M381.54,635.75V598.12h-9.4L343.92,569.9h37.62V532.28H466.2V560.5H409.76v9.4H466.2v28.22H409.76v9.41H466.2v28.22Z"/><path class="cls-5" d="M475,635.75V522.87l47.59,47,47-47V635.75H541.45V598.12l-18.82,18.81-18.81-18.81v37.63Z"/><path class="cls-5" d="M579.07,635.75V598.12h-9.41L541.45,569.9h37.62V532.28h84.66V635.75H635.51V598.12H607.29v37.63Zm56.44-65.85v-9.4H607.29v9.4Z"/><path class="cls-5" d="M701.35,635.75V560.5H673.13V532.28h84.66V560.5H729.57v75.25Z"/><path d="M230.48,497.29V459.66h-9.4l-28.22-28.21h37.62V393.82H258.7v75.25h56.44v28.22Z"/><path d="M324.54,497.29V459.66h-9.4l-28.22-28.21h37.62V393.82H409.2V422H352.76v9.41H409.2v28.21H352.76v9.41H409.2v28.22Z"/><path d="M475,506.69v-9.4H418.6V393.82h84.66V422H446.82v47H475v-9.41H456.23V431.45h47V534.91Z"/><path d="M512.66,497.29V459.66h-9.4L475,431.45h37.62V393.82h84.66V422H540.88v9.41h56.44v28.21H540.88v9.41h56.44v28.22Z"/><path d="M634.94,459.66v37.63H606.73V375l56.43,56.44V393.82h28.22V516.1Z"/><path d="M700.79,497.29V431.45H729v37.62h28.22V422H691.38l-28.22-28.22H785.44V497.29Z"/><path d="M794.85,497.29V469.07h56.43v-9.41H794.85V393.82H879.5V422H823.07v9.41H879.5v65.84Z"/><path d="M343.92,635.75V598.12H315.7v37.63H287.48V598.12h-9.4L249.86,569.9h37.62V532.28H315.7V569.9h28.22V532.28h28.22V664Z"/><path d="M381.54,635.75V598.12h-9.4L343.92,569.9h37.62V532.28H466.2V560.5H409.76v9.4H466.2v28.22H409.76v9.41H466.2v28.22Z"/><path d="M475,635.75V522.87l47.59,47,47-47V635.75H541.45V598.12l-18.82,18.81-18.81-18.81v37.63Z"/><path d="M579.07,635.75V598.12h-9.41L541.45,569.9h37.62V532.28h84.66V635.75H635.51V598.12H607.29v37.63Zm56.44-65.85v-9.4H607.29v9.4Z"/><path d="M701.35,635.75V560.5H673.13V532.28h84.66V560.5H729.57v75.25Z"/><path d="M209.74,550.24v-33h27v33Zm18-9v-15h-9v15Z"/><path d="M239.73,550.24v-33h27v9h-18v3h18v9h-18v12Z"/></svg>