<svg id="Capa_1" data-name="Capa 1" xmlns="http://www.w3.org/2000/svg" viewBox="0 0 1080 1080"><defs><style>.cls-1,.cls-9{fill:#fff;}.cls-2,.cls-3{fill:#c3c4c5;}.cls-10,.cls-2,.cls-4,.cls-5,.cls-8,.cls-9{fill-rule:evenodd;}.cls-4,.cls-6{fill:#d26d1c;}.cls-5{fill:#6a6c6e;}.cls-10,.cls-7{fill:#f4d895;}.cls-8{fill:#e1e2e2;}</style></defs><rect class="cls-1" width="1080" height="1080"/><path class="cls-2" d="M253.56,823.82h3.38v3H257a3.27,3.27,0,0,1,.62-1,6.38,6.38,0,0,1,1.29-1.15,8,8,0,0,1,1.85-.92,6.46,6.46,0,0,1,8.3,3.15,6.08,6.08,0,0,1,2.61-2.65,7.25,7.25,0,0,1,3.41-.88,7.76,7.76,0,0,1,3.61.72,5.77,5.77,0,0,1,2.22,1.91,7.38,7.38,0,0,1,1.1,2.69,15.92,15.92,0,0,1,.3,3.11v11.09h-3.62v-10.6a15.89,15.89,0,0,0-.13-2.1,5.08,5.08,0,0,0-.59-1.76,3.33,3.33,0,0,0-1.25-1.22,5.15,5.15,0,0,0-5.86,1.14,7.06,7.06,0,0,0-1.13,4.14v10.4h-3.61v-10a21,21,0,0,0-.14-2.49,6,6,0,0,0-.56-1.95,3.11,3.11,0,0,0-1.21-1.28,4.1,4.1,0,0,0-2.11-.46,4.83,4.83,0,0,0-1.87.37,4.44,4.44,0,0,0-1.58,1.15,5.45,5.45,0,0,0-1.09,2,8.93,8.93,0,0,0-.4,2.79v9.88h-3.62Z"/><path class="cls-2" d="M301.93,831.77a7.23,7.23,0,0,0-.38-2.2,5,5,0,0,0-1-1.75,4.59,4.59,0,0,0-1.71-1.16,6.11,6.11,0,0,0-2.39-.43,5.83,5.83,0,0,0-2.43.5,6.09,6.09,0,0,0-1.88,1.31,6.34,6.34,0,0,0-1.18,1.78,5,5,0,0,0-.42,1.95Zm-11.41,2.9a4.72,4.72,0,0,0,.54,2.26,5.68,5.68,0,0,0,1.43,1.76,6.54,6.54,0,0,0,2.05,1.12,7.57,7.57,0,0,0,2.41.4,5.41,5.41,0,0,0,2.93-.78,9.23,9.23,0,0,0,2.29-2.07l2.73,2.09a10,10,0,0,1-8.44,3.89,10.25,10.25,0,0,1-4.07-.76,8.91,8.91,0,0,1-3.1-2.1,9.35,9.35,0,0,1-1.94-3.18,11.13,11.13,0,0,1-.69-4,10.25,10.25,0,0,1,.75-4,9.65,9.65,0,0,1,2-3.18,9.4,9.4,0,0,1,3.12-2.11,10,10,0,0,1,3.94-.76,9.37,9.37,0,0,1,4.27.88,8.37,8.37,0,0,1,2.88,2.32,9.42,9.42,0,0,1,1.63,3.2,13.6,13.6,0,0,1,.5,3.64v1.29Z"/><path class="cls-2" d="M309.54,817a2.66,2.66,0,1,1,.78,1.87A2.56,2.56,0,0,1,309.54,817Zm4.46,6.83v21.77c0,.49,0,1.13-.1,1.91a6.5,6.5,0,0,1-.65,2.3,5.09,5.09,0,0,1-1.72,1.91,6,6,0,0,1-3.36.8,7.85,7.85,0,0,1-1.19-.09,5.13,5.13,0,0,1-1.14-.28l.4-3.33c.22.08.46.16.72.23a3.58,3.58,0,0,0,.77.09,2.23,2.23,0,0,0,2.07-.94,5.43,5.43,0,0,0,.58-2.76V823.82Z"/><path class="cls-2" d="M318.82,833.34a9.69,9.69,0,0,1,.78-3.89,10.26,10.26,0,0,1,2.15-3.18,10,10,0,0,1,3.21-2.15,10.54,10.54,0,0,1,8,0,10.1,10.1,0,0,1,5.37,5.33,9.69,9.69,0,0,1,.78,3.89,9.9,9.9,0,0,1-.78,3.92,9.7,9.7,0,0,1-2.16,3.17,10.31,10.31,0,0,1-3.21,2.14,10.67,10.67,0,0,1-8,0,10.31,10.31,0,0,1-3.21-2.14,9.86,9.86,0,0,1-2.93-7.09Zm3.86,0a7.87,7.87,0,0,0,.43,2.67,6.2,6.2,0,0,0,1.25,2.1,5.82,5.82,0,0,0,2,1.36,7.06,7.06,0,0,0,5.22,0,5.82,5.82,0,0,0,2-1.36,6.2,6.2,0,0,0,1.25-2.1,7.87,7.87,0,0,0,.44-2.67,8,8,0,0,0-.44-2.67,6.06,6.06,0,0,0-1.25-2.09,5.85,5.85,0,0,0-2-1.37,7.2,7.2,0,0,0-5.22,0,5.85,5.85,0,0,0-2,1.37,6.06,6.06,0,0,0-1.25,2.09A8,8,0,0,0,322.68,833.34Z"/><path class="cls-2" d="M343.57,823.82h3.61v2.93h.08a5.24,5.24,0,0,1,1-1.39,6.64,6.64,0,0,1,1.36-1.06,6.78,6.78,0,0,1,1.62-.7,6,6,0,0,1,1.76-.26,5.4,5.4,0,0,1,1.61.23l-.16,3.91c-.29-.09-.59-.15-.88-.21a5.24,5.24,0,0,0-.88-.08,5.32,5.32,0,0,0-4.06,1.49,6.53,6.53,0,0,0-1.41,4.62v9.56h-3.61Z"/><path class="cls-2" d="M379.69,828.6a5.65,5.65,0,0,0-1.59-1.35,4.67,4.67,0,0,0-2.31-.53,4.51,4.51,0,0,0-2.23.53,1.73,1.73,0,0,0-.95,1.59,1.8,1.8,0,0,0,.55,1.37,4.11,4.11,0,0,0,1.29.84,6.75,6.75,0,0,0,1.58.48l1.45.29a16,16,0,0,1,2.19.68,6.41,6.41,0,0,1,1.77,1,4.56,4.56,0,0,1,1.16,1.57,5.41,5.41,0,0,1,.42,2.25,5.22,5.22,0,0,1-.68,2.75,5.77,5.77,0,0,1-1.77,1.87,7.62,7.62,0,0,1-2.47,1,12.56,12.56,0,0,1-2.79.31,11.29,11.29,0,0,1-4.16-.71A7.49,7.49,0,0,1,368,840l2.73-2.25a11.23,11.23,0,0,0,2,1.57,4.92,4.92,0,0,0,2.65.68,8.36,8.36,0,0,0,1.39-.13,4.43,4.43,0,0,0,1.24-.45,2.76,2.76,0,0,0,.89-.76,1.82,1.82,0,0,0,.34-1.07,1.84,1.84,0,0,0-.51-1.33,3.81,3.81,0,0,0-1.2-.82,9,9,0,0,0-1.49-.48l-1.39-.3a22.89,22.89,0,0,1-2.21-.65,6.69,6.69,0,0,1-1.84-1,4.36,4.36,0,0,1-1.29-1.53,4.93,4.93,0,0,1-.48-2.28,5.26,5.26,0,0,1,.62-2.6,5.79,5.79,0,0,1,1.65-1.83,7.54,7.54,0,0,1,2.33-1.08,9.43,9.43,0,0,1,2.63-.36,9.53,9.53,0,0,1,3.7.72,5.87,5.87,0,0,1,2.81,2.41Z"/><path class="cls-2" d="M386.41,833.34a9.69,9.69,0,0,1,.79-3.89,10.09,10.09,0,0,1,2.15-3.18,9.89,9.89,0,0,1,3.21-2.15,10.52,10.52,0,0,1,7.95,0,9.94,9.94,0,0,1,3.22,2.15,10.09,10.09,0,0,1,2.15,3.18,9.69,9.69,0,0,1,.78,3.89,9.86,9.86,0,0,1-2.93,7.09,10.24,10.24,0,0,1-3.22,2.14,10.24,10.24,0,0,1-11.16-2.14,9.92,9.92,0,0,1-2.94-7.09Zm3.86,0a7.87,7.87,0,0,0,.44,2.67,6.37,6.37,0,0,0,1.25,2.1,5.78,5.78,0,0,0,2,1.36,7.09,7.09,0,0,0,5.23,0,6,6,0,0,0,2-1.36,6.18,6.18,0,0,0,1.24-2.1,7.63,7.63,0,0,0,.45-2.67,7.71,7.71,0,0,0-.45-2.67,5.69,5.69,0,0,0-3.21-3.46,7.22,7.22,0,0,0-5.23,0,5.81,5.81,0,0,0-2,1.37,6.22,6.22,0,0,0-1.25,2.09A8,8,0,0,0,390.27,833.34Z"/><rect class="cls-3" x="411.44" y="812.49" width="3.61" height="30.37"/><path class="cls-2" d="M437.68,842.86h-3.62v-2.93H434a5.32,5.32,0,0,1-2.37,2.47,7.77,7.77,0,0,1-3.9.94,8,8,0,0,1-2.65-.42,5.93,5.93,0,0,1-2.19-1.3,6.4,6.4,0,0,1-1.51-2.27,8.78,8.78,0,0,1-.55-3.27V823.82h3.61v11.25a6.4,6.4,0,0,0,.36,2.27,4.26,4.26,0,0,0,1,1.53,3.76,3.76,0,0,0,1.39.84,5,5,0,0,0,1.63.26,5.86,5.86,0,0,0,2.08-.36,4.4,4.4,0,0,0,1.7-1.14,5.52,5.52,0,0,0,1.12-2,8.91,8.91,0,0,0,.4-2.85v-9.8h3.62Z"/><path class="cls-2" d="M456.73,828.88a7.57,7.57,0,0,0-2.1-1.58,5.84,5.84,0,0,0-2.64-.55,5.68,5.68,0,0,0-2.59.55,5.25,5.25,0,0,0-1.85,1.48,6.87,6.87,0,0,0-1.12,2.17,8.34,8.34,0,0,0-.39,2.55,7.25,7.25,0,0,0,.45,2.51,6.1,6.1,0,0,0,1.25,2.07,5.71,5.71,0,0,0,1.92,1.39,6.29,6.29,0,0,0,2.54.5,5.81,5.81,0,0,0,2.61-.54,6.87,6.87,0,0,0,2-1.59l2.57,2.58a8.07,8.07,0,0,1-3.28,2.24,11.86,11.86,0,0,1-8,0,9.6,9.6,0,0,1-3.14-2,9.12,9.12,0,0,1-2.06-3.14,11.72,11.72,0,0,1,0-8.09,9.58,9.58,0,0,1,2-3.18,9.25,9.25,0,0,1,3.13-2.07,11.4,11.4,0,0,1,8.08,0,8.68,8.68,0,0,1,3.31,2.27Z"/><path class="cls-2" d="M461.93,817a2.64,2.64,0,0,1,4.52-1.87,2.65,2.65,0,0,1-1.87,4.52,2.66,2.66,0,0,1-2.65-2.65Zm.84,6.83h3.62v19h-3.62Z"/><path class="cls-2" d="M471.21,833.34a9.69,9.69,0,0,1,.78-3.89,10.12,10.12,0,0,1,2.16-3.18,10,10,0,0,1,3.21-2.15,10.54,10.54,0,0,1,8,0,10,10,0,0,1,5.36,5.33,9.52,9.52,0,0,1,.78,3.89,9.86,9.86,0,0,1-2.93,7.09,10.31,10.31,0,0,1-3.21,2.14,10.67,10.67,0,0,1-8,0,10.31,10.31,0,0,1-3.21-2.14,9.82,9.82,0,0,1-2.94-7.09Zm3.86,0a7.87,7.87,0,0,0,.44,2.67,6.2,6.2,0,0,0,1.25,2.1,5.82,5.82,0,0,0,2,1.36,7.06,7.06,0,0,0,5.22,0,5.82,5.82,0,0,0,2-1.36,6.2,6.2,0,0,0,1.25-2.1,7.87,7.87,0,0,0,.43-2.67,8,8,0,0,0-.43-2.67,6.06,6.06,0,0,0-1.25-2.09,5.85,5.85,0,0,0-2-1.37,7.2,7.2,0,0,0-5.22,0,5.85,5.85,0,0,0-2,1.37,6.06,6.06,0,0,0-1.25,2.09A8,8,0,0,0,475.07,833.34Zm7.79-18.92H488l-6,5.78h-3.34Z"/><path class="cls-2" d="M496,823.82h3.62v2.93h.08a5.27,5.27,0,0,1,2.37-2.47,7.82,7.82,0,0,1,3.9-.94,8.26,8.26,0,0,1,2.62.42,5.9,5.9,0,0,1,2.22,1.3,6.54,6.54,0,0,1,1.51,2.27,8.84,8.84,0,0,1,.55,3.28v12.25h-3.61V831.61a6.44,6.44,0,0,0-.36-2.27,4,4,0,0,0-1-1.52,3.67,3.67,0,0,0-1.38-.85,5.19,5.19,0,0,0-1.63-.25,6.19,6.19,0,0,0-2.09.35,4.36,4.36,0,0,0-1.68,1.15,5.14,5.14,0,0,0-1.13,2,9,9,0,0,0-.4,2.85v9.8H496Z"/><path class="cls-2" d="M527.13,823.82h4.19L537,838.69h.08l5.38-14.87h3.91L537.3,847a23.31,23.31,0,0,1-1,2.27,6.57,6.57,0,0,1-1.25,1.75,5,5,0,0,1-1.75,1.13,7,7,0,0,1-2.5.4,12.85,12.85,0,0,1-1.63-.1,6.11,6.11,0,0,1-1.59-.42l.44-3.3a5.8,5.8,0,0,0,2.17.44,4.27,4.27,0,0,0,1.43-.21,3,3,0,0,0,1-.66,3.35,3.35,0,0,0,.7-1c.19-.37.38-.8.57-1.28l1.16-3Z"/><path class="cls-2" d="M560.62,823.82H564v3h.08a3.27,3.27,0,0,1,.62-1,6.38,6.38,0,0,1,1.29-1.15,8.19,8.19,0,0,1,1.85-.92,6.46,6.46,0,0,1,8.3,3.15,6.08,6.08,0,0,1,2.61-2.65,7.25,7.25,0,0,1,3.41-.88,7.76,7.76,0,0,1,3.61.72A5.77,5.77,0,0,1,588,826a7.38,7.38,0,0,1,1.1,2.69,15.92,15.92,0,0,1,.3,3.11v11.09h-3.62v-10.6a15.89,15.89,0,0,0-.13-2.1,4.88,4.88,0,0,0-.59-1.76,3.3,3.3,0,0,0-1.24-1.22,5.17,5.17,0,0,0-5.87,1.14,7.06,7.06,0,0,0-1.13,4.14v10.4H573.2v-10a21,21,0,0,0-.14-2.49,6,6,0,0,0-.56-1.95,3,3,0,0,0-1.21-1.28,4.1,4.1,0,0,0-2.11-.46,4.87,4.87,0,0,0-1.87.37,4.44,4.44,0,0,0-1.58,1.15,5.45,5.45,0,0,0-1.09,2,8.93,8.93,0,0,0-.4,2.79v9.88h-3.62Z"/><path class="cls-2" d="M609,831.77a7.23,7.23,0,0,0-.38-2.2,5,5,0,0,0-1-1.75,4.59,4.59,0,0,0-1.71-1.16,6.11,6.11,0,0,0-2.39-.43,5.83,5.83,0,0,0-2.43.5,6.09,6.09,0,0,0-1.88,1.31,6.34,6.34,0,0,0-1.18,1.78,5,5,0,0,0-.42,1.95Zm-11.41,2.9a4.72,4.72,0,0,0,.54,2.26,5.68,5.68,0,0,0,1.43,1.76,6.54,6.54,0,0,0,2.05,1.12,7.57,7.57,0,0,0,2.41.4,5.41,5.41,0,0,0,2.93-.78,9.23,9.23,0,0,0,2.29-2.07l2.73,2.09a10,10,0,0,1-8.44,3.89,10.25,10.25,0,0,1-4.07-.76,8.91,8.91,0,0,1-3.1-2.1,9.35,9.35,0,0,1-1.94-3.18,11.13,11.13,0,0,1-.69-4,10.25,10.25,0,0,1,.75-4,9.81,9.81,0,0,1,2-3.18,9.4,9.4,0,0,1,3.12-2.11,10,10,0,0,1,3.94-.76,9.44,9.44,0,0,1,4.28.88,8.42,8.42,0,0,1,2.87,2.32,9.24,9.24,0,0,1,1.63,3.2,13.6,13.6,0,0,1,.5,3.64v1.29Z"/><path class="cls-2" d="M616.6,817a2.66,2.66,0,1,1,.78,1.87A2.56,2.56,0,0,1,616.6,817Zm4.46,6.83v21.77c0,.49,0,1.13-.1,1.91a6.5,6.5,0,0,1-.65,2.3,5,5,0,0,1-1.72,1.91,6,6,0,0,1-3.36.8,8,8,0,0,1-1.19-.09,5.13,5.13,0,0,1-1.14-.28l.41-3.33a7.44,7.44,0,0,0,.71.23,3.58,3.58,0,0,0,.77.09,2.23,2.23,0,0,0,2.07-.94,5.43,5.43,0,0,0,.58-2.76V823.82Z"/><path class="cls-2" d="M625.88,833.34a9.69,9.69,0,0,1,.78-3.89,10.26,10.26,0,0,1,2.15-3.18,10,10,0,0,1,3.21-2.15,10.14,10.14,0,0,1,13.33,5.33,9.69,9.69,0,0,1,.78,3.89,9.86,9.86,0,0,1-2.93,7.09,10.48,10.48,0,0,1-3.22,2.14,10.67,10.67,0,0,1-8,0,10.31,10.31,0,0,1-3.21-2.14,9.86,9.86,0,0,1-2.93-7.09Zm3.86,0a7.87,7.87,0,0,0,.43,2.67,6.2,6.2,0,0,0,1.25,2.1,5.92,5.92,0,0,0,2,1.36,7.06,7.06,0,0,0,5.22,0,5.82,5.82,0,0,0,2-1.36,6.2,6.2,0,0,0,1.25-2.1,7.87,7.87,0,0,0,.44-2.67,8,8,0,0,0-.44-2.67,6.06,6.06,0,0,0-1.25-2.09,5.85,5.85,0,0,0-2-1.37,7.2,7.2,0,0,0-5.22,0,6,6,0,0,0-2,1.37,6.06,6.06,0,0,0-1.25,2.09A8,8,0,0,0,629.74,833.34Z"/><path class="cls-2" d="M650.63,823.82h3.61v2.93h.08a5.24,5.24,0,0,1,1-1.39,6.64,6.64,0,0,1,1.36-1.06,7,7,0,0,1,1.62-.7,6,6,0,0,1,1.76-.26,5.35,5.35,0,0,1,1.61.23l-.16,3.91c-.29-.09-.59-.15-.88-.21a5.24,5.24,0,0,0-.88-.08,5.32,5.32,0,0,0-4.06,1.49,6.53,6.53,0,0,0-1.41,4.62v9.56h-3.61Z"/><path class="cls-2" d="M686.91,833.71a26.3,26.3,0,0,0-2.63.13,11.24,11.24,0,0,0-2.46.54,4.94,4.94,0,0,0-1.8,1.13,2.54,2.54,0,0,0-.71,1.85,2.62,2.62,0,0,0,1.11,2.37,5.44,5.44,0,0,0,3,.72A5.75,5.75,0,0,0,686,840a4.82,4.82,0,0,0,1.68-1.3,5.11,5.11,0,0,0,.93-1.79,7,7,0,0,0,.28-2v-1.2Zm-10.21-7.56a10.08,10.08,0,0,1,3.54-2.11,12,12,0,0,1,4-.7,11.05,11.05,0,0,1,3.61.52,7,7,0,0,1,2.46,1.41,5.46,5.46,0,0,1,1.43,2,6.24,6.24,0,0,1,.46,2.39v9.72c0,.66,0,1.28,0,1.85s.06,1.09.11,1.6h-3.21c-.08-1-.12-1.92-.12-2.89H689a6.8,6.8,0,0,1-2.86,2.61,9.57,9.57,0,0,1-6.34.4,6,6,0,0,1-2.11-1.08,5.09,5.09,0,0,1-1.42-1.79,5.38,5.38,0,0,1-.53-2.47,5.55,5.55,0,0,1,.82-3.09,6.27,6.27,0,0,1,2.26-2,10.73,10.73,0,0,1,3.32-1.12,23.08,23.08,0,0,1,4.09-.35h2.65v-.8a3.89,3.89,0,0,0-.28-1.45,4,4,0,0,0-.85-1.31,4.21,4.21,0,0,0-1.4-.92,5.56,5.56,0,0,0-2-.34,7.65,7.65,0,0,0-1.83.2,8,8,0,0,0-1.43.5,6.09,6.09,0,0,0-1.16.71l-1,.76Z"/><path class="cls-2" d="M711,828.88a7.72,7.72,0,0,0-2.1-1.58,5.84,5.84,0,0,0-2.64-.55,5.71,5.71,0,0,0-2.59.55,5,5,0,0,0-1.84,1.48,6.5,6.5,0,0,0-1.13,2.17,8.34,8.34,0,0,0-.39,2.55,7.25,7.25,0,0,0,.45,2.51,6.26,6.26,0,0,0,1.25,2.07,5.71,5.71,0,0,0,1.92,1.39,6.21,6.21,0,0,0,2.53.5,5.79,5.79,0,0,0,2.61-.54,6.91,6.91,0,0,0,2-1.59l2.56,2.58a8,8,0,0,1-3.27,2.24,11.33,11.33,0,0,1-4,.68,11.2,11.2,0,0,1-4-.71,9.65,9.65,0,0,1-3.15-2,9.1,9.1,0,0,1-2-3.14,11.72,11.72,0,0,1,0-8.09,9.42,9.42,0,0,1,2-3.18,9.1,9.1,0,0,1,3.14-2.07,10.77,10.77,0,0,1,4.07-.74,11,11,0,0,1,4,.74,8.88,8.88,0,0,1,3.32,2.27Z"/><path class="cls-2" d="M727.09,833.71a26.3,26.3,0,0,0-2.63.13,11.12,11.12,0,0,0-2.46.54,4.94,4.94,0,0,0-1.8,1.13,2.54,2.54,0,0,0-.7,1.85,2.62,2.62,0,0,0,1.1,2.37,5.46,5.46,0,0,0,3,.72,5.66,5.66,0,0,0,2.52-.5,4.77,4.77,0,0,0,1.69-1.3,5.11,5.11,0,0,0,.93-1.79,7,7,0,0,0,.28-2v-1.2Zm-10.2-7.56a10,10,0,0,1,3.53-2.11,12.06,12.06,0,0,1,4-.7,11,11,0,0,1,3.6.52,6.94,6.94,0,0,1,2.47,1.41,5.57,5.57,0,0,1,1.43,2,6.24,6.24,0,0,1,.46,2.39v9.72c0,.66,0,1.28.05,1.85s.06,1.09.12,1.6h-3.22c-.08-1-.12-1.92-.12-2.89h-.08a6.8,6.8,0,0,1-2.86,2.61,9.6,9.6,0,0,1-6.35.4,6.07,6.07,0,0,1-2.1-1.08,5.23,5.23,0,0,1-1.43-1.79,5.65,5.65,0,0,1-.52-2.47,5.4,5.4,0,0,1,.83-3.09,6.12,6.12,0,0,1,2.24-2,10.76,10.76,0,0,1,3.34-1.12,22.88,22.88,0,0,1,4.08-.35H729v-.8a3.89,3.89,0,0,0-.28-1.45,4,4,0,0,0-.85-1.31,4.32,4.32,0,0,0-1.4-.92,5.52,5.52,0,0,0-2-.34,7.59,7.59,0,0,0-1.83.2,7.73,7.73,0,0,0-1.43.5,6.09,6.09,0,0,0-1.16.71l-1,.76Z"/><path class="cls-2" d="M747.48,840a6.65,6.65,0,0,0,2.62-.5,6,6,0,0,0,2-1.36,6.18,6.18,0,0,0,1.24-2.1,7.63,7.63,0,0,0,.44-2.67,7.71,7.71,0,0,0-.44-2.67,5.69,5.69,0,0,0-3.21-3.46,7.22,7.22,0,0,0-5.23,0,5.69,5.69,0,0,0-3.21,3.46,7.71,7.71,0,0,0-.44,2.67,7.63,7.63,0,0,0,.44,2.67,6.18,6.18,0,0,0,1.24,2.1,6,6,0,0,0,2,1.36A6.64,6.64,0,0,0,747.48,840Zm-9.87-27.48h3.61v14.06h.07a6.73,6.73,0,0,1,2.78-2.35,8.9,8.9,0,0,1,3.86-.86,10,10,0,0,1,4,.76,9,9,0,0,1,3.06,2.11,9.13,9.13,0,0,1,1.95,3.18,11.78,11.78,0,0,1,0,7.89,9.46,9.46,0,0,1-1.95,3.17,8.61,8.61,0,0,1-3.06,2.13,9.86,9.86,0,0,1-4,.76,9.05,9.05,0,0,1-3.76-.83,7,7,0,0,1-2.88-2.38h-.07v2.73h-3.61Z"/><path class="cls-2" d="M772.38,833.71a26.35,26.35,0,0,0-2.64.13,11,11,0,0,0-2.45.54,5,5,0,0,0-1.81,1.13,2.58,2.58,0,0,0-.7,1.85,2.64,2.64,0,0,0,1.1,2.37,5.46,5.46,0,0,0,3,.72,5.74,5.74,0,0,0,2.53-.5,5,5,0,0,0,1.69-1.3,5.25,5.25,0,0,0,.92-1.79,7,7,0,0,0,.28-2v-1.2Zm-10.21-7.56A10.13,10.13,0,0,1,765.7,824a12.11,12.11,0,0,1,4-.7,11,11,0,0,1,3.6.52,7.11,7.11,0,0,1,2.47,1.41,5.55,5.55,0,0,1,1.42,2,6.24,6.24,0,0,1,.46,2.39v9.72c0,.66,0,1.28.05,1.85s.07,1.09.12,1.6h-3.22c-.08-1-.12-1.92-.12-2.89h-.08a6.84,6.84,0,0,1-2.85,2.61,9.6,9.6,0,0,1-6.35.4,6.11,6.11,0,0,1-2.11-1.08,5.09,5.09,0,0,1-1.42-1.79,6.19,6.19,0,0,1,.3-5.56,6.24,6.24,0,0,1,2.25-2,10.7,10.7,0,0,1,3.33-1.12,22.88,22.88,0,0,1,4.08-.35h2.65v-.8a3.89,3.89,0,0,0-.28-1.45,3.94,3.94,0,0,0-2.25-2.23,5.52,5.52,0,0,0-2-.34,7.56,7.56,0,0,0-1.82.2,7.48,7.48,0,0,0-1.43.5,6.18,6.18,0,0,0-1.17.71l-1,.76Z"/><path class="cls-2" d="M792.09,840a6.64,6.64,0,0,0,2.61-.5,5.92,5.92,0,0,0,2-1.36,6.18,6.18,0,0,0,1.24-2.1,7.63,7.63,0,0,0,.44-2.67,7.71,7.71,0,0,0-.44-2.67,6,6,0,0,0-1.24-2.09,6,6,0,0,0-2-1.37,7.2,7.2,0,0,0-5.22,0,5.85,5.85,0,0,0-2,1.37,6.06,6.06,0,0,0-1.25,2.09,8,8,0,0,0-.44,2.67,7.87,7.87,0,0,0,.44,2.67,6.2,6.2,0,0,0,1.25,2.1,5.82,5.82,0,0,0,2,1.36A6.6,6.6,0,0,0,792.09,840Zm9.88,2.89h-3.62v-2.73h-.08a6.89,6.89,0,0,1-2.87,2.38,9.05,9.05,0,0,1-3.76.83,9.83,9.83,0,0,1-4-.76,8.7,8.7,0,0,1-3.06-2.13,9.6,9.6,0,0,1-1.94-3.17,11.62,11.62,0,0,1,0-7.89,9.26,9.26,0,0,1,1.94-3.18,9.05,9.05,0,0,1,3.06-2.11,10,10,0,0,1,4-.76,8.93,8.93,0,0,1,3.86.86,6.58,6.58,0,0,1,2.77,2.35h.08V812.49H802Z"/><path class="cls-2" d="M806.45,833.34a9.52,9.52,0,0,1,.78-3.89,10.26,10.26,0,0,1,2.15-3.18,10,10,0,0,1,3.21-2.15,10.54,10.54,0,0,1,8,0,10.1,10.1,0,0,1,5.37,5.33,9.69,9.69,0,0,1,.78,3.89,9.9,9.9,0,0,1-.78,3.92,9.7,9.7,0,0,1-2.16,3.17,10.31,10.31,0,0,1-3.21,2.14,10.67,10.67,0,0,1-8,0,10.31,10.31,0,0,1-3.21-2.14,10,10,0,0,1-2.15-3.17A9.73,9.73,0,0,1,806.45,833.34Zm3.86,0a7.87,7.87,0,0,0,.43,2.67,6.2,6.2,0,0,0,1.25,2.1,5.82,5.82,0,0,0,2,1.36,7.06,7.06,0,0,0,5.22,0,5.82,5.82,0,0,0,2-1.36,6.2,6.2,0,0,0,1.25-2.1,7.87,7.87,0,0,0,.44-2.67,8,8,0,0,0-.44-2.67,6.06,6.06,0,0,0-1.25-2.09,5.85,5.85,0,0,0-2-1.37,7.2,7.2,0,0,0-5.22,0,5.85,5.85,0,0,0-2,1.37,6.06,6.06,0,0,0-1.25,2.09A8,8,0,0,0,810.31,833.34Z"/><path class="cls-4" d="M555.08,786.07a1.65,1.65,0,0,1-1.21-.49,1.68,1.68,0,0,1-.5-1.22v-6.85h-6.79a1.72,1.72,0,1,1,0-3.43h6.79v-6.84a1.72,1.72,0,1,1,3.43,0v6.84h6.85a1.68,1.68,0,0,1,1.22.5,1.64,1.64,0,0,1,.49,1.21,1.66,1.66,0,0,1-.49,1.22,1.68,1.68,0,0,1-1.22.5H556.8v6.85a1.68,1.68,0,0,1-.5,1.22A1.66,1.66,0,0,1,555.08,786.07Z"/><path class="cls-5" d="M192.86,759.34a1.69,1.69,0,0,1,1.71-1.72,1.71,1.71,0,0,1,1.71,1.72v31.87a1.71,1.71,0,0,1-1.71,1.71,1.69,1.69,0,0,1-1.71-1.71Z"/><path class="cls-5" d="M238.49,766.07l-10.22,25.69a2.35,2.35,0,0,1-.66.88,1.48,1.48,0,0,1-1,.39,1.44,1.44,0,0,1-1-.41,2.36,2.36,0,0,1-.61-.86l-10.44-26-3.65,25.63a1.73,1.73,0,0,1-.6,1.08,1.75,1.75,0,0,1-1.11.41,2,2,0,0,1-1.3-.63,1.56,1.56,0,0,1-.36-1.3l4.54-31.94a1.69,1.69,0,0,1,.57-1,1.66,1.66,0,0,1,1.14-.42,1.6,1.6,0,0,1,1.6,1l11.21,28,11.16-28a1.73,1.73,0,0,1,2.74-.61,1.94,1.94,0,0,1,.58,1.11L245,791a1.5,1.5,0,0,1-.36,1.31,2.1,2.1,0,0,1-1.14.57,1.93,1.93,0,0,1-1.26-.41,1.66,1.66,0,0,1-.61-1Z"/><path class="cls-5" d="M259,776.51v14.7a1.72,1.72,0,0,1-1.72,1.71,1.63,1.63,0,0,1-1.22-.5,1.67,1.67,0,0,1-.5-1.21V759.39a1.79,1.79,0,0,1,.5-1.24,1.62,1.62,0,0,1,1.22-.53h9a9.13,9.13,0,0,1,3.7.75,9.64,9.64,0,0,1,5,5,9,9,0,0,1,.75,3.64,9.43,9.43,0,0,1-2.79,6.69,10,10,0,0,1-3,2,9.3,9.3,0,0,1-3.7.74Zm7.29-3.42a5.8,5.8,0,0,0,2.32-.47,6.08,6.08,0,0,0,1.93-1.3,5.87,5.87,0,0,0,1.29-1.9,6,6,0,0,0,0-4.67,5.93,5.93,0,0,0-1.29-1.94,6.05,6.05,0,0,0-1.93-1.29,5.8,5.8,0,0,0-2.32-.47H259v12Z"/><path class="cls-5" d="M294.93,776.51H289.8v14.7a1.72,1.72,0,0,1-3.43,0V759.39a1.75,1.75,0,0,1,.5-1.24,1.61,1.61,0,0,1,1.21-.53h9.07a9.05,9.05,0,0,1,3.69.75,9.61,9.61,0,0,1,5.06,5,9,9,0,0,1,.75,3.64,9.16,9.16,0,0,1-.61,3.33,10.11,10.11,0,0,1-1.66,2.79,9.3,9.3,0,0,1-2.51,2.09,8.81,8.81,0,0,1-3.12,1.13l8.39,13.65a3.43,3.43,0,0,1,.45,1.27,1.39,1.39,0,0,1-.72,1.32,1.37,1.37,0,0,1-1.41.2,2.35,2.35,0,0,1-1.08-.91Zm2.22-3.42a5.8,5.8,0,0,0,2.32-.47,6.19,6.19,0,0,0,1.93-1.3,6,6,0,0,0,1.29-1.9,6,6,0,0,0,0-4.67,6.1,6.1,0,0,0-1.29-1.94,6.17,6.17,0,0,0-1.93-1.29,5.8,5.8,0,0,0-2.32-.47H289.8v12Z"/><path class="cls-5" d="M317.54,759.34a1.71,1.71,0,0,1,1.71-1.72h16.8a1.68,1.68,0,0,1,1.22.5,1.71,1.71,0,0,1,.5,1.22,1.71,1.71,0,0,1-1.72,1.71H321v12.31h10a1.68,1.68,0,0,1,1.22.5,1.75,1.75,0,0,1,0,2.43,1.69,1.69,0,0,1-1.22.51H321v12.7h15.08a1.69,1.69,0,0,1,1.72,1.71,1.67,1.67,0,0,1-.5,1.21,1.64,1.64,0,0,1-1.22.5h-16.8a1.71,1.71,0,0,1-1.71-1.71Z"/><path class="cls-5" d="M359.19,792.92a13.8,13.8,0,0,1-3.22-.41,15.59,15.59,0,0,1-3.21-1.17,13.31,13.31,0,0,1-2.76-1.78,7.91,7.91,0,0,1-1.91-2.32,1.73,1.73,0,0,1-.19-1.36,1.77,1.77,0,0,1,.85-1.07,1.66,1.66,0,0,1,1.36-.2,1.74,1.74,0,0,1,1.07.85,5.16,5.16,0,0,0,1.47,1.74,10.85,10.85,0,0,0,2.13,1.28,11.65,11.65,0,0,0,2.34.77,10.35,10.35,0,0,0,2.13.25,8.05,8.05,0,0,0,2.93-.55,8.34,8.34,0,0,0,2.52-1.5,7.28,7.28,0,0,0,1.73-2.23,6,6,0,0,0,.67-2.79,5.48,5.48,0,0,0-.58-2.6,6,6,0,0,0-1.63-1.93,12.35,12.35,0,0,0-2.49-1.5,28.42,28.42,0,0,0-3.09-1.21c-1.11-.33-2.27-.75-3.51-1.24a17.13,17.13,0,0,1-3.37-1.8,10,10,0,0,1-2.51-2.46,5.43,5.43,0,0,1-1-3.23,7.31,7.31,0,0,1,.94-3.73,9.32,9.32,0,0,1,2.43-2.76,10.89,10.89,0,0,1,3.34-1.71,12.18,12.18,0,0,1,3.68-.58,16.8,16.8,0,0,1,2.51.19,11.94,11.94,0,0,1,2.57.69A10.24,10.24,0,0,1,369,762.2a1.94,1.94,0,0,1,.33,1.47,1.59,1.59,0,0,1-.77,1.25,1.56,1.56,0,0,1-1.38.21,2,2,0,0,1-1.11-.82,5.89,5.89,0,0,0-1.54-1.75,7.49,7.49,0,0,0-1.8-1,6.93,6.93,0,0,0-1.82-.41c-.61-.06-1.15-.09-1.63-.09a10.12,10.12,0,0,0-2.32.28,7.33,7.33,0,0,0-2.24.88,5,5,0,0,0-1.68,1.63,4.57,4.57,0,0,0-.67,2.57,2.64,2.64,0,0,0,1,2,10,10,0,0,0,2.35,1.55,26.06,26.06,0,0,0,2.87,1.16c1,.33,1.85.62,2.54.88A35.28,35.28,0,0,1,365,773.7a12.69,12.69,0,0,1,2.95,2.09,8.84,8.84,0,0,1,1.93,2.83,9.53,9.53,0,0,1,.7,3.81,9.31,9.31,0,0,1-.95,4.14,10.61,10.61,0,0,1-2.51,3.34,11.89,11.89,0,0,1-3.62,2.21A11.6,11.6,0,0,1,359.19,792.92Z"/><path class="cls-5" d="M380.75,775.36a17.2,17.2,0,0,1,1.39-6.86,17.8,17.8,0,0,1,3.76-5.6,17.45,17.45,0,0,1,5.58-3.79,17.69,17.69,0,0,1,13.7,0,17.86,17.86,0,0,1,9.39,9.39,17.69,17.69,0,0,1,0,13.7,17.45,17.45,0,0,1-3.79,5.58,18,18,0,0,1-5.6,3.76,17.69,17.69,0,0,1-13.7,0,17.59,17.59,0,0,1-9.34-9.34A17.07,17.07,0,0,1,380.75,775.36Zm3.43,0a14.17,14.17,0,0,0,19.67,13,14.35,14.35,0,0,0,4.53-3,13.92,13.92,0,0,0,3-4.5,14.43,14.43,0,0,0,0-11,14.14,14.14,0,0,0-13.1-8.67,14.06,14.06,0,0,0-5.52,1.1,13.92,13.92,0,0,0-4.5,3,14.35,14.35,0,0,0-3,4.53A13.94,13.94,0,0,0,384.18,775.36Z"/><path class="cls-5" d="M435.26,776.51h-5.13v14.7a1.71,1.71,0,0,1-1.73,1.71,1.71,1.71,0,0,1-1.71-1.71V759.39a1.75,1.75,0,0,1,.5-1.24,1.61,1.61,0,0,1,1.21-.53h9.07a9.13,9.13,0,0,1,3.7.75,9.88,9.88,0,0,1,3,2,9.68,9.68,0,0,1,2,3,9,9,0,0,1,.76,3.64,9.16,9.16,0,0,1-.61,3.33,10.36,10.36,0,0,1-1.66,2.79,9.5,9.5,0,0,1-2.52,2.09,8.74,8.74,0,0,1-3.12,1.13l8.4,13.65a3.42,3.42,0,0,1,.44,1.27,1.63,1.63,0,0,1-2.12,1.52,2.3,2.3,0,0,1-1.08-.91Zm2.21-3.42a5.76,5.76,0,0,0,2.32-.47,6.08,6.08,0,0,0,1.93-1.3,5.9,5.9,0,0,0,1.3-1.9,6,6,0,0,0,0-4.67,6,6,0,0,0-1.3-1.94,6.05,6.05,0,0,0-1.93-1.29,5.76,5.76,0,0,0-2.32-.47h-7.34v12Z"/><path class="cls-5" d="M457.87,759.34a1.71,1.71,0,0,1,1.71-1.72h16.79a1.71,1.71,0,0,1,1.72,1.72,1.65,1.65,0,0,1-.5,1.21,1.67,1.67,0,0,1-1.22.5H461.29v12.31h10.06a1.72,1.72,0,0,1,0,3.44H461.29v12.7h15.08a1.69,1.69,0,0,1,1.72,1.71,1.71,1.71,0,0,1-1.72,1.71H459.58a1.71,1.71,0,0,1-1.71-1.71Z"/><path class="cls-5" d="M499.52,792.92a13.88,13.88,0,0,1-3.23-.41,15.29,15.29,0,0,1-3.2-1.17,13.66,13.66,0,0,1-2.77-1.78,7.87,7.87,0,0,1-1.9-2.32,1.69,1.69,0,0,1-.19-1.36,1.74,1.74,0,0,1,.85-1.07,1.65,1.65,0,0,1,1.36-.2,1.74,1.74,0,0,1,1.07.85A5.16,5.16,0,0,0,493,787.2a10.49,10.49,0,0,0,2.12,1.28,11.73,11.73,0,0,0,2.35.77,10.2,10.2,0,0,0,2.13.25,8,8,0,0,0,2.92-.55,8.34,8.34,0,0,0,2.52-1.5,7.31,7.31,0,0,0,1.74-2.23,6.1,6.1,0,0,0,.66-2.79,5.48,5.48,0,0,0-.58-2.6,5.84,5.84,0,0,0-1.63-1.93,12.35,12.35,0,0,0-2.49-1.5,28.24,28.24,0,0,0-3.08-1.21c-1.11-.33-2.28-.75-3.51-1.24a17.22,17.22,0,0,1-3.38-1.8,10.13,10.13,0,0,1-2.51-2.46,5.49,5.49,0,0,1-1-3.23,7.31,7.31,0,0,1,.94-3.73,9.05,9.05,0,0,1,2.43-2.76,10.67,10.67,0,0,1,3.34-1.71,12.18,12.18,0,0,1,3.68-.58,17,17,0,0,1,2.51.19,11.94,11.94,0,0,1,2.57.69,10.38,10.38,0,0,1,4.64,3.64,2,2,0,0,1,.33,1.47,1.6,1.6,0,0,1-.78,1.25,1.55,1.55,0,0,1-1.38.21,2,2,0,0,1-1.1-.82,5.78,5.78,0,0,0-1.55-1.75,7.49,7.49,0,0,0-1.8-1,6.93,6.93,0,0,0-1.82-.41q-.92-.09-1.62-.09a10.06,10.06,0,0,0-2.32.28,7.49,7.49,0,0,0-2.25.88,5.23,5.23,0,0,0-1.68,1.63,4.65,4.65,0,0,0-.66,2.57,2.64,2.64,0,0,0,1,2A9.71,9.71,0,0,0,496,770a26.22,26.22,0,0,0,2.88,1.16c1,.33,1.84.62,2.54.88a35.08,35.08,0,0,1,3.81,1.66,12.55,12.55,0,0,1,3,2.09,9,9,0,0,1,1.93,2.83,9.53,9.53,0,0,1,.69,3.81,9.31,9.31,0,0,1-.94,4.14,10.92,10.92,0,0,1-2.51,3.34,12.14,12.14,0,0,1-3.62,2.21A11.63,11.63,0,0,1,499.52,792.92Z"/><path class="cls-5" d="M603,775.36a14.1,14.1,0,0,0,4.12,10,14.21,14.21,0,0,0,10,4.12,14.12,14.12,0,0,0,5.77-1.19,13.87,13.87,0,0,0,4.62-3.29,2.08,2.08,0,0,1,1.13-.66,1.52,1.52,0,0,1,1.25.22,1.66,1.66,0,0,1,.6,1.36,2,2,0,0,1-.5,1.4,17.16,17.16,0,0,1-5.74,4.12,17.56,17.56,0,0,1-7.13,1.46,16.94,16.94,0,0,1-6.85-1.38A17.59,17.59,0,0,1,601,782.2a17.69,17.69,0,0,1,0-13.7,18.14,18.14,0,0,1,3.76-5.6,17.45,17.45,0,0,1,5.58-3.79,17.11,17.11,0,0,1,6.85-1.38,16.88,16.88,0,0,1,6.94,1.44,17.85,17.85,0,0,1,5.65,3.92,2.69,2.69,0,0,1,.67,1.11,1.39,1.39,0,0,1-.17,1.26,1.55,1.55,0,0,1-1.29.72,1.8,1.8,0,0,1-1.46-.54,24,24,0,0,0-4.65-3.1,12,12,0,0,0-5.69-1.38,14.06,14.06,0,0,0-5.52,1.1,13.81,13.81,0,0,0-4.5,3,14.38,14.38,0,0,0-3,4.53A14.1,14.1,0,0,0,603,775.36Z"/><path class="cls-5" d="M649.92,776.51h-5.14v14.7a1.62,1.62,0,0,1-.49,1.21,1.64,1.64,0,0,1-1.22.5,1.71,1.71,0,0,1-1.71-1.71V759.39a1.71,1.71,0,0,1,.5-1.24,1.6,1.6,0,0,1,1.21-.53h9.06a9.13,9.13,0,0,1,3.7.75,9.6,9.6,0,0,1,3,2,9.74,9.74,0,0,1,2,3,9,9,0,0,1,.74,3.64,9.16,9.16,0,0,1-.6,3.33,10.36,10.36,0,0,1-1.66,2.79,9.66,9.66,0,0,1-2.52,2.09,8.81,8.81,0,0,1-3.12,1.13l8.4,13.65a3.62,3.62,0,0,1,.45,1.27,1.43,1.43,0,0,1-.72,1.32,1.38,1.38,0,0,1-1.42.2,2.28,2.28,0,0,1-1.07-.91Zm2.21-3.42a5.73,5.73,0,0,0,2.32-.47,6.12,6.12,0,0,0,1.94-1.3,6,6,0,0,0,1.29-1.9,6,6,0,0,0,0-4.67,5.9,5.9,0,0,0-3.23-3.23,5.73,5.73,0,0,0-2.32-.47h-7.35v12Z"/><path class="cls-5" d="M672.53,759.34a1.66,1.66,0,0,1,.49-1.22,1.68,1.68,0,0,1,1.22-.5H691a1.69,1.69,0,0,1,1.71,1.72,1.68,1.68,0,0,1-.49,1.21,1.7,1.7,0,0,1-1.22.5H676v12.31H686a1.71,1.71,0,0,1,1.71,1.72,1.62,1.62,0,0,1-.5,1.21,1.65,1.65,0,0,1-1.21.51H676v12.7H691a1.67,1.67,0,0,1,1.71,1.71,1.69,1.69,0,0,1-1.71,1.71h-16.8a1.64,1.64,0,0,1-1.22-.5,1.62,1.62,0,0,1-.49-1.21Z"/><path class="cls-5" d="M726,781.71H710.48l-4.42,10.1a1.78,1.78,0,0,1-.91.92,1.52,1.52,0,0,1-1.3,0,1.71,1.71,0,0,1-.94-.91,1.63,1.63,0,0,1,0-1.3l13.76-31.66a2.22,2.22,0,0,1,.61-.85,1.39,1.39,0,0,1,1-.42,1.44,1.44,0,0,1,1,.39,2.55,2.55,0,0,1,.67.88l13.64,31.66a1.55,1.55,0,0,1,0,1.3,1.65,1.65,0,0,1-.94.91,1.5,1.5,0,0,1-1.29,0,1.8,1.8,0,0,1-.92-.92Zm-14-3.43h12.54L718.27,764Z"/><path class="cls-5" d="M737.61,759.34a1.69,1.69,0,0,1,1.71-1.72h19.17a1.71,1.71,0,0,1,1.71,1.72,1.61,1.61,0,0,1-.5,1.21,1.65,1.65,0,0,1-1.21.5h-7.85v30.16a1.71,1.71,0,0,1-1.71,1.71,1.64,1.64,0,0,1-1.22-.5,1.62,1.62,0,0,1-.49-1.21V761.05h-7.9a1.67,1.67,0,0,1-1.22-.5A1.64,1.64,0,0,1,737.61,759.34Z"/><path class="cls-5" d="M770.37,759.34a1.71,1.71,0,0,1,2.92-1.22,1.63,1.63,0,0,1,.5,1.22v31.87a1.71,1.71,0,0,1-1.71,1.71,1.69,1.69,0,0,1-1.71-1.71Z"/><path class="cls-5" d="M799.81,791.65a2.46,2.46,0,0,1-.66.88,1.45,1.45,0,0,1-2,0,2.41,2.41,0,0,1-.6-.86l-11.93-31.71a1.63,1.63,0,0,1,0-1.3,1.68,1.68,0,0,1,.94-.91,1.55,1.55,0,0,1,1.3,0,1.77,1.77,0,0,1,.9.91l10.39,27.85,10.27-27.85a1.85,1.85,0,0,1,.92-.91,1.55,1.55,0,0,1,1.3,0,1.69,1.69,0,0,1,.93.91,1.55,1.55,0,0,1,0,1.3Z"/><path class="cls-5" d="M819.05,775.36a17.19,17.19,0,0,1,1.38-6.86,18.14,18.14,0,0,1,3.76-5.6,17.45,17.45,0,0,1,5.58-3.79,17.69,17.69,0,0,1,13.7,0,17.77,17.77,0,0,1,9.39,9.39,17.69,17.69,0,0,1,0,13.7,17.59,17.59,0,0,1-3.78,5.58,18,18,0,0,1-5.61,3.76,17.69,17.69,0,0,1-13.7,0,17.59,17.59,0,0,1-9.34-9.34A17.06,17.06,0,0,1,819.05,775.36Zm3.42,0a13.89,13.89,0,0,0,1.11,5.52,14.3,14.3,0,0,0,3,4.5,14.15,14.15,0,0,0,4.51,3,14.31,14.31,0,0,0,11,0,14.35,14.35,0,0,0,4.53-3,14.28,14.28,0,0,0,3-15.55,14.12,14.12,0,0,0-7.57-7.57,14.18,14.18,0,0,0-15.56,3,14.67,14.67,0,0,0-3,4.53A13.94,13.94,0,0,0,822.47,775.36Z"/><path class="cls-5" d="M875.81,792.92a13.73,13.73,0,0,1-3.22-.41,15.18,15.18,0,0,1-3.21-1.17,13.31,13.31,0,0,1-2.76-1.78,8.07,8.07,0,0,1-1.91-2.32,1.73,1.73,0,0,1-.19-1.36,1.7,1.7,0,0,1,.85-1.07,1.66,1.66,0,0,1,1.36-.2,1.76,1.76,0,0,1,1.07.85,5.05,5.05,0,0,0,1.47,1.74,10.85,10.85,0,0,0,2.13,1.28,11.45,11.45,0,0,0,2.34.77,10.35,10.35,0,0,0,2.13.25,8.41,8.41,0,0,0,5.44-2,7.16,7.16,0,0,0,1.74-2.23,6,6,0,0,0,.67-2.79,5.6,5.6,0,0,0-.58-2.6,6,6,0,0,0-1.64-1.93,12,12,0,0,0-2.48-1.5,27.82,27.82,0,0,0-3.1-1.21c-1.1-.33-2.26-.75-3.51-1.24a17.33,17.33,0,0,1-3.36-1.8,9.84,9.84,0,0,1-2.52-2.46,5.56,5.56,0,0,1-1-3.23,7.31,7.31,0,0,1,.94-3.73,9.18,9.18,0,0,1,2.43-2.76,10.89,10.89,0,0,1,3.34-1.71,12.11,12.11,0,0,1,3.67-.58,16.93,16.93,0,0,1,2.52.19,12.09,12.09,0,0,1,2.57.69,10.6,10.6,0,0,1,2.46,1.38,10.46,10.46,0,0,1,2.18,2.26,2,2,0,0,1,.33,1.47,1.59,1.59,0,0,1-.77,1.25,1.56,1.56,0,0,1-1.38.21,2,2,0,0,1-1.11-.82,5.76,5.76,0,0,0-1.54-1.75,7.49,7.49,0,0,0-1.8-1,7,7,0,0,0-1.82-.41c-.61-.06-1.16-.09-1.64-.09a10.26,10.26,0,0,0-2.32.28,7.47,7.47,0,0,0-2.23.88,5.26,5.26,0,0,0-1.69,1.63,4.65,4.65,0,0,0-.66,2.57,2.67,2.67,0,0,0,1,2,9.85,9.85,0,0,0,2.36,1.55,25.89,25.89,0,0,0,2.86,1.16c1,.33,1.85.62,2.55.88a34.25,34.25,0,0,1,3.81,1.66,12.55,12.55,0,0,1,3,2.09,8.84,8.84,0,0,1,1.93,2.83,9.53,9.53,0,0,1,.69,3.81,9.31,9.31,0,0,1-.94,4.14,10.61,10.61,0,0,1-2.51,3.34,12,12,0,0,1-3.62,2.21A11.67,11.67,0,0,1,875.81,792.92Z"/><path class="cls-6" d="M322.83,605.32c17.31,9.2,39.1,2.07,48.67-15.93s3.3-40-14-49.25-35.51,15.42-48.67,16C299.24,574.1,305.51,596.11,322.83,605.32Zm-.22,17c-35.25-2.47-57.81-29.94-55.35-65.19-12.78-38.95,29-64.92,64.27-62.46a64,64,0,0,1-8.92,127.65Z"/><path class="cls-6" d="M588.5,493.86c-2.13,31.39-35,35-33.58,7.84,1.32-25.09-18.1-53.24-36.58-41.86,9.22,16.61,12.81,34.61,11,43.35-4,18.89-28.69,27.62-40.83,14.59-14.82-15.89-7.27-83.1-42.66-70.78-31.15,10.86-17.36,61.75,11.35,82.62,30.13,21.9-1.13,59.24-36.35,34.55s-47-107,18.7-134.35c33.37-13.9,57.27-.15,72.06,19.55C553.41,422.54,590.62,462.8,588.5,493.86Z"/><path class="cls-5" d="M676.24,430.85C654.56,516.17,565.29,550,590.44,576c19.5,20.11,57-14,57-14l41.4,13.22S678,615.37,702.52,621c26.57,6.12,119.16-88.4,37.56-192.34A107.7,107.7,0,0,0,676.24,430.85Z"/><path class="cls-7" d="M738.39,446.61c-93.27-8.16-145-12.69-158.49-53-13.16-39.48-11.84-178.56,141-165.19,81.91,7.17,118.85,53.8,91.38,129.06,10.25,2.21,21.21,13.61,19.94,28.1-1.33,15.07-12.43,28.69-27.5,27.37C788.35,436.29,765.49,449,738.39,446.61Z"/><path class="cls-8" d="M629.17,694.34c0-10.85,29.7-19.65,66.33-19.65s66.32,8.8,66.32,19.65S732.13,714,695.5,714,629.17,705.19,629.17,694.34Z"/><path class="cls-9" d="M746.23,326c3.9,15.66-48.08,31.64-53.4,10.28S742.32,310.3,746.23,326Z"/><path class="cls-9" d="M613.91,348.92c.83,11.84,40.8,11.21,39.67-4.93S613.09,337.08,613.91,348.92Z"/><path class="cls-5" d="M611.37,392.17l4.79-3.47c10,16.89,17.69,19.49,36-6.92l6.52,3.31C644.57,408.7,621.07,414.11,611.37,392.17Z"/><path class="cls-5" d="M697.85,378.62l6.2-4.57c9,25.46,28.46,25.36,46.56-9l8.43,4.37C740.87,400.39,710.45,407.47,697.85,378.62Z"/><path class="cls-5" d="M554.92,579.6c-4.06,11.15,32.71,26.83,38.25,11.63S559,568.46,554.92,579.6Z"/><path class="cls-5" d="M670.6,633.77c-1.24,11.8,38.22,18.11,39.92,2S671.84,622,670.6,633.77Z"/><path class="cls-1" d="M715.17,460.77c.65-24-3.91-58.52-25.36-55.92C671,407.14,668.35,427,680.7,439.32c-2,4.54-5.26,11-7.08,16.58-13.17,33-13.14,62.78,9.35,89.38-2.71-14-3.25-26.32,1.63-46.28L689,524.71C696.31,501.09,714.41,488.63,715.17,460.77Z"/><path class="cls-10" d="M699.35,423.35c-18.73-13.1-32.2,9.16-9.74,4.59C679.88,439.07,702.35,439.72,699.35,423.35Z"/></svg>