<svg id="Capa_1" data-name="Capa 1" xmlns="http://www.w3.org/2000/svg" viewBox="0 0 1080 1080"><defs><style>.cls-1{fill:#444243;}.cls-2{fill:#fff;}</style></defs><rect class="cls-1" width="1080" height="1080"/><path class="cls-2" d="M711.94,535.59q-14.22,0-24.88-5.41a50.11,50.11,0,0,1-17.78-14.9,64.68,64.68,0,0,1-10.54-22.41,115.27,115.27,0,0,1,0-55.9,64.76,64.76,0,0,1,10.54-22.41,51.52,51.52,0,0,1,17.78-15Q697.72,394,711.94,394t24.88,5.54a51.58,51.58,0,0,1,17.77,15A64.78,64.78,0,0,1,765.14,437a115.59,115.59,0,0,1,0,55.9,64.69,64.69,0,0,1-10.55,22.41,50.17,50.17,0,0,1-17.77,14.9Q726.14,535.58,711.94,535.59Zm0-20.83q16.34,0,24.17-13.19t7.82-36.65q0-23.46-7.82-36.51t-24.17-13.05q-16.35,0-24.05,13.05t-7.72,36.51q0,23.47,7.72,36.65T711.94,514.76Z"/><path class="cls-2" d="M311,546.52a171.17,171.17,0,0,1,17.2-1.53q11.06-.59,22.36-.58a157.51,157.51,0,0,1,25.55,1.91,66.48,66.48,0,0,1,19.79,6.2,33.87,33.87,0,0,1,12.76,11.08q4.54,6.76,4.56,16.5a26.15,26.15,0,0,1-2.33,11,30.52,30.52,0,0,1-6.28,9,34.85,34.85,0,0,1-9.09,6.49,43.76,43.76,0,0,1-10.56,3.72,60.71,60.71,0,0,1,13.88,2.86,44.2,44.2,0,0,1,12.66,6.49,33.21,33.21,0,0,1,9.21,10.59q3.57,6.4,3.56,15.56,0,11.06-5.64,18.79A41,41,0,0,1,403.21,677a79.86,79.86,0,0,1-22.85,6.87A176.06,176.06,0,0,1,352.22,686q-9.33,0-20.39-.66T311,683.72Zm42.76,57.24q16.69,0,25.54-5.63t8.85-16.88q0-10.89-9.46-16.23T353,559.68c-3.28,0-6.43.07-9.47.19s-5.61.32-7.73.57v43.32Zm-17.94,64.88c2.29.25,5.19.45,8.72.58s7,.19,10.44.19a112.66,112.66,0,0,0,16.59-1.15,48.81,48.81,0,0,0,13.63-3.91,23.71,23.71,0,0,0,9.34-7.45c2.3-3.11,3.43-7.09,3.43-11.91a21.25,21.25,0,0,0-3.18-11.93,23.24,23.24,0,0,0-8.73-7.82A41.94,41.94,0,0,0,372.87,621a103.43,103.43,0,0,0-16.46-1.24H335.77Z"/><path class="cls-2" d="M302.21,477.18a33.28,33.28,0,0,0-7.84-10.54,42.24,42.24,0,0,0-11.6-7.25,114.22,114.22,0,0,0-14.28-5l-13.81-4q-5.66-1.59-10.52-3.16a42,42,0,0,1-8.62-3.83,18.71,18.71,0,0,1-6-5.4,13,13,0,0,1-2.2-7.65q0-8.7,8.94-12.12a57.09,57.09,0,0,1,20.56-3.44,101.42,101.42,0,0,1,20.55,2c5.68,1.17,10.62,2.38,14.89,3.62l6.46-20.32A178.82,178.82,0,0,0,279.94,396a145.59,145.59,0,0,0-24-2q-29.49,0-44.71,10.55T196,433q0,13.44,9.1,21.36t29.19,14.23l11,3.43q6,1.59,11.15,3.3a44.8,44.8,0,0,1,9.1,4.09,20,20,0,0,1,6.27,5.8,15,15,0,0,1,2.35,8.7,13.66,13.66,0,0,1-3,8.57,24.7,24.7,0,0,1-7.84,6.45,40.45,40.45,0,0,1-11.45,4,69.52,69.52,0,0,1-13.81,1.31,121.11,121.11,0,0,1-20.24-1.71,117.7,117.7,0,0,1-18.14-4.46l-6.81,21.45A154.92,154.92,0,0,0,213,533.87a178.09,178.09,0,0,0,26.36,1.72,107.67,107.67,0,0,0,27-3.17,69.32,69.32,0,0,0,20.86-8.83,41.37,41.37,0,0,0,13.34-13.71,34.55,34.55,0,0,0,4.7-17.8A34.11,34.11,0,0,0,302.21,477.18Z"/><path class="cls-2" d="M883.69,627.6a33.28,33.28,0,0,0-7.84-10.54,42.69,42.69,0,0,0-11.61-7.25,115.28,115.28,0,0,0-14.28-5l-13.8-3.95q-5.65-1.58-10.51-3.16a41.6,41.6,0,0,1-8.63-3.83,18.64,18.64,0,0,1-6-5.4,13.09,13.09,0,0,1-2.19-7.65q0-8.7,8.94-12.13a57.23,57.23,0,0,1,20.55-3.42,101.93,101.93,0,0,1,20.54,2c5.69,1.18,10.64,2.39,14.91,3.63l6.45-20.32a179.16,179.16,0,0,0-18.83-4.14,145.59,145.59,0,0,0-24-2q-29.49,0-44.72,10.56t-15.21,28.47q0,13.44,9.09,21.35T815.76,619l11,3.44c4,1,7.69,2.15,11.13,3.29a44.64,44.64,0,0,1,9.11,4.09,20.08,20.08,0,0,1,6.28,5.8,15,15,0,0,1,2.35,8.7,13.59,13.59,0,0,1-3,8.57,24.82,24.82,0,0,1-7.83,6.46,40.4,40.4,0,0,1-11.46,4,70.24,70.24,0,0,1-13.8,1.31,120.09,120.09,0,0,1-20.25-1.71,117.73,117.73,0,0,1-18.14-4.45l-6.81,21.44a155.66,155.66,0,0,0,20.09,4.37A178.18,178.18,0,0,0,820.78,686a108.23,108.23,0,0,0,27-3.16A69.69,69.69,0,0,0,868.63,674,41.46,41.46,0,0,0,882,660.3a34.65,34.65,0,0,0,4.7-17.8A34.25,34.25,0,0,0,883.69,627.6Z"/><polygon class="cls-2" points="402.09 394.07 402.09 453.31 333.09 453.31 333.09 394.07 311.46 394.07 311.46 534.17 333.09 534.17 333.09 474.93 402.09 474.93 402.09 534.17 423.71 534.17 423.71 394.07 402.09 394.07"/><path class="cls-2" d="M539.06,435.78a58.24,58.24,0,0,0-11.77-22.14,53.31,53.31,0,0,0-20.45-14.5Q494.45,394,477.09,394a117.47,117.47,0,0,0-21.68,1.85,80.49,80.49,0,0,0-16.65,5l5,20.77a86.28,86.28,0,0,1,31.89-6q20.08,0,30.37,10.28t10.77,32.43h-86.5c-.16,1.94-.32,4.26-.48,7s-.26,5.31-.26,7.78A85.75,85.75,0,0,0,433,498a57.79,57.79,0,0,0,10.16,19.78,47.28,47.28,0,0,0,16.61,13.05q9.9,4.75,23.05,4.75,15.38,0,26.65-5.67a54,54,0,0,0,18.71-15.3,65,65,0,0,0,11-22.67,105.65,105.65,0,0,0,3.58-28.08A100.37,100.37,0,0,0,539.06,435.78ZM506.72,505q-8.06,9.75-23.18,9.76a26.38,26.38,0,0,1-22.43-11.07A37.13,37.13,0,0,1,455.66,492a52.68,52.68,0,0,1-1.86-14.1h62.71Q514.79,495.24,506.72,505Z"/><path class="cls-2" d="M539.06,586.2a58.24,58.24,0,0,0-11.77-22.14,53.49,53.49,0,0,0-20.45-14.5q-12.39-5.14-29.75-5.15a118.34,118.34,0,0,0-21.68,1.85,80.31,80.31,0,0,0-16.65,5l5,20.77a86.28,86.28,0,0,1,31.89-6q20.08,0,30.37,10.28t10.77,32.43h-86.5c-.16,1.94-.33,4.26-.49,7s-.25,5.31-.25,7.78A85.75,85.75,0,0,0,433,648.43a57.7,57.7,0,0,0,10.16,19.78,47.13,47.13,0,0,0,16.6,13Q469.66,686,482.8,686q15.38,0,26.65-5.67a54.11,54.11,0,0,0,18.71-15.29,64.83,64.83,0,0,0,11-22.68,105.24,105.24,0,0,0,3.59-28.08A100.37,100.37,0,0,0,539.06,586.2Zm-32.34,69.22q-8.06,9.75-23.18,9.76a26.32,26.32,0,0,1-22.43-11.07,37.15,37.15,0,0,1-5.46-11.74,53.1,53.1,0,0,1-1.85-14.11h62.71Q514.79,645.66,506.72,655.42Z"/><path class="cls-2" d="M659,644.22a58.48,58.48,0,0,0,11.79,22.14,53.53,53.53,0,0,0,20.44,14.5Q703.63,686,721,686a117.58,117.58,0,0,0,21.69-1.85,79.71,79.71,0,0,0,16.65-5l-5-20.77a86.25,86.25,0,0,1-31.9,6q-20.07,0-30.37-10.27t-10.78-32.44h86.5q.25-2.89.51-7c.14-2.72.23-5.31.23-7.78A85.47,85.47,0,0,0,765.11,582,58.14,58.14,0,0,0,755,562.21a47.25,47.25,0,0,0-16.6-13.05q-9.93-4.75-23.07-4.75-15.36,0-26.64,5.67a53.84,53.84,0,0,0-18.71,15.3,64.76,64.76,0,0,0-11,22.68,105.57,105.57,0,0,0-3.59,28.07A100.7,100.7,0,0,0,659,644.22ZM691.37,575q8.05-9.75,23.16-9.75a27.52,27.52,0,0,1,13.27,3,27,27,0,0,1,9.17,8.05,36.84,36.84,0,0,1,5.47,11.74,53.43,53.43,0,0,1,1.84,14.1H681.57Q683.31,584.76,691.37,575Z"/><path class="cls-2" d="M572.08,534.17V411.35c2.79-.26,5.31-.44,7.55-.58s4.69-.18,7.31-.18q16.72,0,26.58,6.74T623.39,438a20.87,20.87,0,0,1-3.95,12.82,36.25,36.25,0,0,1-9.87,9.07A58.08,58.08,0,0,1,596.7,466a125.42,125.42,0,0,1-13.24,3.66l-1.85.39v.77l52.69,63.4H661l-47.82-57.61L616,475.4a85.92,85.92,0,0,0,11.49-5.89A51,51,0,0,0,638,461.13a43,43,0,0,0,7.66-11,30.78,30.78,0,0,0,3-13.7q0-12.53-5.69-20.73a41.27,41.27,0,0,0-14.73-13,67.73,67.73,0,0,0-20.66-6.75A142.51,142.51,0,0,0,584.16,394c-3.56,0-6.81.07-9.75.19s-5.77.3-8.48.49-5.45.42-8.23.67-5.88.52-9.29.77V534.17Z"/><polygon class="cls-2" points="795.43 534.17 795.43 430.22 865.59 534.17 887.14 534.17 887.14 394.77 865.33 394.77 865.33 499.94 794.99 394.77 773.86 394.77 773.86 534.17 795.43 534.17"/><polygon class="cls-2" points="655.41 544.16 542.67 544.16 542.67 565.77 588.23 565.77 588.23 684.26 609.86 684.26 609.86 565.77 655.41 565.77 655.41 544.16"/></svg>