<svg id="Capa_1" data-name="Capa 1" xmlns="http://www.w3.org/2000/svg" viewBox="0 0 1080 1080"><defs><style>.cls-1,.cls-8{fill:#fff;}.cls-2,.cls-7{fill:#7ab92b;}.cls-3{fill:#505046;}.cls-4,.cls-5{fill:#969690;}.cls-4,.cls-6,.cls-7,.cls-8{fill-rule:evenodd;}.cls-6{fill:#626259;}</style></defs><rect class="cls-1" width="1080" height="1080"/><path class="cls-2" d="M458.27,579.18H498c.82,5.34,1.71,10.44,2.59,15H458.27c-6,0-10.93-3.36-10.93-7.51S452.23,579.18,458.27,579.18Zm13.8-19.94h23.58c.39,5,1,10.08,1.62,15h-25.2c-6,0-10.94-3.36-10.94-7.51S466,559.24,472.07,559.24Zm-28.82,41.12h58.53c1.85,8.91,3.36,14.77,3.36,14.77h1.4l-63.29.26c-6,0-10.94-3.36-10.94-7.52S437.21,600.36,443.25,600.36Zm232.19,14.95A19.75,19.75,0,1,1,696.21,634,19.74,19.74,0,0,1,675.44,615.31Zm-161.19-.18s-19.67-76.5-3.82-96.72a26.47,26.47,0,0,1,7.28-5.95,92.92,92.92,0,0,0,6.29,8.38,5.15,5.15,0,0,0-1.46,3.32l9.07,17.8c33.63-2.2,41-27.82,41-27.82L558,501a18.42,18.42,0,0,0-4.63.42l-.57-.94c37-8,88-10.31,117.48-2.78-.73,1.24-1.52,2.43-2.33,3.57a18.92,18.92,0,0,0-3.91-1.49l-13.49,12.13c2.23,18.22,27.59,28.93,39.11,27.58l10.16-16.34a17.69,17.69,0,0,0-1.83-3.33c1-1.09,1.91-2.2,2.81-3.32,19.55,21.41,25.75,50.59,25.75,50.59,29,19.67,27.3,28.39,20.21,48.08H723.35a8.86,8.86,0,0,0,.13-2.12,28.44,28.44,0,0,0-56.83,2.12H585.17c0-.7,0-1.41,0-2.12a28.45,28.45,0,0,0-56.85,2.12Zm31.43-89.19a4.79,4.79,0,1,1,4.45,5.11A4.8,4.8,0,0,1,545.68,525.94Zm-13.31,6.28a4.79,4.79,0,1,1,4.44,5.11A4.77,4.77,0,0,1,532.37,532.22Zm24-15.72a4.79,4.79,0,1,1,4.45,5.12A4.78,4.78,0,0,1,556.4,516.5Zm-19.32,98.81A19.76,19.76,0,1,1,557.85,634,19.75,19.75,0,0,1,537.08,615.31ZM664.54,519l9.94-2.29,2.29,9.93-9.93,2.29Z"/><path class="cls-3" d="M556.4,516.5a4.79,4.79,0,1,0,5.11-4.44A4.8,4.8,0,0,0,556.4,516.5Zm-24,15.72a4.79,4.79,0,1,0,5.11-4.44A4.77,4.77,0,0,0,532.37,532.22Zm13.31-6.28a4.79,4.79,0,1,0,5.11-4.45A4.79,4.79,0,0,0,545.68,525.94ZM436,450.11c-44.72,23.44-57.47,96.3-87,54.84s29.8-71.36,82.76-73.69c-.78-7.15-.45-13.41.89-17.95,1.45-4.92,6.63-9.89,14.3-14.64-40.15-21.37-100.81,4.1-83.93-38.62,17.56-44.43,72.69-10.66,100,30.42,41.32-17.81,111.27-29.28,126.29-16.27a19.81,19.81,0,0,1,2.46,2.61,4.16,4.16,0,0,1,2.12.49c1.64,1.16,2.5,4.21,2.24,7.91,9.1,26.86-4.91,83.22-46.76,107.75a35.84,35.84,0,0,0,4,8.42A18.42,18.42,0,0,1,558,501l14.61,13.18s-7.4,25.62-41,27.82l-9.07-17.8a5.15,5.15,0,0,1,1.46-3.32,104.62,104.62,0,0,1-11.17-16.38C469.45,508.39,445.38,478.13,436,450.11Z"/><polygon class="cls-4" points="229.08 746.61 234.65 746.61 240.1 761.09 240.16 761.09 245.72 746.61 250.94 746.61 241.82 768.71 237.92 768.71 229.08 746.61"/><polygon class="cls-4" points="274.43 746.61 289.45 746.61 289.45 751.1 279.31 751.1 279.31 755.22 288.89 755.22 288.89 759.71 279.31 759.71 279.31 764.21 290.01 764.21 290.01 768.71 274.43 768.71 274.43 746.61"/><polygon class="cls-4" points="319.17 750.91 312.87 750.91 312.87 746.61 330.35 746.61 330.35 750.91 324.04 750.91 324.04 768.71 319.17 768.71 319.17 750.91"/><polygon class="cls-4" points="353.99 746.61 369 746.61 369 751.1 358.86 751.1 358.86 755.22 368.44 755.22 368.44 759.71 358.86 759.71 358.86 764.21 369.56 764.21 369.56 768.71 353.99 768.71 353.99 746.61"/><path class="cls-4" d="M399.32,755.75h2.87c.43,0,.9,0,1.39,0a4.55,4.55,0,0,0,1.33-.27,2.33,2.33,0,0,0,1-.74,2.23,2.23,0,0,0,.38-1.41,2.31,2.31,0,0,0-.34-1.34,2.13,2.13,0,0,0-.87-.76,3.72,3.72,0,0,0-1.21-.36,9.09,9.09,0,0,0-1.35-.09h-3.18Zm-4.87-9.14H403a15.64,15.64,0,0,1,3.2.32,7.47,7.47,0,0,1,2.66,1.1,5.28,5.28,0,0,1,1.8,2.05,7,7,0,0,1,.67,3.24,6.46,6.46,0,0,1-1.21,4,5.45,5.45,0,0,1-3.57,2.08l5.62,9.34h-5.83l-4.62-8.84h-2.4v8.84h-4.87Z"/><rect class="cls-5" x="435.61" y="746.61" width="4.87" height="22.1"/><polygon class="cls-4" points="465.92 746.61 472.54 746.61 481.94 761.96 482 761.96 482 746.61 486.87 746.61 486.87 768.71 480.5 768.71 470.85 752.97 470.8 752.97 470.8 768.71 465.92 768.71 465.92 746.61"/><path class="cls-4" d="M521.53,753l-2.68,6.87h5.41Zm-1.87-6.42h4l9.62,22.1h-5.5l-1.9-4.69h-8.59l-1.84,4.69h-5.37Z"/><path class="cls-4" d="M561.4,755.75h2.87c.44,0,.91,0,1.39,0a4.55,4.55,0,0,0,1.33-.27,2.49,2.49,0,0,0,1-.74,2.23,2.23,0,0,0,.38-1.41,2.31,2.31,0,0,0-.34-1.34,2.27,2.27,0,0,0-.87-.76,3.86,3.86,0,0,0-1.22-.36,8.79,8.79,0,0,0-1.34-.09H561.4Zm-4.87-9.14h8.56a15.57,15.57,0,0,1,3.2.32,7.5,7.5,0,0,1,2.65,1.1,5.38,5.38,0,0,1,1.81,2.05,7,7,0,0,1,.67,3.24,6.4,6.4,0,0,1-1.22,4,5.45,5.45,0,0,1-3.55,2.08l5.62,9.34h-5.85l-4.61-8.84H561.4v8.84h-4.87Z"/><rect class="cls-5" x="597.71" y="746.61" width="4.86" height="22.1"/><path class="cls-4" d="M637.15,753l-2.68,6.87h5.4Zm-1.87-6.42h4l9.62,22.1h-5.49l-1.9-4.69h-8.59l-1.85,4.69h-5.37Z"/><polygon class="cls-4" points="702.39 746.61 709.76 746.61 714.85 761.03 714.92 761.03 720.03 746.61 727.36 746.61 727.36 768.71 722.5 768.71 722.5 751.75 722.44 751.75 716.63 768.71 712.91 768.71 707.32 751.75 707.27 751.75 707.27 768.71 702.39 768.71 702.39 746.61"/><path class="cls-4" d="M756.73,757.65a8.17,8.17,0,0,0,.49,2.86,6.34,6.34,0,0,0,3.56,3.73,7.66,7.66,0,0,0,5.65,0,6.34,6.34,0,0,0,2.17-1.48,6.56,6.56,0,0,0,1.39-2.25,8.17,8.17,0,0,0,.48-2.86,8.26,8.26,0,0,0-.48-2.84,6.6,6.6,0,0,0-1.39-2.26,6.34,6.34,0,0,0-2.17-1.48,7.79,7.79,0,0,0-5.65,0,6.32,6.32,0,0,0-3.56,3.74A8.26,8.26,0,0,0,756.73,757.65Zm-5.05,0a12.33,12.33,0,0,1,.89-4.8,10.49,10.49,0,0,1,2.48-3.67,10.94,10.94,0,0,1,3.77-2.33,14.51,14.51,0,0,1,9.56,0,11,11,0,0,1,3.78,2.33,10.49,10.49,0,0,1,2.48,3.67,13.42,13.42,0,0,1,0,9.61,10.49,10.49,0,0,1-2.48,3.67,11,11,0,0,1-3.78,2.33,14.51,14.51,0,0,1-9.56,0,10.94,10.94,0,0,1-3.77-2.33,10.49,10.49,0,0,1-2.48-3.67A12.34,12.34,0,0,1,751.68,757.65Zm12-17.13H770L764.6,745h-4.11Z"/><polygon class="cls-4" points="797.66 746.61 803.21 746.61 808.68 761.09 808.74 761.09 814.29 746.61 819.51 746.61 810.39 768.71 806.49 768.71 797.66 746.61"/><rect class="cls-5" x="842.76" y="746.61" width="4.87" height="22.1"/><polygon class="cls-4" points="873.25 746.61 878.12 746.61 878.12 764.21 887.14 764.21 887.14 768.71 873.25 768.71 873.25 746.61"/><path class="cls-6" d="M525.43,694.32v-4.65H517.5q-27.57,0-27.56,15.16a11.64,11.64,0,0,0,4.14,9.47,15.26,15.26,0,0,0,10.16,3.45,19.16,19.16,0,0,0,15.5-7.07C523.52,706.32,525.43,700.86,525.43,694.32ZM547,705.69c0,6.32.29,10,.87,11q1.53,3.27,9.47,3.27v11.37H537.82q-10.5,0-10.85-10l-.17-4.13q-11.19,16.37-29.62,16.37-12.76,0-21-7.49T467.89,706q0-19.8,20.84-26,10.68-3.09,36.7-3.1v-1.2q0-18.78-21.54-18.78-11.72,0-25,7.06l-.34-16a81.11,81.11,0,0,1,30.66-6.2q19.63,0,28.59,9.48,7.24,7.57,8.79,23.6Q547,678.66,547,705.69Z"/><path class="cls-6" d="M627.44,646.26l-1.73,17.58q-11.37-4.5-17.57-4.49-12.74,0-20.41,7.84t-7.66,20.24q0,12.59,7.66,20.59t20.07,8q8.44,0,19.29-5.69l.86,17.91q-15.66,5.34-24.46,5.35-21.53,0-34.19-12.75t-12.66-33.94q0-19.27,13-32.2t33.67-12.93Q609,641.78,627.44,646.26Z"/><path class="cls-6" d="M688.09,694.32v-4.65h-7.93q-27.55,0-27.55,15.16a11.64,11.64,0,0,0,4.13,9.47,15.28,15.28,0,0,0,10.16,3.45,19.14,19.14,0,0,0,15.51-7.07Q688.1,704.14,688.09,694.32Zm21.54,11.37c0,6.32.28,10,.85,11Q712,720,720,720v11.37H700.49q-10.5,0-10.84-10l-.18-4.13q-11.21,16.37-29.63,16.37c-8.5,0-15.49-2.5-21-7.49s-8.26-11.69-8.26-20.08q0-19.8,20.84-26,10.68-3.09,36.69-3.1v-1.2q0-18.78-21.53-18.78-11.71,0-25,7.06l-.36-16a81.19,81.19,0,0,1,30.67-6.2q19.64,0,28.59,9.48,7.23,7.57,8.79,23.6Q709.63,678.66,709.63,705.69Z"/><path class="cls-6" d="M786.29,646.78l-1.73,16.53q-11.55-6-22.57-6-12.59,0-12.58,7.92,0,4.31,4.31,7.24,2.24,1.54,11.72,5.68,13.08,5.86,18.43,11.2a21.82,21.82,0,0,1,6.2,15.84,23.4,23.4,0,0,1-9.83,19.64c-6.52,4.94-15.61,7.41-27.2,7.41a79.22,79.22,0,0,1-27-4.48l1.21-17.23a58.07,58.07,0,0,0,25.67,6.21q13.93,0,13.94-8.45c0-3-1.54-5.68-4.65-8.09-2.07-1.5-6.43-3.9-13.09-7.24q-11.7-5.85-16.19-10.5A20.26,20.26,0,0,1,727,667.79q0-11.19,9.56-18.6t25.76-7.41Q770.26,641.78,786.29,646.78Z"/><path class="cls-6" d="M853.27,694.32v-4.65h-7.92q-27.55,0-27.56,15.16a11.67,11.67,0,0,0,4.13,9.47,15.3,15.3,0,0,0,10.17,3.45,19.13,19.13,0,0,0,15.5-7.07Q853.26,704.14,853.27,694.32Zm21.53,11.37c0,6.32.29,10,.86,11q1.56,3.27,9.48,3.27v11.37H865.68q-10.51,0-10.86-10l-.17-4.13Q843.46,733.6,825,733.6q-12.76,0-21-7.49T795.75,706q0-19.8,20.83-26,10.7-3.09,36.69-3.1v-1.2q0-18.78-21.53-18.78-11.72,0-25,7.06l-.35-16a81.12,81.12,0,0,1,30.67-6.2q19.62,0,28.59,9.48,7.23,7.57,8.78,23.6Q874.79,678.66,874.8,705.69Z"/><path class="cls-7" d="M232.65,731.36l-22.74-68.73c-.92-2.88-1.83-4.8-2.76-5.77s-2.69-1.46-5.34-1.46h-8.95V644h24.8q7.76,0,10.85,10l17.91,57.2L267.78,644h22.4l-31.7,87.33Z"/><path class="cls-7" d="M339.77,694.32v-4.65h-7.92q-27.57,0-27.57,15.16a11.67,11.67,0,0,0,4.14,9.47,15.28,15.28,0,0,0,10.16,3.45,19.12,19.12,0,0,0,15.5-7.07Q339.77,704.14,339.77,694.32Zm21.53,11.37c0,6.32.29,10,.86,11q1.56,3.27,9.47,3.27v11.37H352.17q-10.5,0-10.84-10l-.18-4.13q-11.2,16.37-29.63,16.37-12.75,0-21-7.49T282.24,706q0-19.8,20.83-26,10.69-3.09,36.7-3.1v-1.2q0-18.78-21.53-18.78-11.72,0-25,7.06l-.35-16a81.07,81.07,0,0,1,30.66-6.2q19.64,0,28.59,9.48,7.24,7.57,8.78,23.6Q361.31,678.66,361.3,705.69Z"/><path class="cls-7" d="M431.25,641.78q31.1,0,31.09,37.55v52H440v-47.2q0-23.61-17.23-23.6-10.52,0-15.84,8.78-4.65,7.41-4.65,18.61v43.41h-22.4V662.63q0-4.49-2.92-6-2.07-1.2-7.24-1.2V644h19.81q10.84,0,10.85,10v5.86Q410.13,641.78,431.25,641.78Z"/><path class="cls-3" d="M664.54,519l2.3,9.93,9.93-2.29-2.29-9.93Zm45.11-15.58A100.29,100.29,0,0,1,698,519.78a17.69,17.69,0,0,1,1.83,3.33l-10.16,16.34c-11.52,1.35-36.88-9.36-39.11-27.58l13.49-12.13a18.92,18.92,0,0,1,3.91,1.49,39.28,39.28,0,0,0,5.69-10.94c-12.36-7.66-21.83-17.63-26.52-27.74-15.55-33.48-3.92-82.82,55.17-145.17l6.28-6.65,3,8.66c5.77,16.69,8.77,27.36,7.23,43.18l3.08-3,6,8.82,5.83-13.51,5.35,3a35.15,35.15,0,0,1,15,16.48c1.73-3,3.56-6.15,5.6-9.44,5.28-8.49,12-13.29,22.15-26.09l5.45-6.86,3.87,7.87c24.58,49.94,21.68,123.54-23.93,151.67A84.94,84.94,0,0,1,709.65,503.41Z"/><path class="cls-1" d="M722.72,432.86l3.69,4.17c11-9,29.46-8.83,34.75,7.78l8.36-5.68C759.64,422.89,734.88,421.22,722.72,432.86Zm-29.15,12.59a10.07,10.07,0,0,0,7.24,12.06A9.64,9.64,0,0,0,712.4,450C713.6,444.56,694.77,440,693.57,445.45Zm-11.13,16.36-3.55,2C686,480.57,703.52,486.87,721,475l-3.16-4.35c-7.89,5.18-14.94,1.86-19.47-4.15C691.57,470.05,686.58,469.78,682.44,461.81ZM662.5,416.24l3.31,7.3c10.05-7.06,19.81-4.88,25.28,4l4.25-3.76C686,413.36,673.9,411.41,662.5,416.24Zm43.84-95c8,23.18,9.07,42.73,3.3,58l11.36-11,7.93,11.75,7.42-17.21c10,5.46,16.41,17,14.71,28.41,8.77-15.62,15.09-23.71,35.1-48.87,24.11,49,20,118.65-21.87,144.5a79.88,79.88,0,0,1-57.82,10.48,59.63,59.63,0,0,1-16.65,23.23c-6.82-2.31-15.61-6.44-21.38-13.37,5-5.35,9.12-12.27,10.13-20.33-12.41-7.23-21.89-16.9-26.39-26.56C638.11,429.89,647.78,383,706.34,321.2Z"/><path class="cls-1" d="M501.42,422A17.61,17.61,0,1,0,495,446,17.62,17.62,0,0,0,501.42,422Zm82.34,4.31-115.08,38C502.69,512.66,568.42,485.87,583.76,426.27Zm8.84-30.57c3.1,26.64-10.56,73.27-48.07,93.55a35.86,35.86,0,0,0,9,19.23c-5.87,6.91-14.76,11-21.52,13.23a57.43,57.43,0,0,1-15.69-23.39c-42.74,5.81-66.38-23.76-75.24-50.59a57.82,57.82,0,0,1,8.31-2.76q4.8-9.84-2.78-13.61c-3-.19-6.13-.27-9.25-.24-.72-6.45-.43-12.09.77-16.19,1.27-4.27,6.42-8.74,14.12-13.08a53.58,53.58,0,0,1,6.5,5.17q9.92-1.22,9-8.9c-.55-1-1.12-1.93-1.7-2.9,37.95-15.77,102.46-27.44,118.25-17.65-14.17,2.6-38.33,11.18-37.64,17.65.93,8.66,21.06,14.65,35.71,8.78A21.59,21.59,0,0,0,592.6,395.7Z"/><path class="cls-1" d="M497,429.47a7.43,7.43,0,0,0-14.35-3.84C481.57,429.59,495.91,433.43,497,429.47Z"/><path class="cls-8" d="M478.25,467.13C507.13,498.62,557,482.2,575,435.18Z"/></svg>