<?xml version="1.0" encoding="utf-8"?>
<!-- Generator: Adobe Illustrator 25.3.1, SVG Export Plug-In . SVG Version: 6.00 Build 0)  -->
<svg version="1.1" id="Capa_1" xmlns="http://www.w3.org/2000/svg" xmlns:xlink="http://www.w3.org/1999/xlink" x="0px" y="0px"
	 viewBox="0 0 375 375" style="enable-background:new 0 0 375 375;" xml:space="preserve">
<style type="text/css">
	.st0{fill:#453524;}
	.st1{fill:#95C9B4;}
</style>
<path class="st0" d="M216.2,116l29.4,5.9c3.3,29.4-33.4,46.6-52.3,23.2C208.5,143.6,218.2,132.6,216.2,116z"/>
<path class="st0" d="M269.9,111.6l54.4,6.4c-11.6,74.2-5.6,127.1,2.3,161.6l-40.9,7.9C263.5,229,256.7,179.1,269.9,111.6z"/>
<path class="st1" d="M204.5,147c16.2,9.8,34.5-3,35.5-20l-18.2-4C222.5,134.5,215.7,144.7,204.5,147z"/>
<path class="st1" d="M316.5,123.3l-41-4.5c-9.2,44.2-7.2,86.2,4.3,131l34.4-6C308.4,201,309.5,164,316.5,123.3z M315.5,252.6
	l-33.1,6.6c1.9,6.6,3.9,13.3,6.2,20l30.5-6.2C317.7,266,316.5,259.2,315.5,252.6L315.5,252.6z"/>
<path class="st0" d="M174.6,158.5l31.6,2c-3.9,27.2,5.2,56.1,24,54s19.3-39.2,2.3-59.2l29.8-7.5c12.2,16.8,14.2,44,8.5,60.5
	c1,8.2,2.1,14.6,2.5,20.2c-6.2,17-23.6,25.9-43.7,27C187.2,257.8,157.6,219.5,174.6,158.5z"/>
<path class="st1" d="M180.2,165.3l19.5,1c-4,34,12.5,57,32.5,53.8s25.5-35,9.5-61.2l16.5-4c24.8,38,18.8,88.5-25.5,92.2
	S169.2,209.5,180.2,165.3z"/>
<path class="st0" d="M123.6,282.3c-25.1-55.8-28.3-106.1-26.1-162l-39-3.4c-2.7,10.2-10,55.4-9.6,90.4c0.4,35,11.4,78.5,14.1,86.8
	L123.6,282.3z"/>
<path class="st1" d="M91,125.9l-28.1-2.2c-0.9,5.1-1.8,10.2-2.7,15.2l30.5,1.2C90.7,135.3,90.8,130.6,91,125.9z M90.7,149.9
	l-32.1-0.5c-5.9,40.9-6.1,81.1,9.8,137.1l46-8C96.2,228.6,91.1,189.7,90.7,149.9z"/>
<path class="st0" d="M180.2,215.5c7.5-22.9-4.9-50.6-48.8-49.5c4.9-15.1,18.2-49,27-69l-42.7-15c-6.4,20.8-13.1,44.2-21.8,76.9
	s9,74.1,19.2,104.8c25.5,17.8,68.6,6.2,75.8-28.4C184.5,231.1,181.8,222.7,180.2,215.5z M149.5,228.5c-13.2,8.2-29.6-7-25.2-26.8
	C149.1,190,162.7,220.3,149.5,228.5z"/>
<path class="st1" d="M184.4,220.7c-1.1-36.4-32.6-54.8-62.2-44.6c6.6-23.9,16.9-50.9,27.4-75.8l-29.8-10.4
	c-13.9,50.2-42,129.1-14.2,157.9C136.3,279.6,185.5,257.1,184.4,220.7z M158.9,231.6c-12.4,18.4-51.4,3.9-40.9-35.6
	C150.6,178.4,171.2,213.3,158.9,231.6z"/>
</svg>
