<svg xmlns="http://www.w3.org/2000/svg" viewBox="0 0 810 350"><defs><style>.cls-1{isolation:isolate;}.cls-2{fill:#49321e;}.cls-3,.cls-4,.cls-5,.cls-7{fill:#7acab5;}.cls-3{opacity:0.2;}.cls-5{opacity:0.1;}.cls-6{fill:#f8e2c3;}.cls-7{mix-blend-mode:multiply;opacity:0.5;}</style></defs><g class="cls-1"><g id="Capa_1" data-name="Capa 1"><path class="cls-2" d="M604,156c-13.85,0-24.66-4.74-24.47-12.51s12.14-11.38,24.09-9.68c-3.23-19.15-5.5-52.9,36.79-65.42s68.08,15.74,66.75,48-14.41,62.2-16.5,69.21c10.62-.56,19.72-18.2,30.15-15.36,9.67-5.5,19.53-3.6,21.43.38s-1.4,6.69-5.38,8.39c6.07,5.69,4.24,14.37-5.05,11,5.88,8-4,14.6-13.65,4.55-1.33,3-4.55,4.36-8.73,3.22-3.79,6.64-14.79,17.07-25.79,21.81-1.89,18.39,28.26,39.44,50.07,44.94s32.12,18.28,7.2,23.9c-25.22,5.69-80,4.74-113-2.85S586.16,241,586.54,222s5.88-33.94,17.26-49.3C592,168.35,582.18,157,604,156Z"/><path class="cls-2" d="M628.83,252.17c-12.24-24.93-63.72-17.83-41.65,17.24-16.2-.28-20.37,13.37-10.45,18.14s29.91,0,51.92-2.2c3.06-.3,4.6-6.22,2.44-8.41C629.85,269.9,629.47,260,628.83,252.17Z"/><path class="cls-2" d="M602.69,213.39c-11.83-5.36-23.6-18.59-26.29-26-3.16,1.7-8.06,0-9.08-3.79-4.91,4.23-9.88,7-12.12,5s.37-7.67,6.91-10.68a2,2,0,0,0-.93-1.64c-3.91,3.22-10.77,5-12.37,1.92-.67-1.29,1.76-5,5.66-7.83-4.25-1.52-7.58-4.39-5.71-6.52,2.36-2.69,10.09-.37,16.12,3,3.3.16,6.71,1.65,9.82,5.34,8,9.52,17.49,15.79,25.76,18.83Z"/><path class="cls-2" d="M719.88,258.51c6.79-6.08,15-2.1,15,6,5.33-5.55,12.36-.4,11.65,6.63S714.53,263.31,719.88,258.51Z"/><path class="cls-2" d="M668.6,79.6c15.74-28.84,52.83-9.36,33,19.48,22.11,6,24,32.22,1.13,41.59,11.61,17.23,4.12,37.46-22.48,41.21C671.23,156.4,657.74,96.46,668.6,79.6Z"/><path class="cls-3" d="M685.34,188.75c-3.37,3.87-11.12,6.37-14.36,6.12-2,3.49-8.37,23.1,9.61,34.21C677.6,215.79,681.59,200.36,685.34,188.75Z"/><path class="cls-4" d="M738.66,270.29c-11.53-3.6-57.32-19.48-59.19-46.83a52.43,52.43,0,0,1,0-7.08c12.25-4.33,25.12-16.49,28.43-23.64,3,2,8,.73,9.37-3,4.53,4.63,9.24,7.86,11.65,6.05,2.25-1.7.28-7.68-6-11.24a2.05,2.05,0,0,1,1.07-1.56c3.63,3.55,10.31,5.9,12.16,3,.78-1.23-.14-5.12-8.39-10.52a10.65,10.65,0,0,1,6.26,1.63c3.35-1.31,4.83-3.49,3.41-5.41-2.12-2.88-10-1.23-16.31,1.6-3.31-.12-6.83,1.07-10.24,4.48-8.8,8.8-18.78,14.23-27.28,16.55,6.4-23.75,17.77-51.24,18.29-75C702.7,84.85,682.09,68.74,652.5,71S597.8,95.34,609,139.17c-27.71-8.65-38.81,15,6.42,13,0,2.09-.05,5.62-.12,6.79-30.32-2.8-17,10.85-4.43,11.72-36.34,42-16.48,94,8.62,107.52s114.26,10.12,125.13,5.62S750.65,274,738.66,270.29Z"/><path class="cls-2" d="M642.94,90.28c2.75-1.65,18.67-16.42,42.28-12.67-6.13-5.25-9.5-5.5-9.5-5.5,11.62-39-44.2-33.34-40.08,17.23C636.39,90.84,641.07,91.4,642.94,90.28Z"/><path class="cls-2" d="M622,134.21a4.87,4.87,0,1,1,4.87,4.87A4.87,4.87,0,0,1,622,134.21Z"/><path class="cls-2" d="M649.49,134.18a7.88,7.88,0,1,1,7.88,7.87A7.88,7.88,0,0,1,649.49,134.18Z"/><path class="cls-5" d="M642.29,89.53c-2.16.66-5.25,0-5.9-.65C634,65.93,648.12,45,666.45,47.48,648.75,47.7,642.32,72.8,642.29,89.53Z"/><path class="cls-6" d="M601.81,192.24c-10.59,22.5-11.67,85.34,50.44,90-19.74-19.51-10.63-56.19-4.5-77.17C657.24,172.64,611.89,170.8,601.81,192.24Z"/><path class="cls-7" d="M687.62,246.88c12.51,1.52,19.15,13.08,12.32,25.22,10.43,1.33,17.07,8.54,15.93,15.17-6.74.63-28.91,1-32.78-.6S680.5,256,687.62,246.88Z"/><path class="cls-4" d="M661.07,256c4-5.88,17.06-15.93,28.44-8.35s6.07,23.9-3.22,29.21c22-1.71,23.7,11.57,22.19,17.63s-13.66,13.66-25.23,3c-22.56-6.26-33.75-5.31-27.68-18A186.64,186.64,0,0,1,661.07,256Z"/><path class="cls-2" d="M661.86,254.94c11.53-24,49.27-5.81,31.07,20,17.06,1.9,21.05,14.6,17.63,21.81s-18.87,12.56-31,.19A136,136,0,0,1,656,291.37c-3.24-1.1-3.91-7.66-1.13-9.67-.29,2,.14,5.41,2.13,6.69s12.66,2.75,24,4.83c9.1,9.39,22.89,6.67,25,.86s-.57-17.64-22-16.5C703.17,263.54,683.82,235.86,661.86,254.94Z"/><path class="cls-2" d="M316.31,115.25l-31.67,19.34c14.23,11.95,23.71,27.88,27.12,44.38-33.18-17.26-68.08,22.56-47.6,55s70.36,22.57,77.18-18.2S336,142.18,316.31,115.25ZM290,219.88c-5.4-9,5.55-24.32,23-16.07C313.85,221.3,295.36,228.84,290,219.88Z"/><path class="cls-2" d="M455.22,128.42l25.41,2.66C482.05,157,455,168.92,440,152,451.27,149.82,457.88,140.84,455.22,128.42Z"/><path class="cls-2" d="M499,126.72l41.25,4.84C531.45,187.88,536,228,542,254.16l-31,6C494.19,215.76,489.07,177.92,499,126.72Z"/><path class="cls-2" d="M289.76,240.6c-37-8.72-67.89,10.81-78.32,7.2s-4.55-27.68-1.13-49.49-.57-43.43-20.67-48.36c-19.17-4.7-48.55,15.36-72.63,82.49l35.84,6.26c7.58-27.12,15.74-53.85,19.53-62.77s10.43-9.67,7.4,1.9-21,58.69-12.85,80.31,23.65,24.75,47.55,18.68c18.81-4.78,44.56-17.89,61,1.08l54.93-10.65C323.55,256.2,311.4,245.7,289.76,240.6ZM332.07,270l-54.44,10.55c3.55,4.95,6.58,11.62,8.91,20.51l52.15-11.19A62.88,62.88,0,0,0,332.07,270Z"/><path class="cls-4" d="M276.11,243.06c-36.41-2.46-69.22,24.28-74.15-.38s10.43-43.42,2.85-69.78-37.55-27.12-49.5,5.5c-11.15,30.45-28.63,46.46-28.63,46.46l20.86,6.92c7-21.52,17.44-53.19,22.56-61.54s16.5-11.37,14.8,4.75-14.61,44.94-14.8,65.42,7.4,37.93,37.55,32c23.43-4.57,52.23-18.17,70.4-1.17l44.22-7.71C313.39,252.57,299.16,244.62,276.11,243.06Zm53,31.56-42.61,8.53a68.89,68.89,0,0,1,4.22,11.3L333,285.16A70.79,70.79,0,0,0,329.1,274.62Z"/><path class="cls-4" d="M448.48,152.64c12.95,6.25,25.86-4.64,25.44-17.55l-14.06-1.77C461.22,142,456.82,150.17,448.48,152.64Z"/><path class="cls-4" d="M534.39,135.54l-31.1-3.41c-7,33.51-5.43,65.36,3.25,99.33l26.1-4.55A290.06,290.06,0,0,1,534.39,135.54Zm-.79,98.12-25.12,5q2.11,7.51,4.67,15.18l23.14-4.74Q534.76,241.21,533.6,233.66Z"/><path class="cls-2" d="M57.08,159.25l31.67-5.12c0,9.29.19,25.79.19,25.79,5.5-31.29,19.15-71.69,48-74s42.29,44.94,21.62,74.15A637.12,637.12,0,0,1,117,232.44c7.39-24.27,18-55.18,21.24-85.33,3.35-31.41-12.88-14.73-19,5.5C112.83,174,107,203.81,101.65,253.49L70,259.56C59.36,239.84,52,193.19,57.08,159.25Z"/><path class="cls-4" d="M60.87,163.42l22.95-3.8c.19,22.38,1.52,39.83,5.12,55.95,3-29,6.45-54.62,19.53-81S144.88,102,157.4,123.21s6.83,55.47-9.86,108.57l-25-4.08c16.3-52.34,21.42-71.87,21-90.64s-12.52-21.62-24.85,2.46-17.82,70.93-22,109.42l-24.85,5.12C59.55,221.07,58.6,189.21,60.87,163.42Z"/><path class="cls-2" d="M263.21,216l12.24-5c-2.56-24.18-26.43-42.07-51.11-33.09-33.09,12-17.73,41.06-22.57,54.42,2.65,7.1,8.9,13.46,18,17.67,7.61-1.45,13.59-2.59,20.7-1.74,13.37,1.43,26.51-2.24,37-19.53Zm-20.1-17.07-18.2,7C225.29,198.31,237.05,192.43,243.11,198.88Zm-8.41,29s12.79-5.11,17.35-7.19C250.91,226.42,240.81,230.76,234.7,227.85Z"/><path class="cls-4" d="M259.94,220.73c-9.81,14.37-30.58,17.36-36.55,5.55l46.08-19.06c-4.93-16.68-21.43-32.61-45.32-24.08S196.51,220.45,208,235.81s40.54,23.75,61.87-6Zm-9.67-20.19L219,212.77C217.32,191.48,241.79,184.66,250.27,200.54Z"/><path class="cls-2" d="M426.77,162.28l24,1.52c-2.94,20.67,4,42.52,18.21,41s14.6-29.77,1.7-44.95l22.57-5.68c9.29,12.7,10.81,33.37,6.45,45.89.76,6.25,1.61,11,1.89,15.31-4.66,12.88-17.92,19.63-33.13,20.48C436.36,237.61,413.88,208.55,426.77,162.28Z"/><path class="cls-4" d="M431,167.4l14.79.76c-3,25.79,9.48,43.23,24.65,40.77s19.35-26.55,7.21-46.46l12.52-3c18.77,28.82,14.22,67.13-19.35,70S422.7,201,431,167.4Z"/><path class="cls-4" d="M314.23,122.46l-21.05,12.7c16.68,15.17,22.37,34.7,24.84,52.53-35.65-24.27-64.29,15.74-52.15,38.5s38.87,30,59.36,9.29S342.29,163.42,314.23,122.46ZM286.35,225.24c-10.43-12.33,3-40.2,32.43-24.84C321.05,224.29,296.78,237.56,286.35,225.24Z"/><path class="cls-2" d="M388.08,256.2c-19-42.37-21.47-80.5-19.81-122.93l-29.53-2.56c-4.34,16.33-7,43.52-1.57,58.88,4,17.35,2.56,27.87-3.59,40.09a223.7,223.7,0,0,0,8.57,35.38Z"/><path class="cls-4" d="M363.34,137.53,342,135.83q-1.08,5.83-2,11.56l23.15.88C363.17,144.71,363.23,141.14,363.34,137.53Zm-.2,18.25-24.38-.38c-4.45,31-4.66,61.54,7.42,104l34.91-6.09C367.26,215.46,363.41,186,363.14,155.78Z"/><path class="cls-2" d="M431,205.52c5.69-17.36-3.7-38.4-37-37.55,3.7-11.47,13.85-37.17,20.48-52.34l-32.42-11.38c-4.83,15.74-10,33.57-16.52,58.32s6.84,56.22,14.56,79.5c19.31,13.51,52,4.69,57.52-21.57C434.24,217.38,432.24,211,431,205.52Zm-23.32,9.86c-10.05,6.26-22.48-5.31-19.16-20.29C407.43,186.17,417.77,209.12,407.72,215.38Z"/><path class="cls-4" d="M434.17,209.5c-.85-27.59-24.75-41.53-47.22-33.85,5-18.11,12.8-38.59,20.77-57.46l-22.48-8c-10.52,38.11-31.89,97.89-10.8,119.75C397.76,254.16,435,237.09,434.17,209.5Zm-19.34,8.25c-9.39,13.94-39,2.94-31-27C408.57,177.36,424.21,203.81,414.83,217.75Z"/></g></g></svg>