<?xml version="1.0" encoding="utf-8"?>
<!-- Generator: Adobe Illustrator 25.3.1, SVG Export Plug-In . SVG Version: 6.00 Build 0)  -->
<svg version="1.1" id="Capa_1" xmlns="http://www.w3.org/2000/svg" xmlns:xlink="http://www.w3.org/1999/xlink" x="0px" y="0px"
	 viewBox="0 0 400 300" style="enable-background:new 0 0 400 300;" xml:space="preserve">
<style type="text/css">
	.st0{fill:none;}
	.st1{fill:#7ACAB5;}
	.st2{fill:#49321E;}
	.st3{opacity:0.1;fill:#7ACAB5;enable-background:new    ;}
</style>
<path class="st0" d="M26,291.2c0.5-19.4,30.2-28.3,60-24.1c-8-47.7-13.7-131.7,91.6-162.8c36.9-10.9,68.8-9.4,94.5,0.8
	c40.4-25.6,92.5,11.8,63.5,66.1c1.6,4.2,2.9,8.5,4,12.9c44.4,19.1,46.2,75.3-3.1,98.4c-0.4,2-0.8,4-1.2,6c2.3,3.8,4.2,7.7,5.7,11.6
	h59V0H0v300h27.9C26.6,297.3,25.9,294.3,26,291.2z"/>
<path class="st1" d="M259.6,115.5c-15.5-4.6-33-6.2-51.9-4.8C134,116.3,71.5,171.3,99.5,280.4c-44.2-13.8-71.4,5.4-55.6,19.6H320
	c5.9-23.7,10.2-47,10.7-69C332.1,167.3,304.2,128.8,259.6,115.5z"/>
<path class="st2" d="M339.6,184c-1.1-4.4-2.5-8.7-4-12.9c28.9-54.3-23.1-91.6-63.5-66.1c-1.4-0.5-2.7-1-4.1-1.5
	c14-72.3-75-71.4-97.6,3.1c-97.7,32.8-92.1,114-84.3,160.5c-29.8-4.2-59.5,4.7-60,24.1c-0.1,3.1,0.6,6.1,1.9,8.8h15.9
	c-15.8-14.2,11.4-33.4,55.6-19.6c-22.6-88.3,13.9-141.1,67.7-161c-2,11-2.6,23.4-1.5,37c1.9,3.7,13.5,5.1,18.2,2.3
	c6.6-4,44.3-38.8,100.3-32.2c30,18.7,47.7,53.5,46.6,104.5c-0.5,22-4.7,45.3-10.7,69H341c-1.5-3.9-3.4-7.8-5.7-11.6
	c0.4-2,0.8-4,1.2-6C385.8,259.4,384,203.1,339.6,184z"/>
<path class="st2" d="M131.6,268.1c0-6.7,5.4-12.1,12.1-12.1c6.7,0,12.1,5.4,12.1,12.1c0,6.7-5.4,12.1-12.1,12.1c0,0,0,0,0,0
	C137.1,280.2,131.6,274.8,131.6,268.1z"/>
<path class="st2" d="M200.2,268c0-10.8,8.8-19.6,19.6-19.6s19.6,8.8,19.6,19.6c0,10.8-8.8,19.6-19.6,19.6c0,0,0,0,0,0
	C208.9,287.6,200.2,278.8,200.2,268z"/>
<path class="st3" d="M182.2,156.8c-5.4,1.6-13.1,0-14.7-1.6c-6.1-57.1,29.2-109.2,74.8-103C198.3,52.7,182.3,115.2,182.2,156.8z"/>
</svg>
