<?xml version="1.0" encoding="utf-8"?>
<!-- Generator: Adobe Illustrator 25.3.1, SVG Export Plug-In . SVG Version: 6.00 Build 0)  -->
<svg version="1.1" id="Capa_1" xmlns="http://www.w3.org/2000/svg" xmlns:xlink="http://www.w3.org/1999/xlink" x="0px" y="0px"
	 viewBox="0 0 1200 700" style="enable-background:new 0 0 1200 700;" xml:space="preserve">
<style type="text/css">
	.st0{fill:#49321E;}
	.st1{fill:#7ACAB5;}
	.st2{fill:none;stroke:#49321E;stroke-width:5;stroke-miterlimit:10;}
	.st3{opacity:0.1;fill:#7ACAB5;enable-background:new    ;}
	.st4{fill:none;stroke:#49321E;stroke-width:3;stroke-miterlimit:10;}
	.st5{opacity:0.5;fill:#D53692;enable-background:new    ;}
	.st6{opacity:0.8;fill:#49321E;enable-background:new    ;}
	.st7{opacity:0.6;}
	.st8{fill:none;stroke:#FFFFFF;stroke-width:4;stroke-miterlimit:10;}
	.st9{fill:none;stroke:#FFFFFF;stroke-width:3;stroke-miterlimit:10;}
	.st10{fill:#FFFFFF;stroke:#49321E;stroke-width:3;stroke-miterlimit:10;}
	.st11{fill:#FFFFFF;}
	.st12{fill:#FFFFFF;stroke:#49321E;stroke-width:8;stroke-miterlimit:10;}
	.st13{fill:none;stroke:#49321E;stroke-width:4;stroke-miterlimit:10;}
</style>
<g id="contenido">
	<path class="st0" d="M504,551.9c-0.5-8.9-0.8-17.8-0.5-28.6v-23.9c0-3.7,1.5-5.3,5.3-5.6c2.9-0.2,5.7,0.2,8.5,1.1
		c4.8,1.6,7.6,5.2,9.4,9.6c1.4,3.8,2.3,7.7,2.7,11.7c0.6,4.2,0.8,8.5,0.6,12.7c-0.3,6.7-2.2,13.2-5.4,19.1
		c-2.5,4.6-6.8,7.9-11.9,9.3c-3.2,0.9-5.5-0.7-7.6-2.7c-0.6-0.8-0.9-1.7-0.9-2.7L504,551.9z M509.6,502.1c0.4,7.5,0.5,14.9,0.4,22.4
		c0,3.6-0.1,7.2,0,10.7c0.1,4.6,0.3,9.2,0.5,13.8c0.1,2.1,0.4,2.2,2.3,1.3c2.6-1.1,4.7-3.1,6-5.7c2.4-4.6,3.8-9.5,4.2-14.7
		c0.3-4.7,0.1-9.5-0.6-14.2c-0.4-3.5-1.3-6.8-2.7-10c-1.9-3.9-5.1-5.3-9.2-5.6c-0.8-0.1-1.1,0.3-1,1L509.6,502.1L509.6,502.1z"/>
	<path class="st0" d="M537.6,529.3c-0.1,0.8,0,1.6,0.4,2.3c3.6-0.5,7.3-1.2,11-1.4c1-0.1,2-0.2,3-0.1c2.2,0.2,3.6,1.4,3.6,3.3
		s-1.3,3.2-3.6,3.2c-4.1,0.1-8.2,0.4-12.2,0.9c-1.2,0.2-1.6,0.6-1.5,1.8c0.3,3,0.5,5.9,0.6,8.9c0.1,1,0.5,1.3,1.5,1.2l7.6-1.3
		c1-0.2,2-0.2,3,0.1c1.2,0.4,2,1.5,2.1,2.8c0.1,1.3-0.6,2.5-1.7,3l-0.8,0.3c-3.8,0.8-7.6,1.3-11.5,1.4c-0.9,0-1.8-0.2-2.7-0.5
		c-2.1-0.6-3.6-2.6-3.7-4.8c-1.3-14.8-2.1-29.6-0.9-44.5c0.2-2,0.5-4,0.5-5.9c-0.1-1.7,1.1-3.3,2.9-3.4c0,0,0.1,0,0.1,0
		c0.6-0.1,1.3-0.1,1.9-0.1h13.5c0.9-0.1,1.8,0.1,2.6,0.5c1.2,0.5,1.9,1.8,1.8,3.1c-0.1,1.3-0.9,2.4-2.1,2.8
		c-0.9,0.3-1.8,0.4-2.7,0.4c-3.2-0.2-6.3-0.3-9.5-0.4c-2.4-0.1-2.4-0.1-2.5,2.4c-0.1,2.1-0.2,4.1-0.2,6.2c0,6,0.1,12.1,0.2,18.1
		L537.6,529.3z"/>
	<path class="st0" d="M570.3,545.2c0.1-5.6-1.5-11.1-4.5-15.8c-1.3-2-2.3-4-3.5-6.1c-3.4-5.9-3.2-12-0.2-18c2-3.9,5.3-5.9,9.5-6.5
		c1.6-0.2,3.2,0.1,4.6,0.9c1,0.5,1.8,1.4,2.2,2.5c0.5,1.2,0.1,2.5-0.8,3.3c-0.8,0.8-2.2,1-3.2,0.3c-0.9-0.8-2.1-1-3.2-0.6
		c-1.4,0.5-2.5,1.4-3.2,2.7c-1.9,4-2.3,8.1,0,12.1l4.6,8.1c2.4,4.1,3.8,8.8,4,13.6c0.3,2.2,0.3,4.5,0.1,6.8c-1,6.3-8.1,11.4-15,8.1
		c-2.9-1.4-5.1-3.2-5.8-6.4c-0.2-0.9-0.3-1.8-0.2-2.7c0.3-1.7,2-2.7,3.7-2.4c0.7,0.1,1.3,0.5,1.7,1c0.4,0.4,0.7,1,0.9,1.5
		c0.8,2.2,2.9,3.6,4.8,3.2c2.1-0.4,3.4-2.2,3.5-4.7L570.3,545.2z"/>
	<path class="st0" d="M593.7,506.1c0.1,6.9,0.4,13.9,0.5,22c0.5,7.1,0.4,15.4,1.1,23.7c0.1,0.7,0,1.4-0.3,2.1
		c-0.5,1.7-2.2,2.7-3.9,2.2c-1.1-0.3-1.9-1.1-2.2-2.2c-0.3-0.6-0.4-1.2-0.4-1.8c-0.7-14.8-1.7-29.7-1.1-44.5v-3
		c0-1.5-0.1-1.6-1.5-1.4c-0.8,0.1-1.6,0.3-2.4,0.4c-2,0.2-3.3-0.6-3.6-2.2c-0.3-1.6,0.8-3.2,2.4-3.5c0,0,0.1,0,0.1,0
		c2-0.5,4.1-0.9,6.1-1.1c3.5-0.4,7.1-0.5,10.6-0.5c0.8,0,1.5,0,2.2,0.2c1.6,0.3,2.7,1.7,2.6,3.3c-0.1,1.7-1.5,3-3.2,3.1
		c-1.3,0.1-2.5,0-3.8,0C593,502.7,593.6,502.4,593.7,506.1L593.7,506.1z"/>
	<path class="st0" d="M613.6,544c-0.3-0.6-0.7-1.1-1.3-1.4c-0.1,3.3,0,6.6,0.3,9.9c0.2,0.9,0.1,1.8-0.1,2.7c-0.4,1.3-1.6,2.3-3,2.3
		c-1.4,0.1-2.7-0.7-3.2-2.1c-0.3-0.6-0.4-1.2-0.4-1.8c-0.6-14.2-0.5-28.5,0.3-42.7c0.2-3.3,0.5-6.7,0.5-10c0-3.6,1.5-5.4,5.6-5.8
		c8.2-0.8,14,3,16.1,10.9c1.8,6.1,1.1,12.7-2,18.4c-2.3,4.5-5.4,8.5-9.1,11.9c-0.6,0.5-0.9,1-0.5,1.7c2.3,3.8,4.9,7.5,7.7,11
		c0.7,0.9,1.5,1.7,2.4,2.3c1.7,1.3,2.1,3.1,1.1,4.6c-1.1,1.6-3.3,2-4.9,0.9c-1.8-1.1-3.4-2.6-4.6-4.4c-2-2.7-3.8-5.5-5.5-8.4
		L613.6,544z M612.6,521c-0.2,3.4-0.1,6.8-0.1,10.4c0.8-0.1,1.6-0.6,2.1-1.3c2.4-3,5-5.9,6.6-9.5c2-4.4,2.3-9.4,0.7-14
		c-1.2-3.6-3.8-5.3-7.5-5.6c-1-0.1-1.6,0.1-1.5,1.3c0,0.6-0.1,1.3-0.1,1.9c-0.1,5.6-0.1,11.2-0.4,16.7L612.6,521z"/>
	<path class="st0" d="M636.7,529.3c-0.1,0.8,0,1.6,0.4,2.3c3.6-0.5,7.3-1.2,11-1.4c1-0.1,2-0.2,3-0.1c2.2,0.2,3.6,1.4,3.6,3.3
		s-1.3,3.2-3.6,3.2c-4.1,0.1-8.2,0.4-12.2,0.9c-1.2,0.2-1.6,0.6-1.5,1.8c0.3,3,0.5,5.9,0.6,8.9c0.1,1,0.5,1.3,1.5,1.2l7.6-1.3
		c1-0.2,2-0.2,3,0.1c1.2,0.4,1.9,1.5,2,2.8c0.1,1.3-0.6,2.5-1.7,3l-0.8,0.3c-3.8,0.8-7.6,1.3-11.4,1.4c-0.9,0-1.8-0.2-2.7-0.5
		c-2.1-0.6-3.6-2.6-3.7-4.8c-1.3-14.8-2.1-29.6-0.9-44.5c0.2-2,0.5-4,0.5-5.9c-0.1-1.7,1.1-3.3,2.9-3.4c0,0,0.1,0,0.1,0
		c0.6-0.1,1.3-0.1,1.9-0.1h13.5c0.9-0.1,1.8,0.1,2.6,0.5c1.2,0.5,1.9,1.8,1.8,3.1c-0.1,1.3-0.9,2.4-2.1,2.8
		c-0.9,0.3-1.8,0.4-2.7,0.4c-3.2-0.2-6.3-0.3-9.5-0.4c-2.4-0.1-2.4-0.1-2.5,2.4c-0.1,2.1-0.2,4.1-0.2,6.2c0,6,0.1,12.1,0.2,18.1
		L636.7,529.3z"/>
	<path class="st0" d="M664.2,547.7c-0.3,0.5-0.4,1.1-0.2,1.6c2.3-0.2,4.6-0.7,6.8-1.4l4.3-1.3c0.6-0.2,1.3-0.2,2-0.1
		c1.2,0.2,2.1,1,2.5,2.1c0.5,1.2,0.2,2.5-0.7,3.4c-0.5,0.5-1.2,0.9-1.9,1.2c-4.1,1.4-8.3,2.5-12.6,3.2c-1.6,0.2-3.2,0.1-4.8-0.4
		c-2.5-0.7-3.9-3.2-3.3-5.7c0,0,0-0.1,0-0.1c1-3.7,2.4-7.4,4.2-10.8c3.9-8,8-15.8,11.2-24c1.3-3.1,2.5-6.1,3.7-9.3
		c0.4-0.8,0.6-1.7,0.8-2.6c0.3-1.4,0.1-1.6-1.3-1.6c-4.2,0-8.5,0.6-12.6,1.6c-0.5,0.1-0.9,0.3-1.3,0.4c-1.2,0.2-2.5-0.3-3.2-1.4
		c-0.6-1.2-0.4-2.6,0.6-3.5c0.6-0.5,1.3-0.9,2-1.2c5-1.6,10.1-2.4,15.3-2.5c5,0,7.5,2.9,7.1,7.8c-0.1,0.9-0.3,1.8-0.5,2.7
		c-0.7,2.5-1.5,5-2.5,7.4c-3.7,9.5-8,18.6-12.6,27.6c-1.2,2.3-2.2,4.7-3.2,7.1L664.2,547.7z"/>
	<path class="st0" d="M684.4,549.7c0.4-6.8,1.3-13.4,2.1-20.1c1.2-10.2,3.2-20.2,5.3-30.1c0.5-2.2,2.1-2.7,3.8-3.1
		c1.4-0.5,2.6,0.3,3.5,1.4c0.7,0.9,1.1,2,1.4,3.1c2.1,6,3.6,12.2,4.4,18.5c1.3,8.8,2.8,17.6,4.4,26.5c0.5,2.5,0.7,5,1.1,7.6
		c0.3,1.5-0.3,3-1.6,3.8c-1.6,0.9-3.6,0.4-4.5-1.2c0-0.1-0.1-0.2-0.1-0.3c-0.3-0.8-0.6-1.7-0.6-2.6c-0.4-3.8-1.1-7.5-1.7-11.2
		c-0.2-1.1-0.5-1.6-1.7-1.3c-2.2,0.6-4.4,0.9-6.7,1c-1.2,0.1-1.5,0.6-1.7,1.7c-0.4,2.5-0.4,5.1-0.6,7.7c0,1-0.1,1.9-0.4,2.9
		c-0.4,1.5-1.8,2.6-3.4,2.4c-1.6-0.1-2.8-1.3-2.9-2.9c0-0.6,0-1.3,0-1.9V549.7z M698,519.5c-0.5-3.1-1-6.1-1.5-9.2h-0.5
		c-1.2,8.3-2.7,16.6-3.4,25c2.1-0.1,4.2-0.4,6.3-1c1.2-0.3,1.4-0.7,1.3-1.9C699.4,528.1,698.8,523.8,698,519.5L698,519.5z"/>
	<path class="st0" d="M200.4,579.5c-2,7.1-2.9,14.5-2.7,21.9c0,4,0.5,7.9,1.4,11.8c0.3,1.5,0.9,3,1.7,4.3c0.5,0.9,1.1,1,1.8,0.2
		c0.6-0.8,1.2-1.7,1.6-2.6c0.9-1.8,1.4-3.8,2.2-5.7c0.8-2.1,2.4-3,4.1-2.4c1.8,0.7,2.7,2.7,2.1,4.5c-0.9,3.9-2.6,7.6-5,10.9
		c-3.9,4.8-9.1,4.4-12.3-0.9c-1.7-3-2.8-6.3-3.2-9.7c-2-12.3-1-24.9,3-36.7c0.8-2.3,1.9-4.5,3.2-6.5c0.7-1,1.4-1.8,2.3-2.6
		c3.1-2.4,6.6-2.2,9.3,0.7c1.5,1.7,2.6,3.6,3.2,5.8c1.1,3.1,1.7,6.2,2,9.5c0.1,0.5,0.1,1.1,0,1.6c-0.1,1.6-1.4,2.9-3,3.2
		c-1.6,0-3-1-3.3-2.5c-0.3-1-0.4-2.1-0.5-3.2c-0.3-2.8-1-5.5-2.2-8.1c-0.9-1.8-1.4-1.9-2.6-0.3c-1.4,2.1-2.4,4.3-3.1,6.8
		L200.4,579.5z"/>
	<path class="st0" d="M222.6,597.1c-0.1,0.8,0,1.6,0.4,2.3c3.6-0.5,7.3-1.2,11-1.4c1-0.1,2-0.2,3-0.1c2.2,0.2,3.6,1.4,3.6,3.3
		s-1.4,3.2-3.6,3.2c-4.1,0.1-8.2,0.4-12.2,0.9c-1.2,0.2-1.6,0.6-1.5,1.8c0.3,3,0.4,5.9,0.6,8.9c0.1,1,0.5,1.3,1.5,1.2l7.6-1.3
		c1-0.2,2-0.2,3,0.1c1.2,0.4,2,1.5,2.1,2.8c0.1,1.3-0.6,2.5-1.7,3l-0.8,0.3c-3.8,0.8-7.6,1.3-11.5,1.4c-0.9,0-1.8-0.2-2.7-0.5
		c-2.1-0.6-3.6-2.6-3.7-4.8c-1.3-14.8-2.1-29.6-0.9-44.5c0.2-2,0.4-4,0.5-5.9c-0.1-1.7,1.1-3.3,2.9-3.4c0,0,0.1,0,0.1,0
		c0.6-0.1,1.3-0.1,1.9-0.1h13.5c0.9-0.1,1.8,0.1,2.6,0.5c1.2,0.5,1.9,1.8,1.8,3.1c-0.1,1.3-0.9,2.4-2.1,2.8
		c-0.9,0.3-1.8,0.4-2.7,0.4c-3.1-0.2-6.3-0.3-9.4-0.4c-2.4-0.1-2.4-0.1-2.5,2.4c-0.1,2.1-0.2,4.1-0.2,6.2c0,6,0.1,12.1,0.2,18.1
		L222.6,597.1z"/>
	<path class="st0" d="M250.6,611.8c-0.3-0.6-0.7-1.1-1.3-1.4c-0.1,3.3,0,6.6,0.3,9.9c0.2,0.9,0.1,1.8-0.1,2.7
		c-0.4,1.3-1.6,2.3-3,2.3c-1.4,0.1-2.7-0.7-3.1-2.1c-0.3-0.6-0.4-1.2-0.4-1.8c-0.6-14.2-0.5-28.5,0.3-42.7c0.2-3.3,0.5-6.7,0.5-10
		c0-3.6,1.5-5.4,5.6-5.8c8.2-0.8,14,3,16.1,10.9c1.8,6.1,1.1,12.7-2,18.4c-2.3,4.5-5.4,8.5-9.1,11.9c-0.6,0.5-0.9,1-0.4,1.7
		c2.3,3.8,4.9,7.5,7.7,11c0.7,0.9,1.5,1.7,2.4,2.3c1.7,1.3,2.1,3.1,1.1,4.6c-1.1,1.6-3.3,2-4.9,0.9c-1.8-1.1-3.4-2.6-4.6-4.4
		c-2-2.7-3.8-5.5-5.5-8.4L250.6,611.8z M249.6,588.8c-0.2,3.4-0.1,6.8-0.1,10.4c0.8-0.1,1.6-0.6,2.1-1.3c2.4-3,5-5.9,6.6-9.5
		c2-4.4,2.3-9.4,0.7-14c-1.2-3.6-3.8-5.3-7.5-5.6c-1-0.1-1.6,0.1-1.5,1.3c0,0.6-0.1,1.3-0.1,1.9c-0.1,5.6-0.1,11.2-0.4,16.7
		L249.6,588.8z"/>
	<path class="st0" d="M276.4,579.5c-2,7.1-2.9,14.5-2.7,21.9c0,4,0.5,7.9,1.4,11.8c0.3,1.5,0.9,3,1.7,4.3c0.5,0.9,1.1,1,1.8,0.2
		c0.6-0.8,1.2-1.7,1.6-2.6c0.9-1.8,1.4-3.8,2.2-5.7c0.8-2.1,2.4-3,4.1-2.4c1.8,0.7,2.7,2.7,2.1,4.5c-0.9,3.9-2.6,7.6-5,10.9
		c-3.9,4.8-9.1,4.4-12.3-0.9c-1.7-3-2.8-6.3-3.2-9.7c-2-12.3-1-24.9,3-36.7c0.8-2.3,1.9-4.5,3.2-6.5c0.7-1,1.4-1.8,2.3-2.6
		c3.1-2.4,6.6-2.2,9.3,0.7c1.5,1.7,2.6,3.6,3.2,5.8c1.1,3.1,1.7,6.2,2,9.5c0.1,0.5,0.1,1.1,0,1.6c-0.1,1.6-1.4,2.9-3,3.2
		c-1.6,0.1-3-1-3.3-2.5c-0.2-1-0.4-2.1-0.5-3.2c-0.3-2.8-1-5.5-2.2-8.1c-0.9-1.8-1.4-1.9-2.6-0.3c-1.4,2.1-2.4,4.3-3.1,6.8
		L276.4,579.5z"/>
	<path class="st0" d="M292.4,617.5c0.4-6.8,1.3-13.4,2.1-20.1c1.2-10.2,3.2-20.2,5.3-30.2c0.5-2.2,2.1-2.7,3.8-3.2
		c1.4-0.4,2.8,0.2,3.5,1.4c0.7,0.9,1.1,2,1.4,3.1c2.1,6,3.6,12.2,4.4,18.5c1.3,8.8,2.8,17.6,4.4,26.5c0.5,2.5,0.7,5,1.1,7.6
		c0.3,1.5-0.3,3-1.6,3.8c-1.6,0.9-3.6,0.4-4.5-1.2c0-0.1-0.1-0.2-0.1-0.3c-0.3-0.8-0.6-1.7-0.6-2.6c-0.4-3.8-1.1-7.5-1.7-11.2
		c-0.2-1.1-0.5-1.6-1.7-1.3c-2.2,0.6-4.4,0.9-6.6,1c-1.2,0.1-1.5,0.6-1.7,1.7c-0.4,2.5-0.4,5.1-0.6,7.7c0,1-0.1,1.9-0.4,2.9
		c-0.4,1.5-1.8,2.6-3.4,2.4c-1.6-0.1-2.8-1.3-2.9-2.9c0-0.6,0-1.3,0-1.9V617.5z M306,587.3c-0.5-3.1-1-6.1-1.5-9.2h-0.5
		c-1.2,8.3-2.7,16.6-3.4,25c2.1-0.1,4.2-0.4,6.3-1c1.2-0.3,1.4-0.7,1.2-1.9C307.3,595.9,306.8,591.6,306,587.3L306,587.3z"/>
	<path class="st0" d="M328.5,583c-0.1-0.6-0.4-1.1-0.9-1.5c-0.6,12.5-1.2,24.8-1,37.2c0,0.7,0,1.4-0.1,2.2c-0.2,2.2-1.4,3.6-3.3,3.6
		s-3.1-1.3-3.2-3.4c-0.1-3.7-0.3-7.4-0.2-11.1c0.3-7.8,0.3-15.8,0.8-23.6c0.4-5.8,0.6-11.5,1-17.3c0.1-1.4,0.4-2.7,0.8-4
		c0.5-1.6,1.4-2.3,2.7-2.4c1.3-0.1,2.6,0.7,3.1,1.9c2.1,4.5,4,9.2,5.8,13.9c2,5.3,3.9,10.6,5.9,15.9c0.2,0.5,0.4,0.9,0.5,1.4
		c0.6-0.4,0.5-0.8,0.5-1.2l0.3-27.8c0-0.4,0-0.7,0.1-1.1c0.1-1.3,1.1-2.3,2.3-2.4c1.2-0.2,2.5,0.4,3,1.5c0.4,0.9,0.5,1.9,0.5,2.9
		c0.5,10.1,0.6,20.2,0.3,30.2c-0.3,7.4-0.5,14.8-0.1,22.1c0.1,0.8,0.1,1.6-0.1,2.4c-0.2,1.6-1.6,2.7-3.1,2.8c-1.6,0.1-3-1-3.3-2.5
		l-0.5-2.2c-2.2-9.8-5.1-19.5-8.7-28.9l-3-8.1L328.5,583z"/>
	<path class="st0" d="M360.2,548.3c1.2,0.8,1.8,2.4,1.3,3.7c-0.1,0.6-0.5,1.1-0.9,1.4c-2,2.2-4,4.4-5.9,6.6c-1.6,1.8-3.5,2.1-5,0.7
		s-1.4-3.2,0.2-4.9c2.1-2.2,4.2-4.5,6.4-6.8c1.3-1.3,2.7-1.5,3.9-0.8L360.2,548.3z M357.7,570.8c0.1,8.3,0,16.6,0.4,23
		c0.4,10.3,0.6,18.8,0.9,27.3c0,0.5,0,0.9-0.1,1.3c-0.3,1.6-1.6,2.7-3.2,2.8c-1.5,0-2.8-1.1-3.1-2.5c-0.1-0.7-0.2-1.5-0.2-2.2
		c-0.3-9-0.5-18-0.9-27c-0.4-7.9,0.2-15.8,0.3-23.6c0-0.7,0-1.4,0.3-2.1c0.3-1.2,1.5-2,2.7-2c1.3,0,2.4,0.8,2.8,2
		c0.3,1,0.4,2.1,0.4,3.2L357.7,570.8z"/>
	<path class="st0" d="M362.9,617.5c0.4-6.8,1.3-13.4,2.1-20.1c1.2-10.2,3.2-20.2,5.3-30.2c0.5-2.2,2.1-2.7,3.8-3.2
		c1.4-0.5,2.6,0.3,3.5,1.4c0.7,0.9,1.2,2,1.5,3.1c2.1,6,3.6,12.2,4.4,18.5c1.3,8.8,2.8,17.6,4.4,26.5c0.5,2.5,0.7,5,1.1,7.6
		c0.3,1.5-0.3,3-1.6,3.8c-1.6,0.9-3.6,0.4-4.5-1.2c0-0.1-0.1-0.2-0.1-0.3c-0.3-0.8-0.6-1.7-0.6-2.6c-0.4-3.8-1.1-7.5-1.7-11.2
		c-0.2-1.1-0.5-1.6-1.7-1.3c-2.2,0.6-4.4,0.9-6.7,1c-1.2,0.1-1.5,0.6-1.7,1.7c-0.4,2.5-0.4,5.1-0.6,7.7c0,1-0.1,1.9-0.4,2.9
		c-0.4,1.5-1.8,2.6-3.4,2.4c-1.6-0.1-2.8-1.3-2.9-2.9c0-0.6,0-1.3,0-1.9L362.9,617.5z M376.4,587.3c-0.5-3.1-1-6.1-1.5-9.2h-0.5
		c-1.2,8.3-2.7,16.6-3.4,25c2.1-0.1,4.2-0.4,6.3-1c1.2-0.3,1.4-0.7,1.3-1.9C377.8,595.9,377.2,591.6,376.4,587.3L376.4,587.3z"/>
	<path class="st0" d="M373.1,529.8c-68.3,5.4-89.6-38.9-95.8-68.6C263,462,249,441,266,430c-30,1-44-34-10-54
		c-17-45-37.5-126.4,55.4-172.8s164.4,8.5,174.5,83.8c9.1,67.7-5.9,141.2-10.1,171.7S441.4,524.5,373.1,529.8z"/>
	<path class="st0" d="M381.4,217.6c24.6-73.4,118.7-43.4,84.5,31.6c53.7,4.8,68.9,64.9,19.7,96c34,35.2,25,85.2-35.2,104.8
		C419.1,394.6,363.1,261.1,381.4,217.6z"/>
	<path class="st1" d="M465.4,458.3c2.9-20.3,17.3-113,9.6-162.4c-12.4-80.2-66.8-109.1-134.6-91.8s-116.9,79-72.8,176
		C242,390,241,431,290.5,423.4C255,430,272,454,285,452.4c6.3,22.7,12.6,63.9,79.2,65.5S462.5,478.6,465.4,458.3z"/>
	<path class="st0" d="M326.3,252.9c5.7-5,36.6-45.8,92.8-46.8c-16.4-9.6-24.3-8.8-24.3-8.8c10.9-95.2-116.2-59.2-85.9,56.4
		C311.3,256.9,322.4,256.2,326.3,252.9z"/>
	<path class="st2" d="M295.7,363.4c-1.1-6.2,3.1-12.2,9.3-13.3c6.2-1.1,12.2,3.1,13.3,9.3l0,0"/>
	<path class="st2" d="M359.5,352c-2.2-10,4.1-19.9,14.2-22.1s19.9,4.1,22.1,14.2c0.1,0.5,0.2,1,0.3,1.4"/>
	<path class="st3" d="M324.5,251.4c-4.7,2.4-12.2,2.2-14,0.9c-15.1-52.2,9.2-106.6,52.7-108.4C322.3,151.7,317.6,212.6,324.5,251.4z
		"/>
	<path class="st0" d="M308,421c9.4-0.8,18.8-1.8,28.1-3.4c9.3-1.5,18.5-3.6,27.5-6.4c9-2.6,17.6-6.4,25.6-11.1
		c3.9-2.4,7.6-5.2,10.8-8.5c3.2-3.2,5.8-6.9,7.7-11l3.6,1.7c-2.2,4.4-5.2,8.4-8.9,11.8c-3.6,3.3-7.5,6.2-11.7,8.5
		c-8.4,4.6-17.3,8.1-26.6,10.5c-9.2,2.4-18.5,4.2-27.9,5.4C326.9,419.8,317.4,420.6,308,421z"/>
	<path class="st4" d="M403,373c0.6,6.7,6.6,11.6,13.3,11c1.3-0.1,2.5-0.4,3.7-1"/>
	<circle class="st5" cx="416" cy="371" r="9"/>
	<path class="st0" d="M587.4,441.2c-67.7-10.4-78.3-58.4-77.5-88.7c-14.1-2.5-23-26.2-3.9-33c-29.4-5.9-35.1-43.2,2.6-54.9
		c-6.2-47.7-7.6-131.6,93.4-155.6S760.1,155,752.8,230.7c-6.6,68-38,136.1-49.1,164.9S655.1,451.6,587.4,441.2z"/>
	<path class="st0" d="M666.9,139.1c40.8-65.8,125.5-15.1,75,50.1c51.2,17,52.2,78.9-2.8,98c25.1,42,4.8,88.6-58.2,94
		C663.1,320.1,639.2,177.4,666.9,139.1z"/>
	<path class="st1" d="M693.6,392.7c7.5-19.1,42.7-106.1,46.5-155.8c6.2-81-40.1-121.5-110-120.1S498.3,166.9,519,271.5
		c-27.3,3.7-37.6,43.4,12.2,47.3c-36-1.7-25,25.6-12,27c1,23.5-2.3,65.1,62.2,81.9S686.2,411.9,693.6,392.7z"/>
	<path class="st0" d="M605.2,160.9c6.7-3.5,46.1-36.2,101.1-24.3c-13.7-13.1-21.6-14.2-21.6-14.2c32.4-90.1-99.6-84.2-96.5,35.3
		C589.7,161.4,600.6,163.3,605.2,160.9z"/>
	<path class="st2" d="M550.1,253c0.5,6.3,6,11,12.3,10.6c6.1-0.5,10.8-5.7,10.6-11.8"/>
	<path class="st2" d="M614.8,249.5c1.1,10.2,10.2,17.6,20.4,16.5c9.5-1,16.7-9,16.6-18.6"/>
	<path class="st6" d="M539.2,247.9c-2.7,0.2-4.7,2.4-4.5,5.1c0,0.4,0.1,0.7,0.2,1c4.1,14.7,19.3,23.3,34,19.3
		c10.4-2.9,18.2-11.6,19.9-22.3c0.4-2.6-1.3-5.1-4-5.6c-0.3-0.1-0.7-0.1-1-0.1L539.2,247.9z"/>
	<path class="st6" d="M600.5,244.3c-2.2,0.1-3.9,2-3.8,4.2c0,0.1,0,0.3,0,0.4c3.6,20.2,22.8,33.6,43,30.1
		c16.8-3,29.5-17.1,30.6-34.2c0.1-2.2-1.6-4.1-3.8-4.2c-0.1,0-0.3,0-0.4,0L600.5,244.3z"/>
	<g class="st7">
		<line class="st8" x1="547.5" y1="271.5" x2="562" y2="247"/>
		<line class="st9" x1="542" y1="268.7" x2="555" y2="246.7"/>
		<line class="st8" x1="607.5" y1="268.5" x2="622" y2="244"/>
		<line class="st9" x1="603" y1="264" x2="615" y2="243.7"/>
	</g>
	<path class="st2" d="M539.2,247.9c-2.7,0.2-4.7,2.4-4.5,5.1c0,0.4,0.1,0.7,0.2,1c4.1,14.7,19.3,23.3,34,19.3
		c10.4-2.9,18.2-11.6,19.9-22.3c0.4-2.6-1.3-5.1-4-5.6c-0.3-0.1-0.7-0.1-1-0.1L539.2,247.9z"/>
	<path class="st2" d="M600.5,244.3c-2.2,0.1-3.9,2-3.8,4.2c0,0.1,0,0.3,0,0.4c3.6,20.2,22.8,33.6,43,30.1
		c16.8-3,29.5-17.1,30.6-34.2c0.1-2.2-1.6-4.1-3.8-4.2c-0.1,0-0.3,0-0.4,0L600.5,244.3z"/>
	<path class="st3" d="M603.7,159.1c-5.2,1.3-12.3-0.7-13.8-2.3c-2.7-54.3,33.3-101.6,76.1-93.4C624.4,61.5,606,119.7,603.7,159.1z"
		/>
	<path class="st10" d="M548.9,320.4c80.6,38.1,95.1,16.6,107.8-15.2L548.9,320.4z"/>
	<line class="st2" x1="588.5" y1="251.5" x2="597.5" y2="250.5"/>
	<polygon class="st0" points="535,258 505.5,260 505.5,251 535,253 	"/>
	<polygon class="st0" points="670.4,246 747.3,240.5 747.7,252.5 670.6,251 	"/>
	<path class="st4" d="M574.5,379.5c14,19,48,25,65-1"/>
	<path class="st0" d="M861.8,224.2c-19.7-74.9-115.5-51.3-86.4,25.9c-53.9,1.2-73.1,60.1-26.1,94.5c-36.3,32.8-30.6,83.3,28.1,107
		C812.4,398.4,877.1,268.9,861.8,224.2z"/>
	<path class="st11" d="M859,228c-18.7-71.1-103.6-48.3-76,25c-51.2,1.1-73,59-23,91c-34.5,31.2-32.8,78,23,100.4
		C816.2,393.9,873.5,270.5,859,228z"/>
	<path class="st0" d="M849.2,536.3c67.7,9.9,92-32.8,100.2-62c14.2,1.7,29.6-18.3,13.4-30.4c29.9,3,46.2-31,13.6-53.2
		c20-43.8,46-123.6-43.7-176.1s-164.6-2.5-179.8,71.9c-13.7,67-3.6,141.2-1.5,172S781.4,526.4,849.2,536.3z"/>
	<path class="st1" d="M761.8,458.8c-1.5-20.5-9.7-113.9,1.3-162.6c17.8-79.2,74-104.4,140.4-82.5s111.3,86.6,60.8,180.5
		c25,11.5,23.3,52.5-25.6,41.6c35,9,16.4,31.8,3.5,29.3c-7.8,22.2-16.9,62.9-83.5,60S763.3,479.3,761.8,458.8z"/>
	<path class="st2" d="M937.5,375.5c1.7-6.1-2-12.4-8.1-14.1s-12.4,2-14.1,8.1c0,0.2-0.1,0.3-0.1,0.5"/>
	<path class="st2" d="M874.6,359.8c2.2-10-4.1-19.9-14.2-22.1c-9.6-2.1-19.2,3.7-21.8,13.2"/>
	<path class="st12" d="M752,339.5C751,352,756,522,765,539s77,71,178,52c-13-37-10-67,2-120c-15,44-43,35-46,6
		c-13,29-125,40-129-132L752,339.5z"/>
	<path class="st11" d="M788,516c0,14,1,37,3,47"/>
	<path class="st0" d="M788,516c0.4,7.9,0.9,15.7,1.7,23.5c0.4,3.9,0.8,7.8,1.3,11.7s1.1,7.8,2,11.4l-3.9,0.8c-0.6-4-0.8-8-1-11.9
		s-0.3-7.9-0.3-11.8C787.6,531.7,787.7,523.9,788,516z"/>
	<path class="st11" d="M809,523.3c0,11.3,1.3,37,4,49.3"/>
	<path class="st0" d="M809,523.3c0.4,8.3,1.1,16.5,2,24.7c0.5,4.1,1,8.2,1.6,12.2c0.6,4,1.3,8.1,2.3,12l-3.9,0.8
		c-0.7-4.2-1.1-8.3-1.4-12.5s-0.5-8.3-0.6-12.4C808.8,539.9,808.7,531.6,809,523.3z"/>
	<path class="st11" d="M830,530.7c0,8.7,1.7,37,5,51.7"/>
	<path class="st0" d="M830,530.7c0.2,4.3,0.6,8.6,1,13s0.9,8.6,1.5,12.9s1.2,8.6,1.9,12.8s1.5,8.5,2.6,12.6l-3.9,0.9
		c-0.8-4.4-1.3-8.7-1.7-13.1s-0.7-8.7-0.9-13s-0.4-8.7-0.5-13S829.9,535,830,530.7z"/>
	<path class="st11" d="M851,538c0,6,2,37,6,54"/>
	<path class="st0" d="M851,538c0.2,4.5,0.7,9,1.2,13.5s1.1,9,1.7,13.5s1.3,9,2.1,13.4s1.7,8.8,2.9,13.1l-3.9,0.9
		c-0.9-4.5-1.5-9.1-2-13.6s-0.9-9.1-1.2-13.6s-0.5-9.1-0.7-13.6S850.9,542.5,851,538z"/>
	<path class="st11" d="M870.7,540.7c0,10.3,3,37.7,7.5,52.2"/>
	<path class="st0" d="M870.7,540.7c0.2,4.4,0.7,8.8,1.3,13.1s1.2,8.7,2,13s1.6,8.6,2.6,12.9c0.9,4.2,2.1,8.4,3.5,12.5l-3.8,1.2
		c-1.1-4.3-2-8.7-2.6-13.2c-0.7-4.4-1.2-8.8-1.6-13.2s-0.8-8.8-1-13.2S870.5,545.1,870.7,540.7z"/>
	<path class="st11" d="M890.3,543.3c0,14.7,4,38.3,9,50.3"/>
	<path class="st0" d="M890.3,543.3c0.2,4.3,0.7,8.5,1.2,12.8s1.4,8.4,2.3,12.6s1.9,8.3,3.1,12.4c1.1,4,2.6,8,4.2,11.8l-3.7,1.5
		c-1.5-4.1-2.6-8.4-3.5-12.7c-0.9-4.2-1.6-8.5-2.2-12.8s-1-8.5-1.3-12.8S890.2,547.6,890.3,543.3z"/>
	<path class="st11" d="M910,546c0,19,5,39,10.5,48.5"/>
	<path class="st0" d="M910,546c0.4,8.3,1.6,16.6,3.5,24.7c1,4,2.2,8,3.5,11.9c1.3,3.8,3.1,7.5,5.1,11l-3.5,2
		c-1.9-3.9-3.4-7.9-4.5-12.1c-1.1-4.1-2-8.2-2.7-12.4C910.3,562.8,909.7,554.4,910,546z"/>
	<g class="st7">
		<line class="st8" x1="843.3" y1="398" x2="865" y2="361.4"/>
		<line class="st9" x1="838" y1="390.7" x2="855.5" y2="361"/>
		<line class="st8" x1="913.5" y1="404.5" x2="928" y2="380"/>
		<line class="st9" x1="909" y1="400" x2="921" y2="379.7"/>
	</g>
	<path class="st13" d="M949.4,399.3c-3.4,9.5-14.2,14.7-24.6,12.5s-18.3-11.2-17.5-21.3c0.7-8.5,13.9-13,25.7-10.5
		S952,392,949.4,399.3z"/>
	<path class="st13" d="M891.2,384.9c-3.3,14.4-19.2,22.6-34,19.5s-25.9-16.9-23.4-31.5c1.2-6.9,14.7-14.6,32.2-10.9
		S893,377,891.2,384.9z"/>
	<line class="st13" x1="909" y1="385" x2="892" y2="382"/>
	<line class="st13" x1="950" y1="394" x2="972" y2="392"/>
	<line class="st13" x1="835" y1="370" x2="752" y2="344"/>
	<path class="st4" d="M818.5,341.5c19,12,33,6,6-7"/>
	<path class="st4" d="M952.5,370.5c-11-2-22,4-2,6"/>
	<path class="st4" d="M849.5,302c60-2.5,94,12.5,110,25.5"/>
	<path class="st4" d="M888.5,288.5c20-1,42,6,52,12"/>
	<path class="st0" d="M926.5,435.6c-9.4-0.4-18.8-1.2-28.2-2.4c-9.4-1.2-18.7-3-27.9-5.4c-9.3-2.4-18.2-5.9-26.6-10.5
		c-4.2-2.4-8.2-5.2-11.7-8.5c-3.6-3.4-6.6-7.3-8.9-11.7l3.6-1.7c1.9,4.1,4.5,7.8,7.7,11c3.3,3.2,6.9,6.1,10.8,8.5
		c8,4.8,16.6,8.5,25.6,11.1c9,2.7,18.2,4.9,27.5,6.4C907.7,433.8,917.1,434.9,926.5,435.6z"/>
	<path class="st0" d="M798.4,650.4c-0.1,0.8,0,1.6,0.4,2.3c3.6-0.5,7.3-1.2,11-1.4c1-0.1,2-0.2,3-0.1c2.2,0.2,3.6,1.4,3.6,3.3
		s-1.3,3.2-3.6,3.2c-4.1,0.1-8.2,0.4-12.2,0.9c-1.2,0.2-1.6,0.6-1.5,1.8c0.3,3,0.5,5.9,0.6,8.9c0.1,1,0.5,1.3,1.5,1.2l7.6-1.3
		c1-0.2,2-0.2,3,0.1c1.2,0.4,2,1.5,2.1,2.8c0.1,1.3-0.6,2.5-1.7,3l-0.8,0.3c-3.8,0.8-7.6,1.3-11.4,1.4c-0.9,0-1.8-0.2-2.7-0.5
		c-2.1-0.6-3.6-2.6-3.7-4.8c-1.3-14.8-2.1-29.6-0.9-44.5c0.2-2,0.5-4,0.5-5.9c-0.1-1.7,1.1-3.3,2.9-3.4c0,0,0.1,0,0.1,0
		c0.6-0.1,1.3-0.1,1.9-0.1h13.5c0.9-0.1,1.7,0.1,2.5,0.4c1.2,0.5,1.9,1.8,1.8,3.1c-0.1,1.3-0.9,2.4-2.1,2.8
		c-0.9,0.3-1.8,0.4-2.7,0.4c-3.2-0.2-6.3-0.3-9.5-0.4c-2.4-0.1-2.4-0.1-2.5,2.4c-0.1,2.1-0.2,4.1-0.2,6.2c0,6,0.1,12.1,0.2,18.1
		L798.4,650.4z"/>
	<path class="st0" d="M825.9,623.8c1.4,4.3,2.9,8.6,4.3,13c0.9-0.3,0.9-0.9,1.1-1.3c1.9-4.8,4-9.5,5.7-14.3c0.2-0.8,0.6-1.6,1-2.3
		c0.7-1.4,2.4-2.1,3.9-1.4c1.4,0.6,2,2.2,1.5,3.6c-0.6,2.2-1.3,4.5-2.1,6.8c-2.1,6.2-4.5,12.2-6.8,18.3c-0.4,1.1-0.5,2.3-0.1,3.4
		c2.6,7.9,4.9,15.9,7.7,23.8c0.2,0.5,0.3,1,0.4,1.5c0.1,1.8-1.2,3.3-2.9,3.5c-1,0.1-2.1-0.3-2.7-1.1c-0.7-0.9-1.2-1.9-1.5-3.1
		l-4.6-14c-0.1-0.6-0.4-1.1-0.7-1.5c-0.4,0.6-0.6,1.2-0.8,1.8c-1.6,4.1-2.6,8.5-4,12.7c-0.2,0.8-0.5,1.6-0.9,2.3
		c-0.7,1.4-2.4,2-3.9,1.5c-1.5-0.5-2.4-2-2.2-3.6l0.3-1.3c2.2-7.4,4.5-14.8,7.5-21.9c0.7-1.5,0.8-3.3,0.3-4.9
		c-2.4-7.3-4.6-14.7-6.6-22.1c-0.3-0.9-0.5-1.8-0.6-2.7c-0.2-1.5,0.7-2.8,2.2-3.2c1.4-0.4,2.9,0.5,3.3,1.9
		C825.1,620.5,825.4,622.1,825.9,623.8L825.9,623.8z"/>
	<path class="st0" d="M865.3,627.4c2,4.1,3,8.7,2.9,13.2c0.1,3.7-0.7,7.3-2.2,10.6c-2.1,4.3-5.1,7.7-9.9,9l-1.3,0.3
		c-2.1,0.4-2.2,0.4-1.9,2.3c0.3,3.3,0.4,6.7,0.2,10c0,0.6-0.1,1.2-0.4,1.8c-0.4,1.3-1.7,2.1-3,2c-1.2,0-2.4-0.7-2.8-1.9
		c-0.4-1-0.5-2.1-0.4-3.2c0.2-2.2,0.2-4.5-0.1-6.8c-0.6-5.2-0.5-10.4-0.7-15.7c-0.3-8.4-0.8-16.7-0.6-25.1c0-0.7-0.1-1.4-0.1-2.2
		c-0.4-1.8,0.7-3.6,2.5-4c0,0,0,0,0,0c3.6-1.3,7.5-0.8,10.7,1.3c3.1,1.9,5.6,4.7,7.1,8L865.3,627.4z M855.9,625.6
		c-1.2-1-2.7-1.5-4.2-1.4c-0.5,0.9-0.3,1.8-0.3,2.7c0.2,8.3,1.1,16.6,1,24.9c0,2.7,0.6,3.1,3.1,1.9c1.2-0.5,2.2-1.4,3-2.4
		c0.9-1.2,1.6-2.6,2.1-4c1.9-5.6,1.5-11.7-1.2-17c-0.8-1.8-2.1-3.4-3.7-4.6L855.9,625.6z"/>
	<path class="st0" d="M875.6,650.4c-0.1,0.8,0,1.6,0.4,2.3c3.6-0.5,7.3-1.2,11-1.4c1-0.1,2-0.2,3-0.1c2.2,0.2,3.6,1.4,3.6,3.3
		s-1.3,3.2-3.6,3.2c-4.1,0.1-8.2,0.4-12.2,0.9c-1.2,0.2-1.6,0.6-1.5,1.8c0.3,3,0.5,5.9,0.6,8.9c0.1,1,0.5,1.3,1.5,1.2l7.6-1.3
		c1-0.2,2-0.2,3,0.1c1.2,0.4,2,1.5,2.1,2.8c0.1,1.3-0.6,2.5-1.7,3l-0.8,0.3c-3.8,0.8-7.6,1.3-11.5,1.4c-0.9,0-1.8-0.2-2.7-0.5
		c-2.1-0.6-3.6-2.6-3.7-4.8c-1.3-14.8-2.1-29.6-0.9-44.5c0.2-2,0.5-4,0.5-5.9c-0.1-1.7,1.1-3.3,2.9-3.4c0,0,0.1,0,0.1,0
		c0.6-0.1,1.3-0.1,1.9-0.1h13.5c0.9-0.1,1.8,0.1,2.6,0.4c1.2,0.5,1.9,1.7,1.8,3c-0.1,1.3-0.9,2.4-2.1,2.8c-0.9,0.3-1.8,0.4-2.7,0.4
		c-3.2-0.2-6.3-0.3-9.5-0.4c-2.4-0.1-2.4-0.1-2.5,2.4c-0.1,2.1-0.2,4.1-0.2,6.2c0,6,0.1,12.1,0.2,18.1L875.6,650.4z"/>
	<path class="st0" d="M903.6,665c-0.3-0.6-0.7-1.1-1.3-1.4c-0.1,3.3,0,6.6,0.3,9.9c0.2,0.9,0.1,1.8-0.1,2.7c-0.4,1.3-1.6,2.3-3,2.3
		c-1.4,0.1-2.7-0.7-3.2-2.1c-0.3-0.6-0.4-1.2-0.4-1.8c-0.6-14.2-0.5-28.5,0.3-42.7c0.2-3.3,0.5-6.7,0.5-10c0-3.6,1.5-5.4,5.6-5.8
		c8.2-0.8,14,3,16.1,10.9c1.8,6.1,1.1,12.7-2,18.4c-2.3,4.5-5.4,8.5-9.1,11.9c-0.6,0.5-0.9,1-0.5,1.7c2.3,3.8,4.9,7.5,7.7,11
		c0.7,0.9,1.5,1.7,2.4,2.3c1.7,1.3,2.1,3.1,1.1,4.6c-1.1,1.6-3.3,2-4.9,0.9c-1.8-1.1-3.4-2.6-4.6-4.4c-2-2.7-3.8-5.5-5.5-8.4
		L903.6,665z M902.6,642c-0.2,3.4-0.1,6.8-0.1,10.4c0.8-0.1,1.6-0.6,2.1-1.3c2.4-3,5-5.9,6.6-9.5c2-4.4,2.3-9.4,0.7-14
		c-1.2-3.6-3.8-5.3-7.5-5.6c-1-0.1-1.6,0.1-1.5,1.3c0,0.6-0.1,1.3-0.1,1.9c-0.1,5.6-0.1,11.2-0.4,16.7L902.6,642z"/>
	<path class="st0" d="M926.9,624c0.1,8.3,0,16.6,0.4,23c0.4,10.3,0.6,18.8,0.9,27.3c0,0.5,0,0.9-0.1,1.3c-0.3,1.6-1.6,2.7-3.2,2.8
		c-1.5,0-2.8-1.1-3.2-2.5c-0.1-0.7-0.2-1.5-0.2-2.2c-0.3-9-0.5-18-0.9-27c-0.4-7.9,0.2-15.8,0.3-23.6c-0.1-0.7,0-1.4,0.3-2.1
		c0.3-1.2,1.5-2,2.7-2c1.3,0,2.4,0.8,2.8,2c0.3,1,0.4,2.1,0.4,3.1L926.9,624z"/>
	<path class="st0" d="M935.7,650.4c-0.1,0.8,0,1.6,0.4,2.3c3.6-0.5,7.3-1.2,11-1.4c1-0.1,2-0.2,3-0.1c2.2,0.2,3.6,1.4,3.6,3.3
		s-1.3,3.2-3.6,3.2c-4.1,0.1-8.2,0.4-12.2,0.9c-1.2,0.2-1.6,0.6-1.5,1.8c0.3,3,0.5,5.9,0.6,8.9c0.1,1,0.5,1.3,1.5,1.2l7.6-1.3
		c1-0.2,2-0.2,3,0.1c1.2,0.4,2,1.5,2.1,2.8c0.1,1.3-0.6,2.5-1.7,3l-0.8,0.3c-3.8,0.8-7.6,1.3-11.4,1.4c-0.9,0-1.8-0.2-2.7-0.5
		c-2.1-0.6-3.6-2.6-3.7-4.8c-1.3-14.8-2.1-29.6-0.9-44.5c0.2-2,0.5-4,0.5-5.9c-0.1-1.7,1.1-3.3,2.9-3.4c0,0,0.1,0,0.1,0
		c0.6-0.1,1.3-0.1,1.9-0.1h13.5c0.9-0.1,1.8,0.1,2.6,0.4c1.2,0.5,1.9,1.8,1.8,3.1c-0.1,1.3-0.9,2.4-2.1,2.8
		c-0.9,0.3-1.8,0.4-2.7,0.4c-3.2-0.2-6.3-0.3-9.5-0.4c-2.4-0.1-2.4-0.1-2.5,2.4c-0.1,2.1-0.2,4.1-0.2,6.2c0,6,0.1,12.1,0.2,18.1
		L935.7,650.4z"/>
	<path class="st0" d="M964.2,636.2c-0.1-0.6-0.4-1.1-0.9-1.5c-0.6,12.5-1.2,24.8-1,37.2c0,0.7,0,1.4-0.1,2.2
		c-0.2,2.2-1.4,3.6-3.3,3.6s-3.1-1.3-3.2-3.4c-0.1-3.7-0.3-7.4-0.2-11.1c0.3-7.8,0.3-15.8,0.8-23.6c0.4-5.8,0.6-11.5,1-17.3
		c0.1-1.4,0.4-2.7,0.8-4c0.5-1.6,1.3-2.3,2.7-2.4c1.3-0.1,2.6,0.6,3.1,1.9c2.1,4.5,4,9.2,5.8,13.9c2,5.3,3.9,10.6,5.8,15.9
		c0.2,0.5,0.4,0.9,0.5,1.4c0.6-0.4,0.5-0.8,0.5-1.2l0.3-27.8c0-0.4,0-0.7,0.1-1.1c0.1-1.3,1.1-2.3,2.3-2.4c1.2-0.2,2.5,0.4,3,1.5
		c0.4,0.9,0.5,1.9,0.5,2.9c0.5,10.1,0.6,20.1,0.3,30.2c-0.3,7.4-0.5,14.8-0.1,22.1c0.1,0.8,0.1,1.6-0.1,2.4
		c-0.2,1.6-1.5,2.8-3.2,2.9c-1.6,0.1-3-1-3.3-2.5l-0.5-2.2c-2.2-9.8-5.1-19.5-8.8-28.9l-3-8.1L964.2,636.2z"/>
	<path class="st0" d="M993.7,632.7c-2,7.1-2.9,14.5-2.7,21.9c0,4,0.5,7.9,1.4,11.8c0.3,1.5,0.9,3,1.7,4.3c0.5,0.9,1.1,1,1.8,0.2
		c0.6-0.8,1.2-1.7,1.6-2.6c0.9-1.8,1.4-3.8,2.2-5.7c0.8-2.1,2.4-3,4.1-2.4c1.8,0.7,2.7,2.7,2.1,4.5c-0.9,3.9-2.6,7.6-5,10.9
		c-3.9,4.8-9.1,4.4-12.3-0.9c-1.7-3-2.8-6.3-3.2-9.7c-2-12.3-1-24.9,3.1-36.7c0.8-2.3,1.9-4.5,3.2-6.5c0.7-1,1.4-1.8,2.3-2.6
		c3.1-2.4,6.6-2.2,9.3,0.7c1.5,1.7,2.6,3.6,3.2,5.8c1.1,3.1,1.7,6.2,2,9.5c0.1,0.5,0.1,1.1,0,1.6c-0.1,1.6-1.4,2.9-3,3.2
		c-1.6,0.1-3-1-3.3-2.5c-0.2-1-0.4-2.1-0.5-3.2c-0.3-2.8-1-5.5-2.2-8.1c-0.9-1.8-1.4-1.9-2.6-0.3c-1.4,2.1-2.4,4.3-3.1,6.8
		L993.7,632.7z"/>
	<path class="st0" d="M1016.1,624c0.1,8.3,0,16.6,0.4,23c0.4,10.3,0.6,18.8,0.9,27.3c0,0.5,0,0.9-0.1,1.3c-0.3,1.6-1.6,2.7-3.2,2.8
		c-1.5,0-2.8-1.1-3.2-2.5c-0.1-0.7-0.2-1.5-0.2-2.2c-0.3-9-0.5-18-0.9-27c-0.4-7.9,0.2-15.8,0.3-23.6c-0.1-0.7,0-1.4,0.3-2.1
		c0.3-1.2,1.5-2,2.7-2c1.3,0,2.4,0.8,2.8,2c0.3,1,0.4,2.1,0.4,3.1L1016.1,624z"/>
	<path class="st0" d="M1018.7,670.7c0.4-6.8,1.3-13.4,2.1-20.1c1.2-10.2,3.2-20.2,5.3-30.2c0.4-2.2,2.1-2.7,3.8-3.2
		c1.4-0.4,2.8,0.2,3.5,1.4c0.7,0.9,1.1,2,1.4,3.1c2.1,6,3.6,12.2,4.4,18.5c1.3,8.8,2.8,17.6,4.4,26.5c0.4,2.5,0.7,5,1.1,7.6
		c0.3,1.5-0.3,3-1.6,3.8c-1.6,0.9-3.6,0.4-4.5-1.2c0-0.1-0.1-0.2-0.1-0.3c-0.3-0.8-0.6-1.7-0.6-2.6c-0.4-3.8-1.1-7.5-1.7-11.2
		c-0.2-1.1-0.4-1.6-1.7-1.3c-2.2,0.6-4.4,0.9-6.7,1c-1.2,0.1-1.5,0.6-1.7,1.7c-0.4,2.5-0.4,5.1-0.6,7.7c0,1-0.2,2-0.4,2.9
		c-0.4,1.5-1.8,2.6-3.4,2.4c-1.6-0.1-2.8-1.3-2.9-2.9c0-0.6,0-1.3,0-1.9L1018.7,670.7z M1032.3,640.6c-0.4-3.1-1-6.1-1.5-9.2h-0.5
		c-1.2,8.3-2.7,16.6-3.4,25c2.1-0.1,4.2-0.4,6.3-1c1.2-0.3,1.4-0.7,1.3-1.9C1033.7,649.2,1033.1,644.9,1032.3,640.6L1032.3,640.6z"
		/>
</g>
</svg>
