<svg id="Capa_1" data-name="Capa 1" xmlns="http://www.w3.org/2000/svg" viewBox="0 0 50 50"><defs><style>.cls-1{fill:#fff;}.cls-2{fill:#a2b1ce;}.cls-3{fill:#e8ecf3;}.cls-4{fill:#a7b5d1;}.cls-5{fill:#7acab5;fill-rule:evenodd;}</style></defs><rect class="cls-1" x="-152" y="-12" width="354" height="74"/><path class="cls-2" d="M24.49,25.22c0-.12,0-.24,0-.36a4.89,4.89,0,0,1,.32-2.17c.11.11.23.21.35.31.78.65.13,1.49.3,2.22h-.92Z"/><path class="cls-3" d="M25.56,24.42c-.17.41-.33.82-.49,1.23-.22-.43-1.41-.86,0-1.3Z"/><path class="cls-4" d="M24.52,25.22h.62c.1.32.21.63.31.95-.34.22,0,.42,0,.63l-.33.33a.64.64,0,0,0-.32.63C24.19,27,24.63,26.07,24.52,25.22Z"/><path class="cls-5" d="M20.86,25.12V40.44a.4.4,0,0,0,.4.4h5.68a.4.4,0,0,0,.4-.4V24.88h4.12a.4.4,0,0,0,.4-.37l.4-4.69a.4.4,0,0,0-.4-.43H27.34V16.06a1.41,1.41,0,0,1,1.41-1.41h3.18a.4.4,0,0,0,.4-.4V9.56a.4.4,0,0,0-.4-.4H26.56a5.71,5.71,0,0,0-5.7,5.71v4.52H18a.39.39,0,0,0-.39.4v4.69a.39.39,0,0,0,.39.4h2.85Z"/></svg>