<svg id="Capa_1" data-name="Capa 1" xmlns="http://www.w3.org/2000/svg" viewBox="0 0 50 50"><defs><style>.cls-1{fill:#fff;}.cls-2,.cls-3{fill:#7acab5;}.cls-3{fill-rule:evenodd;}</style></defs><rect class="cls-1" x="-82" y="-12" width="354" height="74"/><path class="cls-2" d="M40.18,15.36a12.75,12.75,0,0,1-3.11.89c.5-.09,1.24-1,1.54-1.36a5.71,5.71,0,0,0,1-1.89c0-.05,0-.12,0-.16a.2.2,0,0,0-.17,0,15.74,15.74,0,0,1-3.69,1.42.27.27,0,0,1-.26-.07,2,2,0,0,0-.32-.33,6.59,6.59,0,0,0-1.79-1.1,6.27,6.27,0,0,0-2.74-.44A6.7,6.7,0,0,0,26,14.78a6.49,6.49,0,0,0-1.25,2.52A6.76,6.76,0,0,0,24.64,20c0,.15,0,.17-.13.15-5.07-.76-9.28-2.57-12.69-6.46-.15-.17-.23-.17-.35,0-1.5,2.24-.77,5.84,1.09,7.6a10.13,10.13,0,0,0,.78.69,6.39,6.39,0,0,1-2.45-.69c-.14-.09-.22,0-.23.13a3,3,0,0,0,0,.73,6.5,6.5,0,0,0,4,5.19,4,4,0,0,0,.81.25,7.21,7.21,0,0,1-2.4.07c-.17,0-.24.06-.17.23a6.75,6.75,0,0,0,5,4.22c.23,0,.46,0,.69.1,0,0,0,0,0,0-.57.86-2.53,1.51-3.45,1.83a12.39,12.39,0,0,1-5.23.67c-.28-.05-.34,0-.42,0s0,.11.08.18c.36.24.72.45,1.09.65a17.64,17.64,0,0,0,3.5,1.4c6.29,1.74,13.38.46,18.1-4.23,3.71-3.69,5-8.77,5-13.86,0-.2.24-.31.38-.41a12.65,12.65,0,0,0,2.45-2.56.76.76,0,0,0,.15-.49v0C40.3,15.28,40.31,15.3,40.18,15.36Z"/><path class="cls-3" d="M18.65,37.57Z"/><path class="cls-3" d="M19.69,37.6c0-.05.54,0,0,0C19.69,37.57,19.75,37.6,19.69,37.6Z"/><path class="cls-3" d="M30.58,12.36a.15.15,0,0,1-.13,0Z"/></svg>