<svg id="Capa_1" data-name="Capa 1" xmlns="http://www.w3.org/2000/svg" viewBox="0 0 50 50"><defs><style>.cls-1{fill:#fff;}.cls-2{fill:#7acab5;}</style></defs><rect class="cls-1" x="-12" y="-12" width="354" height="74"/><circle class="cls-2" cx="33.85" cy="16.29" r="1.94"/><path class="cls-2" d="M25.22,16.84A8.16,8.16,0,1,0,33.37,25,8.17,8.17,0,0,0,25.22,16.84Zm0,13.39A5.23,5.23,0,1,1,30.44,25,5.23,5.23,0,0,1,25.22,30.23Z"/><path class="cls-2" d="M31.69,41.56H18.47a10,10,0,0,1-9.95-10V18.39a10,10,0,0,1,10-10H31.69a10,10,0,0,1,10,10V31.61A10,10,0,0,1,31.69,41.56Zm-13.22-30a6.85,6.85,0,0,0-6.84,6.84V31.61a6.85,6.85,0,0,0,6.84,6.84H31.69a6.85,6.85,0,0,0,6.84-6.84V18.39a6.85,6.85,0,0,0-6.84-6.84Z"/></svg>